<svg xmlns="http://www.w3.org/2000/svg" xmlns:xlink="http://www.w3.org/1999/xlink" viewBox="0 0 16 16"><defs><style>.cls-1{opacity:0.4;fill:url(#未命名的渐变_32);}</style><linearGradient id="未命名的渐变_32" x1="8" y1="16" x2="8" y2="1.59" gradientUnits="userSpaceOnUse"><stop offset="0" stop-color="#2c80e3"/><stop offset="0.08" stop-color="#288be6"/><stop offset="0.61" stop-color="#0bd5f7"/><stop offset="0.85" stop-color="#00f2fe"/></linearGradient></defs><g id="图层_2" data-name="图层 2"><g id="图层_1-2" data-name="图层 1"><path class="cls-1" d="M13.66,13.66A8,8,0,0,1,2.34,2.34a7.85,7.85,0,0,1,.89-.75L4,3c-.17.14-.32.28-.48.43a6.41,6.41,0,1,0,9.06,0A4.91,4.91,0,0,0,12.05,3l.72-1.45a6.94,6.94,0,0,1,.89.75A8,8,0,0,1,13.66,13.66Zm-3-7.74a3.34,3.34,0,1,1-5.24,0L5,5.12a4.17,4.17,0,1,0,6,0Z"/><path d="M8.72,6.42,11.31.71a8,8,0,0,0-6.62,0l2.59,5.7a1.72,1.72,0,0,0-.51.35,1.74,1.74,0,1,0,2.46,0A1.72,1.72,0,0,0,8.72,6.42Z"/></g></g></svg>