<svg xmlns="http://www.w3.org/2000/svg" viewBox="0 0 24.03 13.11"><defs><style>.cls-1{fill:#1d7dcc;stroke:#000;stroke-linecap:round;stroke-linejoin:round;stroke-width:0.5px;}</style></defs><g id="图层_2" data-name="图层 2"><g id="图层_1-2" data-name="图层 1"><rect class="cls-1" x="8.98" y="4.09" width="1.74" height="2.58"/><path class="cls-1" d="M12.86,4.31l1,0,.2.3V7.7l-1.34,0,0-3Z"/><path class="cls-1" d="M7.93,7,8,4.14v-1l3.53.17,0-1.51h1.74V.25h1.42v3l4.9.11,0,1.64-2.27-.13.58,2.71a27.56,27.56,0,0,0,5.88.87v4.45S6.3,12.33,4.92,11.63,1,7.11,1,7.11L.25,5.74A33.12,33.12,0,0,0,7.93,7Z"/><rect class="cls-1" x="13.85" y="4.89" width="1.54" height="2.22" transform="translate(29.24 12.01) rotate(-180)"/><rect class="cls-1" x="10.54" y="4.89" width="1.54" height="2.22" transform="translate(22.62 12.01) rotate(-180)"/></g></g></svg>