<svg xmlns="http://www.w3.org/2000/svg" viewBox="0 0 21.45 12.37"><defs><style>.cls-1{stroke:#fff;stroke-linecap:round;stroke-linejoin:round;stroke-width:0.5px;}.cls-2{fill:#fff;}</style></defs><g id="图层_2" data-name="图层 2"><g id="图层_1-2" data-name="图层 1"><path class="cls-1" d="M1.3,5v2.6l-1,0,.08.47,0,.12,0,.12a2.81,2.81,0,0,0,1.9,2.18l.12,0,0,0,0,.06v.06c-.16.61.46,1.23,1.43,1.37h.08l12,0,.1-.29,0-.07a2,2,0,0,1,1.45-1.09l.31-.06.27,0,.51-.06.09,0c.83-.11,2.64-.22,2.63-.7v-3H18.26a.49.49,0,0,0,0-.73l-3-2.42.2-.47a2,2,0,0,0,0-.35V2.61A2.54,2.54,0,0,0,12.81.25a3.14,3.14,0,0,0-1.28.28l-.2.1,1.9,1.46,0,0s0,.08,0,.09l0,0-.74.88a.13.13,0,0,1-.13,0l0,0-2-1.38-.07.17a2.18,2.18,0,0,0-.12.72A2.54,2.54,0,0,0,12.82,5S12.49,5,13,5s.59-.26.59-.26l3.28,1.93c.35.2.05.09.05.09H9.2V4.94h-5V2.41H1.29V5Z"/><path class="cls-2" d="M19,8.51a1.86,1.86,0,0,1-1.07-.31,1.84,1.84,0,0,0-2,0,1.86,1.86,0,0,1-1.07.31,1.89,1.89,0,0,1-1.07-.31,1.82,1.82,0,0,0-1.94,0,1.89,1.89,0,0,1-1.07.31A1.84,1.84,0,0,1,9.77,8.2a1.84,1.84,0,0,0-1.95,0,1.86,1.86,0,0,1-1.07.31A1.86,1.86,0,0,1,5.68,8.2a1.72,1.72,0,0,0-1-.28,1.73,1.73,0,0,0-1,.28,1.84,1.84,0,0,1-1.07.31A1.89,1.89,0,0,1,1.59,8.2a1.69,1.69,0,0,0-1-.28c-.08,0-.15-.12-.15-.26S.54,7.4.62,7.4a1.94,1.94,0,0,1,1.07.31,1.72,1.72,0,0,0,1,.28,1.73,1.73,0,0,0,1-.28A1.91,1.91,0,0,1,4.71,7.4a2,2,0,0,1,1.07.31,1.69,1.69,0,0,0,1,.28,1.69,1.69,0,0,0,1-.28A2,2,0,0,1,8.79,7.4a1.91,1.91,0,0,1,1.07.31,1.84,1.84,0,0,0,2,0,2,2,0,0,1,2.14,0,1.84,1.84,0,0,0,2,0A1.91,1.91,0,0,1,17,7.4,2,2,0,0,1,18,7.71a1.82,1.82,0,0,0,1.94,0,2,2,0,0,1,1.07-.31c.09,0,.15.12.15.26s-.06.26-.15.26a1.72,1.72,0,0,0-1,.28A1.89,1.89,0,0,1,19,8.51Z"/><path class="cls-2" d="M19.1,10.71a1.83,1.83,0,0,1-1-.3,1.65,1.65,0,0,0-1.87,0,1.79,1.79,0,0,1-1,.3,1.83,1.83,0,0,1-1-.3,1.65,1.65,0,0,0-1.87,0,1.79,1.79,0,0,1-1,.3,1.83,1.83,0,0,1-1-.3,1.65,1.65,0,0,0-1.87,0,1.79,1.79,0,0,1-1,.3,1.83,1.83,0,0,1-1-.3,1.65,1.65,0,0,0-1.87,0,1.79,1.79,0,0,1-1,.3,1.83,1.83,0,0,1-1-.3,1.6,1.6,0,0,0-.93-.29c-.08,0-.15-.11-.15-.25s.07-.26.15-.26a1.79,1.79,0,0,1,1,.3,1.65,1.65,0,0,0,1.87,0,1.83,1.83,0,0,1,1-.3,1.79,1.79,0,0,1,1,.3,1.65,1.65,0,0,0,1.87,0,1.83,1.83,0,0,1,1-.3,1.79,1.79,0,0,1,1,.3,1.65,1.65,0,0,0,1.87,0,1.83,1.83,0,0,1,1-.3,1.79,1.79,0,0,1,1,.3,1.65,1.65,0,0,0,1.87,0,1.83,1.83,0,0,1,1-.3,1.79,1.79,0,0,1,1,.3,1.65,1.65,0,0,0,1.87,0,1.83,1.83,0,0,1,1-.3c.08,0,.14.11.14.26s-.06.25-.14.25a1.61,1.61,0,0,0-.94.29,1.79,1.79,0,0,1-1,.3Z"/></g></g></svg>