<svg xmlns="http://www.w3.org/2000/svg" viewBox="0 0 21.45 16"><defs><style>.cls-1{fill:#fff;}.cls-2{stroke:#fff;stroke-linecap:round;stroke-linejoin:round;stroke-width:0.5px;}</style></defs><g id="图层_2" data-name="图层 2"><g id="图层_1-2" data-name="图层 1"><path class="cls-1" d="M4.81,2.34a8,8,0,1,0,11.32,0A8,8,0,0,0,4.81,2.34ZM15.58,13.11a7.23,7.23,0,1,1,0-10.22A7.25,7.25,0,0,1,15.58,13.11Z"/><path class="cls-2" d="M1.3,7.23v2.6l-1,0,.08.47,0,.11,0,.13a2.81,2.81,0,0,0,1.9,2.18l.12,0,0,.05,0,.06V13c-.16.6.46,1.22,1.43,1.37h.08l12,0,.1-.29,0-.07a2,2,0,0,1,1.45-1.09l.31-.06.27,0,.51-.07h.09c.83-.11,2.64-.22,2.63-.7V9H18.26a.49.49,0,0,0,0-.73l-3-2.42.2-.47a2.23,2.23,0,0,0,0-.36V4.83a2.54,2.54,0,0,0-2.7-2.36,3.14,3.14,0,0,0-1.28.28l-.2.1,1.9,1.46,0,0a.07.07,0,0,1,0,.09l0,0-.74.88a.16.16,0,0,1-.13,0l0,0L10.31,4l-.07.18a2.18,2.18,0,0,0-.12.72,2.55,2.55,0,0,0,2.7,2.36s-.33,0,.15,0,.59-.26.59-.26l3.28,1.93c.35.2.05.09.05.09H9.2V7.15h-5V4.62H1.29v2.6Z"/></g></g></svg>