<svg xmlns="http://www.w3.org/2000/svg" viewBox="0 0 21.45 16"><defs><style>.cls-1{fill:#fff;}.cls-2{stroke:#fff;stroke-linecap:round;stroke-linejoin:round;stroke-width:0.5px;}</style></defs><g id="图层_2" data-name="图层 2"><g id="图层_1-2" data-name="图层 1"><path class="cls-1" d="M4.65,2.34A8,8,0,1,0,16,2.34,8,8,0,0,0,4.65,2.34ZM15.42,13.11a7.23,7.23,0,1,1,0-10.22A7.25,7.25,0,0,1,15.42,13.11Z"/><path class="cls-2" d="M1.3,7.23v2.6l-1,0,.08.47,0,.11,0,.13a2.81,2.81,0,0,0,1.9,2.18l.12,0,0,.05,0,.06V13c-.16.6.46,1.22,1.43,1.37h.08l12,0,.1-.29,0-.07a2,2,0,0,1,1.45-1.09l.31-.06.27,0,.51-.07h.09c.83-.11,2.64-.22,2.63-.7V9H18.26a.49.49,0,0,0,0-.73l-3-2.42.2-.47a2.23,2.23,0,0,0,0-.36V4.83a2.54,2.54,0,0,0-2.7-2.36,3.14,3.14,0,0,0-1.28.28l-.2.1,1.9,1.46,0,0a.07.07,0,0,1,0,.09l0,0-.74.88a.16.16,0,0,1-.13,0l0,0L10.31,4l-.07.18a2.18,2.18,0,0,0-.12.72,2.55,2.55,0,0,0,2.7,2.36s-.33,0,.15,0,.59-.26.59-.26l3.28,1.93c.35.2.05.09.05.09H9.2V7.15h-5V4.62H1.29v2.6Z"/><path class="cls-1" d="M19,10.73a1.94,1.94,0,0,1-1.07-.31,1.84,1.84,0,0,0-2,0,1.94,1.94,0,0,1-1.07.31,2,2,0,0,1-1.07-.31,1.82,1.82,0,0,0-1.94,0,2,2,0,0,1-1.07.31,1.91,1.91,0,0,1-1.07-.31,1.84,1.84,0,0,0-1.95,0,2,2,0,0,1-2.14,0,1.72,1.72,0,0,0-1-.28,1.73,1.73,0,0,0-1,.28,1.91,1.91,0,0,1-1.07.31,2,2,0,0,1-1.07-.31,1.69,1.69,0,0,0-1-.28c-.08,0-.15-.12-.15-.26s.07-.26.15-.26a1.94,1.94,0,0,1,1.07.31,1.72,1.72,0,0,0,1,.28,1.73,1.73,0,0,0,1-.28,1.91,1.91,0,0,1,1.07-.31,2,2,0,0,1,1.07.31,1.69,1.69,0,0,0,1,.28,1.69,1.69,0,0,0,1-.28,2,2,0,0,1,1.07-.31,1.91,1.91,0,0,1,1.07.31,1.84,1.84,0,0,0,2,0,2,2,0,0,1,2.14,0,1.84,1.84,0,0,0,2,0A1.91,1.91,0,0,1,17,9.62,2,2,0,0,1,18,9.93a1.82,1.82,0,0,0,1.94,0,2,2,0,0,1,1.07-.31c.09,0,.15.12.15.26s-.06.26-.15.26a1.72,1.72,0,0,0-1,.28,2,2,0,0,1-1.07.31Z"/><path class="cls-1" d="M19.1,12.93a1.83,1.83,0,0,1-1-.3,1.65,1.65,0,0,0-1.87,0,1.79,1.79,0,0,1-1,.3,1.83,1.83,0,0,1-1-.3,1.65,1.65,0,0,0-1.87,0,1.79,1.79,0,0,1-1,.3,1.83,1.83,0,0,1-1-.3,1.65,1.65,0,0,0-1.87,0,1.79,1.79,0,0,1-1,.3,1.83,1.83,0,0,1-1-.3,1.53,1.53,0,0,0-.93-.29,1.54,1.54,0,0,0-.94.29,1.79,1.79,0,0,1-1,.3,1.83,1.83,0,0,1-1-.3,1.53,1.53,0,0,0-.93-.29c-.08,0-.15-.11-.15-.26s.07-.25.15-.25a1.79,1.79,0,0,1,1,.3,1.61,1.61,0,0,0,.94.28,1.6,1.6,0,0,0,.93-.28,1.83,1.83,0,0,1,1-.3,1.79,1.79,0,0,1,1,.3,1.7,1.7,0,0,0,1.87,0,1.83,1.83,0,0,1,1-.3,1.79,1.79,0,0,1,1,.3,1.7,1.7,0,0,0,1.87,0,1.83,1.83,0,0,1,1-.3,1.79,1.79,0,0,1,1,.3,1.7,1.7,0,0,0,1.87,0,1.83,1.83,0,0,1,1-.3,1.79,1.79,0,0,1,1,.3,1.7,1.7,0,0,0,1.87,0,1.83,1.83,0,0,1,1-.3c.08,0,.14.11.14.25s-.06.26-.14.26a1.54,1.54,0,0,0-.94.29,1.79,1.79,0,0,1-1,.3Z"/></g></g></svg>