<svg xmlns="http://www.w3.org/2000/svg" viewBox="0 0 21.45 16"><defs><style>.cls-1,.cls-2{fill:#46ccff;}.cls-2{stroke:#000;stroke-linecap:round;stroke-linejoin:round;stroke-width:0.5px;}</style></defs><g id="图层_2" data-name="图层 2"><g id="图层_1-2" data-name="图层 1"><path class="cls-1" d="M4.65,2.34A8,8,0,1,0,16,2.34,8,8,0,0,0,4.65,2.34ZM15.42,13.11a7.23,7.23,0,1,1,0-10.22A7.25,7.25,0,0,1,15.42,13.11Z"/><path class="cls-2" d="M1.3,7.18V9.77l-1,0,.08.48,0,.11,0,.12a2.8,2.8,0,0,0,1.9,2.18l.12,0,0,0,0,.06v.07c-.16.6.46,1.22,1.43,1.36h.08l12,0,.1-.28,0-.08a2,2,0,0,1,1.45-1.09l.31-.05.27,0,.51-.07h.09c.83-.12,2.64-.23,2.63-.71v-3H18.26a.5.5,0,0,0,0-.74l-3-2.42.2-.46a2.23,2.23,0,0,0,0-.36V4.78a2.55,2.55,0,0,0-2.7-2.37,3,3,0,0,0-1.28.29l-.2.1,1.9,1.46,0,0a.09.09,0,0,1,0,.1l0,0-.74.88a.11.11,0,0,1-.13,0l0,0-2-1.38-.07.18a2.16,2.16,0,0,0-.12.71,2.56,2.56,0,0,0,2.7,2.37s-.33,0,.15,0,.59-.26.59-.26l3.28,1.93c.35.2.05.09.05.1H9.2V7.1h-5V4.57H1.29v2.6Z"/><path d="M18.81,10.63a1.89,1.89,0,0,1-1-.31,1.72,1.72,0,0,0-1-.28,1.68,1.68,0,0,0-1,.28,2,2,0,0,1-2.12,0,1.68,1.68,0,0,0-1-.28,1.66,1.66,0,0,0-1,.28,1.93,1.93,0,0,1-1.06.31,1.9,1.9,0,0,1-1.06-.31,1.8,1.8,0,0,0-1.93,0,1.9,1.9,0,0,1-1.06.31,2,2,0,0,1-1.06-.31,1.66,1.66,0,0,0-1-.28,1.68,1.68,0,0,0-1,.28,1.9,1.9,0,0,1-1.06.31,1.9,1.9,0,0,1-1.06-.31,1.68,1.68,0,0,0-1-.28c-.08,0-.15-.12-.15-.26s.07-.26.15-.26a1.9,1.9,0,0,1,1.06.31,1.68,1.68,0,0,0,1,.28,1.66,1.66,0,0,0,1-.28,1.93,1.93,0,0,1,1.06-.31,1.9,1.9,0,0,1,1.06.31,1.8,1.8,0,0,0,1.93,0,2,2,0,0,1,2.11,0,1.72,1.72,0,0,0,1,.28,1.68,1.68,0,0,0,1-.28,2,2,0,0,1,2.12,0,1.68,1.68,0,0,0,1,.28,1.66,1.66,0,0,0,1-.28,1.93,1.93,0,0,1,1.06-.31,1.9,1.9,0,0,1,1.06.31,1.8,1.8,0,0,0,1.93,0,1.9,1.9,0,0,1,1.06-.31c.08,0,.15.12.15.26s-.07.26-.15.26a1.69,1.69,0,0,0-1,.28,1.9,1.9,0,0,1-1.06.31Z"/><path d="M18.9,12.83a1.78,1.78,0,0,1-1-.3,1.53,1.53,0,0,0-.93-.29,1.5,1.5,0,0,0-.92.29,1.87,1.87,0,0,1-2,0,1.62,1.62,0,0,0-1.85,0,1.87,1.87,0,0,1-2,0,1.62,1.62,0,0,0-1.85,0,1.87,1.87,0,0,1-2,0,1.5,1.5,0,0,0-.92-.29,1.51,1.51,0,0,0-.93.29,1.78,1.78,0,0,1-1,.3,1.79,1.79,0,0,1-1-.3,1.5,1.5,0,0,0-.92-.29c-.08,0-.15-.11-.15-.26s.07-.25.15-.25a1.78,1.78,0,0,1,1,.3,1.58,1.58,0,0,0,.93.28A1.57,1.57,0,0,0,4.31,12a1.87,1.87,0,0,1,2,0,1.67,1.67,0,0,0,1.85,0,1.87,1.87,0,0,1,2,0,1.67,1.67,0,0,0,1.85,0,1.87,1.87,0,0,1,2,0A1.67,1.67,0,0,0,16,12a1.87,1.87,0,0,1,2,0,1.57,1.57,0,0,0,.92.28,1.6,1.6,0,0,0,.93-.28,1.78,1.78,0,0,1,1-.3c.08,0,.15.11.15.25s-.07.26-.15.26a1.5,1.5,0,0,0-.92.29,1.79,1.79,0,0,1-1,.3Z"/></g></g></svg>