<svg xmlns="http://www.w3.org/2000/svg" viewBox="0 0 21.45 12.37"><defs><style>.cls-1{fill:#46ccff;stroke:#000;stroke-linecap:round;stroke-linejoin:round;stroke-width:0.5px;}</style></defs><g id="图层_2" data-name="图层 2"><g id="图层_1-2" data-name="图层 1"><path class="cls-1" d="M1.3,5v2.6l-1,0,.08.47,0,.12,0,.12a2.81,2.81,0,0,0,1.9,2.18l.12,0,0,0,0,.06v.06c-.16.61.46,1.23,1.43,1.37h.08l12,0,.1-.29,0-.07a2,2,0,0,1,1.45-1.09l.31-.06.27,0,.51-.06.09,0c.83-.11,2.64-.22,2.63-.7v-3H18.26a.49.49,0,0,0,0-.73l-3-2.42.2-.47a2,2,0,0,0,0-.35V2.61A2.54,2.54,0,0,0,12.81.25a3.14,3.14,0,0,0-1.28.28l-.2.1,1.9,1.46,0,0s0,.08,0,.09l0,0-.74.88a.13.13,0,0,1-.13,0l0,0-2-1.38-.07.17a2.18,2.18,0,0,0-.12.72A2.54,2.54,0,0,0,12.82,5S12.49,5,13,5s.59-.26.59-.26l3.28,1.93c.35.2.05.09.05.09H9.2V4.94h-5V2.41H1.29V5Z"/><path d="M18.81,8.47a1.89,1.89,0,0,1-1-.31,1.72,1.72,0,0,0-1-.28,1.68,1.68,0,0,0-1,.28,2,2,0,0,1-2.12,0,1.68,1.68,0,0,0-1-.28,1.66,1.66,0,0,0-1,.28,1.93,1.93,0,0,1-1.06.31,1.9,1.9,0,0,1-1.06-.31,1.8,1.8,0,0,0-1.93,0,1.9,1.9,0,0,1-1.06.31,2,2,0,0,1-1.06-.31,1.66,1.66,0,0,0-1-.28,1.68,1.68,0,0,0-1,.28,1.9,1.9,0,0,1-1.06.31,1.9,1.9,0,0,1-1.06-.31,1.68,1.68,0,0,0-1-.28c-.08,0-.15-.12-.15-.26s.07-.26.15-.26a1.91,1.91,0,0,1,1.06.3,1.61,1.61,0,0,0,1,.29,1.58,1.58,0,0,0,1-.29,1.94,1.94,0,0,1,1.06-.3,1.91,1.91,0,0,1,1.06.3,1.61,1.61,0,0,0,1,.29,1.62,1.62,0,0,0,1-.29,2,2,0,0,1,2.11,0,1.64,1.64,0,0,0,1,.29,1.61,1.61,0,0,0,1-.29,2,2,0,0,1,2.12,0,1.61,1.61,0,0,0,1,.29,1.58,1.58,0,0,0,1-.29,1.94,1.94,0,0,1,1.06-.3,1.91,1.91,0,0,1,1.06.3,1.75,1.75,0,0,0,1.93,0,1.91,1.91,0,0,1,1.06-.3c.08,0,.15.12.15.26s-.07.26-.15.26a1.69,1.69,0,0,0-1,.28,1.9,1.9,0,0,1-1.06.31Z"/><path d="M18.9,10.67a1.77,1.77,0,0,1-1-.31,1.6,1.6,0,0,0-.93-.28,1.57,1.57,0,0,0-.92.28,1.82,1.82,0,0,1-2,0,1.67,1.67,0,0,0-1.85,0,1.82,1.82,0,0,1-2,0,1.67,1.67,0,0,0-1.85,0,1.82,1.82,0,0,1-2,0,1.57,1.57,0,0,0-.92-.28,1.58,1.58,0,0,0-.93.28,1.82,1.82,0,0,1-2,0,1.57,1.57,0,0,0-.92-.28c-.08,0-.15-.12-.15-.26s.07-.26.15-.26a1.77,1.77,0,0,1,1,.31,1.58,1.58,0,0,0,.93.28,1.57,1.57,0,0,0,.92-.28,1.82,1.82,0,0,1,2,0,1.67,1.67,0,0,0,1.85,0,1.82,1.82,0,0,1,2,0,1.67,1.67,0,0,0,1.85,0,1.82,1.82,0,0,1,2,0,1.67,1.67,0,0,0,1.85,0,1.82,1.82,0,0,1,2,0,1.57,1.57,0,0,0,.92.28,1.6,1.6,0,0,0,.93-.28,1.77,1.77,0,0,1,1-.31c.08,0,.15.12.15.26s-.07.26-.15.26a1.57,1.57,0,0,0-.92.28,1.78,1.78,0,0,1-1,.31Z"/></g></g></svg>