<svg xmlns="http://www.w3.org/2000/svg" viewBox="0 0 21.45 16"><defs><style>.cls-1,.cls-2{fill:#28e29a;}.cls-2{stroke:#000;stroke-linecap:round;stroke-linejoin:round;stroke-width:0.5px;}</style></defs><g id="图层_2" data-name="图层 2"><g id="图层_1-2" data-name="图层 1"><path class="cls-1" d="M4.65,2.34A8,8,0,1,0,16,2.34,8,8,0,0,0,4.65,2.34ZM15.42,13.11a7.23,7.23,0,1,1,0-10.22A7.25,7.25,0,0,1,15.42,13.11Z"/><path class="cls-2" d="M1.3,7.07v2.6l-1,0,.08.47,0,.11,0,.13a2.83,2.83,0,0,0,1.9,2.18l.12,0,0,0,0,.06v.06c-.16.6.46,1.22,1.43,1.37h.08l12,0,.1-.28,0-.07a1.93,1.93,0,0,1,1.45-1.09l.31-.06.27,0,.51-.07h.09c.83-.12,2.64-.22,2.63-.7v-3h-3v0h0a.5.5,0,0,0,0-.74l-3-2.42.2-.46a2.23,2.23,0,0,0,0-.36V4.67a2.54,2.54,0,0,0-2.7-2.36,3,3,0,0,0-1.28.28l-.2.1,1.9,1.46,0,0a.09.09,0,0,1,0,.1l0,0-.74.88a.13.13,0,0,1-.13,0l0,0-2-1.38L10.24,4a2.16,2.16,0,0,0-.12.71,2.55,2.55,0,0,0,2.7,2.37S12.49,7,13,7s.59-.25.59-.25,2.93,1.73,3.28,1.92.05.09.05.1H9.2V7h-5V4.46H1.29v2.6Z"/><path d="M18.81,10.54a1.9,1.9,0,0,1-1-.3,1.72,1.72,0,0,0-1-.29,1.68,1.68,0,0,0-1,.29,2,2,0,0,1-2.12,0,1.68,1.68,0,0,0-1-.29,1.65,1.65,0,0,0-1,.29,1.94,1.94,0,0,1-1.06.3,1.91,1.91,0,0,1-1.06-.3,1.75,1.75,0,0,0-1.93,0,1.91,1.91,0,0,1-1.06.3,2,2,0,0,1-1.06-.3,1.65,1.65,0,0,0-1-.29,1.68,1.68,0,0,0-1,.29,1.91,1.91,0,0,1-1.06.3,1.91,1.91,0,0,1-1.06-.3,1.68,1.68,0,0,0-1-.29C.54,10,.47,9.84.47,9.7s.07-.26.15-.26a1.91,1.91,0,0,1,1.06.3,1.68,1.68,0,0,0,1,.29,1.65,1.65,0,0,0,1-.29,1.94,1.94,0,0,1,1.06-.3,1.91,1.91,0,0,1,1.06.3,1.75,1.75,0,0,0,1.93,0,2,2,0,0,1,2.11,0,1.72,1.72,0,0,0,1,.29,1.68,1.68,0,0,0,1-.29,2,2,0,0,1,2.12,0,1.68,1.68,0,0,0,1,.29,1.65,1.65,0,0,0,1-.29,1.94,1.94,0,0,1,1.06-.3,1.91,1.91,0,0,1,1.06.3,1.75,1.75,0,0,0,1.93,0,1.91,1.91,0,0,1,1.06-.3c.08,0,.15.11.15.26s-.07.25-.15.25a1.69,1.69,0,0,0-1,.29,1.91,1.91,0,0,1-1.06.3Z"/><path d="M18.9,12.75a1.77,1.77,0,0,1-1-.31,1.6,1.6,0,0,0-.93-.28,1.57,1.57,0,0,0-.92.28,1.82,1.82,0,0,1-2,0,1.67,1.67,0,0,0-1.85,0,1.82,1.82,0,0,1-2,0,1.67,1.67,0,0,0-1.85,0,1.82,1.82,0,0,1-2,0,1.57,1.57,0,0,0-.92-.28,1.58,1.58,0,0,0-.93.28,1.82,1.82,0,0,1-2,0,1.57,1.57,0,0,0-.92-.28c-.08,0-.15-.12-.15-.26s.07-.26.15-.26a1.7,1.7,0,0,1,1,.31,1.58,1.58,0,0,0,.93.28A1.57,1.57,0,0,0,4.31,12a1.71,1.71,0,0,1,1-.31,1.7,1.7,0,0,1,1,.31,1.67,1.67,0,0,0,1.85,0,1.82,1.82,0,0,1,2,0,1.67,1.67,0,0,0,1.85,0,1.82,1.82,0,0,1,2,0A1.67,1.67,0,0,0,16,12a1.82,1.82,0,0,1,2,0,1.57,1.57,0,0,0,.92.28,1.6,1.6,0,0,0,.93-.28,1.7,1.7,0,0,1,1-.31c.08,0,.15.12.15.26s-.07.26-.15.26a1.57,1.57,0,0,0-.92.28,1.78,1.78,0,0,1-1,.31Z"/></g></g></svg>