<svg xmlns="http://www.w3.org/2000/svg" viewBox="0 0 21.45 16"><defs><style>.cls-1,.cls-2{fill:#28e29a;}.cls-2{stroke:#000;stroke-linecap:round;stroke-linejoin:round;stroke-width:0.5px;}</style></defs><g id="图层_2" data-name="图层 2"><g id="图层_1-2" data-name="图层 1"><path class="cls-1" d="M4.81,2.34a8,8,0,1,0,11.32,0A8,8,0,0,0,4.81,2.34ZM15.58,13.11a7.23,7.23,0,1,1,0-10.22A7.25,7.25,0,0,1,15.58,13.11Z"/><path class="cls-2" d="M1.3,7.07v2.6l-1,0,.08.47,0,.11,0,.13a2.83,2.83,0,0,0,1.9,2.18l.12,0,0,0,0,.06v.06c-.16.6.46,1.22,1.43,1.37h.08l12,0,.1-.28,0-.07a1.93,1.93,0,0,1,1.45-1.09l.31-.06.27,0,.51-.07h.09c.83-.12,2.64-.22,2.63-.7v-3h-3v0h0a.5.5,0,0,0,0-.74l-3-2.42.2-.46a2.23,2.23,0,0,0,0-.36V4.67a2.54,2.54,0,0,0-2.7-2.36,3,3,0,0,0-1.28.28l-.2.1,1.9,1.46,0,0a.09.09,0,0,1,0,.1l0,0-.74.88a.13.13,0,0,1-.13,0l0,0-2-1.38L10.24,4a2.16,2.16,0,0,0-.12.71,2.55,2.55,0,0,0,2.7,2.37S12.49,7,13,7s.59-.25.59-.25,2.93,1.73,3.28,1.92.05.09.05.1H9.2V7h-5V4.46H1.29v2.6Z"/></g></g></svg>