<svg xmlns="http://www.w3.org/2000/svg" viewBox="0 0 21.5 12.37"><defs><style>.cls-1{fill:#ff7300;stroke:#000;stroke-miterlimit:10;stroke-width:0.5px;}</style></defs><g id="图层_2" data-name="图层 2"><g id="图层_1-2" data-name="图层 1"><path class="cls-1" d="M1.34,5v2.6l-1.06,0,.08.47,0,.12,0,.12a2.79,2.79,0,0,0,1.89,2.18l.13,0,0,0,0,.06,0,.06c-.16.61.46,1.23,1.44,1.37h.07l12,0,.1-.29,0-.07a1.94,1.94,0,0,1,1.44-1.09l.32-.06.27,0,.5-.06.1,0c.83-.11,2.63-.22,2.63-.7v-3H18.3a.48.48,0,0,0,0-.73l-3-2.42.2-.47a1.34,1.34,0,0,0,.05-.35V2.61A2.56,2.56,0,0,0,12.85.25a3.06,3.06,0,0,0-1.27.28l-.2.1,1.89,1.46,0,0a.08.08,0,0,1,0,.09l0,0-.74.88s-.1,0-.12,0l0,0-2-1.38-.07.17a2.18,2.18,0,0,0-.12.72A2.54,2.54,0,0,0,12.86,5c.05,0-.32,0,.15,0s.59-.26.59-.26l3.28,1.93c.35.2.05.09.06.09H9.24V4.94h-5V2.41H1.33V5Z"/></g></g></svg>