<svg xmlns="http://www.w3.org/2000/svg" viewBox="0 0 21.5 16"><defs><style>.cls-1,.cls-2{fill:#ff7300;}.cls-2{stroke:#000;stroke-miterlimit:10;stroke-width:0.5px;}</style></defs><g id="图层_2" data-name="图层 2"><g id="图层_1-2" data-name="图层 1"><path class="cls-1" d="M4.86,2.34a8,8,0,1,0,11.31,0A8,8,0,0,0,4.86,2.34ZM15.62,13.11a7.22,7.22,0,1,1,0-10.22A7.24,7.24,0,0,1,15.62,13.11Z"/><path class="cls-2" d="M1.34,7v2.6l-1.06,0,.08.47,0,.12,0,.12A2.77,2.77,0,0,0,2.31,12.5l.13,0,0,.05,0,.06,0,.07c-.16.6.46,1.22,1.44,1.36h.07l12,0,.1-.28,0-.08a1.94,1.94,0,0,1,1.44-1.09l.32-.06.27,0,.5-.06.1,0c.83-.11,2.63-.22,2.63-.7v-3H18.3a.49.49,0,0,0,0-.74l-3-2.42.2-.46a1.49,1.49,0,0,0,.05-.36V4.59a2.56,2.56,0,0,0-2.71-2.37,2.92,2.92,0,0,0-1.27.29l-.2.1,1.89,1.45,0,0a.09.09,0,0,1,0,.1l0,0-.74.88a.1.1,0,0,1-.12,0l0,0-2-1.38-.07.18a2.16,2.16,0,0,0-.12.71A2.54,2.54,0,0,0,12.86,7c.05,0-.32,0,.15,0s.59-.26.59-.26l3.28,1.93c.35.2.05.09.06.09H9.24V6.91h-5V4.38H1.33V7Z"/></g></g></svg>