<svg xmlns="http://www.w3.org/2000/svg" viewBox="0 0 22.04 12.86"><defs><style>.cls-1{fill:#ff2f25;}</style></defs><g id="图层_2" data-name="图层 2"><g id="图层_1-2" data-name="图层 1"><path class="cls-1" d="M4.08,12.61a2.14,2.14,0,0,1-1.5-.82A1,1,0,0,1,2.41,11,3.12,3.12,0,0,1,.46,8.65l0-.24L.29,7.65l1.1,0V2.41H4.75V5h5V6.75H16.4L14,5.3a.9.9,0,0,1-.55.19h-.24a2.81,2.81,0,0,1-3-2.61,2.45,2.45,0,0,1,.14-.8l.19-.48,2.19,1.5.57-.67L11.2.84l.56-.28A3.31,3.31,0,0,1,13.14.25a2.81,2.81,0,0,1,3,2.61V3A2.7,2.7,0,0,1,16,3.4l-.14.33L18.71,6a.79.79,0,0,1,.27.69h2.81V10c0,.58-.93.73-2.35.89l-1.1.14-.26,0a2.84,2.84,0,0,0-.31.06,1.66,1.66,0,0,0-1.26.94l-.18.51-12.16,0Z"/><path d="M13.15.5a2.54,2.54,0,0,1,2.7,2.36V3c0,.12,0,.24,0,.35l-.21.47,3,2.42a.49.49,0,0,1,0,.73h2.95v3c0,.48-1.8.59-2.63.7l-.1,0-.5.06-.27,0-.32.06A1.94,1.94,0,0,0,16.28,12l0,.07-.1.29-12,0H4.1c-1-.14-1.59-.76-1.44-1.37l0-.06,0-.06,0,0-.13,0A2.8,2.8,0,0,1,.71,8.6l0-.12,0-.12L.59,7.89l1,0V2.66H4.5V5.2h5V7h7.69l.11,0s0,0-.17-.12L13.89,5s-.1.26-.53.26h-.21a2.56,2.56,0,0,1-2.7-2.36,2,2,0,0,1,.13-.72L10.65,2l2,1.38,0,0h0a.16.16,0,0,0,.09,0l.74-.88,0,0s0-.06,0-.09l0,0L11.67.88l.2-.1A3.07,3.07,0,0,1,13.15.5h0m0-.5h0a3.56,3.56,0,0,0-1.48.33l-.21.1-.73.36.64.49,1.56,1.2-.24.29-1.75-1.2-.52-.35-.23.58L10.11,2a2.59,2.59,0,0,0-.16.9,3.06,3.06,0,0,0,3.2,2.86h.48v0A1,1,0,0,0,14,5.6l1.53.9H10V4.69H5V2.15H1.13V7.37l-.57,0L0,7.41.09,8l.08.47,0,.12,0,.14a3.34,3.34,0,0,0,1.92,2.44,1.37,1.37,0,0,0,.23.79A2.35,2.35,0,0,0,4,12.85h.11l12,0h.35l.12-.33.1-.29,0-.06a1.45,1.45,0,0,1,1.09-.78l.29-.05.26,0,.5-.07H19l.48-.06C20.79,11,22,10.86,22,10V6.48H19.23a1.09,1.09,0,0,0-.31-.6l0,0,0,0L16.2,3.66l.05-.12,0,0v0A2.34,2.34,0,0,0,16.35,3V2.88A3.05,3.05,0,0,0,13.15,0Z"/></g></g></svg>