<svg xmlns="http://www.w3.org/2000/svg" viewBox="0 0 16 16"><defs><style>.cls-1{stroke:#fff;stroke-linecap:round;stroke-linejoin:round;stroke-width:0.5px;}.cls-1,.cls-2{fill-rule:evenodd;}.cls-2{fill:#fff;}.cls-3{fill:#f8fdff;}</style></defs><g id="图层_2" data-name="图层 2"><g id="图层_1-2" data-name="图层 1"><polygon class="cls-1" points="10.6 10.94 10.6 10.94 10.17 9.56 10.17 9.56 10.06 9.22 9.31 6.79 8 2.61 6.69 6.79 5.94 9.22 5.83 9.56 5.83 9.56 5.4 10.94 5.4 10.94 4.88 12.61 8 12.61 11.13 12.61 10.6 10.94"/><polygon class="cls-2" points="8.57 7.04 8.95 8.25 7.05 8.25 7.43 7.04 8.57 7.04"/><polygon class="cls-2" points="6.67 9.78 9.34 9.78 9.71 10.99 6.29 10.99 6.67 9.78"/><path class="cls-3" d="M2.34,2.34a8,8,0,1,0,11.32,0A8,8,0,0,0,2.34,2.34ZM13.11,13.11a7.23,7.23,0,1,1,0-10.22A7.25,7.25,0,0,1,13.11,13.11Z"/></g></g></svg>