<svg xmlns="http://www.w3.org/2000/svg" viewBox="0 0 11.15 11.15"><defs><style>.cls-1{fill:#fff;}</style></defs><g id="图层_2" data-name="图层 2"><g id="图层_1-2" data-name="图层 1"><circle cx="5.58" cy="5.58" r="5.33"/><path class="cls-1" d="M5.58.5A5.08,5.08,0,1,1,.5,5.58,5.08,5.08,0,0,1,5.58.5m0-.5a5.58,5.58,0,1,0,5.57,5.58A5.58,5.58,0,0,0,5.58,0Z"/><path d="M5.58,10.31a4.73,4.73,0,1,1,4.73-4.73A4.74,4.74,0,0,1,5.58,10.31Z"/><path class="cls-1" d="M5.58,1.1A4.48,4.48,0,1,1,1.1,5.58,4.49,4.49,0,0,1,5.58,1.1m0-.5a5,5,0,1,0,5,5,5,5,0,0,0-5-5Z"/></g></g></svg>