<svg xmlns="http://www.w3.org/2000/svg" viewBox="0 0 22.18 16"><defs><style>.cls-1,.cls-2{fill:#46ccff;}.cls-2{fill-rule:evenodd;}.cls-3{fill:none;stroke:#000;stroke-linecap:round;stroke-linejoin:round;stroke-width:0.5px;}</style></defs><g id="图层_2" data-name="图层 2"><g id="图层_1-2" data-name="图层 1"><path class="cls-1" d="M5.18,2.34a8,8,0,1,0,11.32,0A8,8,0,0,0,5.18,2.34ZM16,13.11A7.23,7.23,0,1,1,16,2.89,7.25,7.25,0,0,1,16,13.11Z"/><path class="cls-2" d="M20.68,7.33H18.27l0-.55h0l-.1-3.89H16.31l.07,2.57H15L15,2.89H13.18l.06,2.57h-.38C11.61,5.46,11.6,4.21,11.6,4a1.37,1.37,0,0,0-1.25-1.09H9.82V1A.67.67,0,0,0,9.25.3H7.13A.67.67,0,0,0,6.56,1V2.89H4.66c-.28,0-1.25.33-1.25,1.09V7.33H1.5c-.27,0-1.24.16-1.25,1.09L2.2,12c.3.92,2.23,1.09,2.5,1.09H15.94A2.78,2.78,0,0,0,18.44,12l3.49-3.58A1.11,1.11,0,0,0,20.68,7.33Z"/><path class="cls-3" d="M20.68,7.33H18.27l0-.55h0l-.1-3.89H16.31l.07,2.57H15L15,2.89H13.18l.06,2.57h-.38C11.61,5.46,11.6,4.21,11.6,4a1.37,1.37,0,0,0-1.25-1.09H9.82V1A.67.67,0,0,0,9.25.3H7.13A.67.67,0,0,0,6.56,1V2.89H4.66c-.28,0-1.25.33-1.25,1.09V7.33H1.5c-.27,0-1.24.16-1.25,1.09L2.2,12c.3.92,2.23,1.09,2.5,1.09H15.94A2.78,2.78,0,0,0,18.44,12l3.49-3.58A1.11,1.11,0,0,0,20.68,7.33Z"/></g></g></svg>