<svg xmlns="http://www.w3.org/2000/svg" viewBox="0 0 22.18 13.29"><defs><style>.cls-1{fill:#28e29a;fill-rule:evenodd;}.cls-2{fill:none;stroke:#000;stroke-linecap:round;stroke-linejoin:round;stroke-width:0.5px;}</style></defs><g id="图层_2" data-name="图层 2"><g id="图层_1-2" data-name="图层 1"><path class="cls-1" d="M20.69,7.28H18.27l0-.55h0l-.1-3.89H16.31l.07,2.57H15L15,2.84H13.18l.06,2.57h-.38c-1.25,0-1.26-1.25-1.26-1.48a1.37,1.37,0,0,0-1.25-1.09H9.82V1A.67.67,0,0,0,9.25.25H7.13A.67.67,0,0,0,6.56,1V2.84H4.66c-.28,0-1.25.34-1.25,1.09V7.28H1.5c-.27,0-1.24.17-1.25,1.09L2.2,12C2.5,12.88,4.43,13,4.7,13H15.94A2.76,2.76,0,0,0,18.44,12l3.49-3.58A1.11,1.11,0,0,0,20.69,7.28Z"/><path class="cls-2" d="M20.69,7.28H18.27l0-.55h0l-.1-3.89H16.31l.07,2.57H15L15,2.84H13.18l.06,2.57h-.38c-1.25,0-1.26-1.25-1.26-1.48a1.37,1.37,0,0,0-1.25-1.09H9.82V1A.67.67,0,0,0,9.25.25H7.13A.67.67,0,0,0,6.56,1V2.84H4.66c-.28,0-1.25.34-1.25,1.09V7.28H1.5c-.27,0-1.24.17-1.25,1.09L2.2,12C2.5,12.88,4.43,13,4.7,13H15.94A2.76,2.76,0,0,0,18.44,12l3.49-3.58A1.11,1.11,0,0,0,20.69,7.28Z"/></g></g></svg>