<svg xmlns="http://www.w3.org/2000/svg" viewBox="0 0 22.18 13.29"><defs><style>.cls-1{fill:#28e29a;fill-rule:evenodd;}.cls-2{fill:none;stroke:#000;stroke-linecap:round;stroke-linejoin:round;stroke-width:0.5px;}</style></defs><g id="图层_2" data-name="图层 2"><g id="图层_1-2" data-name="图层 1"><path class="cls-1" d="M20.68,7.28H18.27l0-.55h0l-.1-3.89H16.31l.07,2.57H15L15,2.84H13.18l.06,2.57h-.38c-1.25,0-1.26-1.25-1.26-1.48a1.37,1.37,0,0,0-1.25-1.09H9.82V1A.67.67,0,0,0,9.25.25H7.13A.67.67,0,0,0,6.56,1V2.84H4.66c-.28,0-1.25.34-1.25,1.09V7.28H1.5c-.27,0-1.24.17-1.25,1.09L2.2,12C2.5,12.88,4.43,13,4.7,13H15.94A2.76,2.76,0,0,0,18.44,12l3.49-3.58A1.11,1.11,0,0,0,20.68,7.28Z"/><path class="cls-2" d="M20.68,7.28H18.27l0-.55h0l-.1-3.89H16.31l.07,2.57H15L15,2.84H13.18l.06,2.57h-.38c-1.25,0-1.26-1.25-1.26-1.48a1.37,1.37,0,0,0-1.25-1.09H9.82V1A.67.67,0,0,0,9.25.25H7.13A.67.67,0,0,0,6.56,1V2.84H4.66c-.28,0-1.25.34-1.25,1.09V7.28H1.5c-.27,0-1.24.17-1.25,1.09L2.2,12C2.5,12.88,4.43,13,4.7,13H15.94A2.76,2.76,0,0,0,18.44,12l3.49-3.58A1.11,1.11,0,0,0,20.68,7.28Z"/><path d="M19.45,9.49a2.1,2.1,0,0,1-1.11-.31,1.94,1.94,0,0,0-2,0,2.1,2.1,0,0,1-1.11.31,2.07,2.07,0,0,1-1.11-.31,1.82,1.82,0,0,0-1-.28,1.84,1.84,0,0,0-1,.28,2.12,2.12,0,0,1-2.21,0,1.84,1.84,0,0,0-1-.28,1.82,1.82,0,0,0-1,.28,2.07,2.07,0,0,1-1.11.31,2.1,2.1,0,0,1-1.11-.31,1.82,1.82,0,0,0-1-.28,1.81,1.81,0,0,0-1,.28,2.1,2.1,0,0,1-1.11.31,2.07,2.07,0,0,1-1.11-.31,1.84,1.84,0,0,0-1-.28c-.09,0-.16-.12-.16-.26s.07-.26.16-.26a2.07,2.07,0,0,1,1.11.31,1.82,1.82,0,0,0,1,.28,1.84,1.84,0,0,0,1-.28,2,2,0,0,1,1.1-.31,2,2,0,0,1,1.11.31,1.84,1.84,0,0,0,1,.28,1.82,1.82,0,0,0,1-.28,2.07,2.07,0,0,1,1.11-.31A2.1,2.1,0,0,1,10,8.69a1.94,1.94,0,0,0,2,0,2.1,2.1,0,0,1,1.11-.31,2.07,2.07,0,0,1,1.11.31,1.82,1.82,0,0,0,1,.28,1.84,1.84,0,0,0,1-.28,2.12,2.12,0,0,1,2.21,0,1.84,1.84,0,0,0,1,.28,1.82,1.82,0,0,0,1-.28,2.07,2.07,0,0,1,1.11-.31c.09,0,.16.12.16.26s-.07.26-.16.26a1.84,1.84,0,0,0-1,.28,2.07,2.07,0,0,1-1.11.31Z"/><path d="M17.54,11.94a1.51,1.51,0,0,1-.92-.31,1.32,1.32,0,0,0-.83-.28,1.3,1.3,0,0,0-.83.28,1.52,1.52,0,0,1-1.84,0,1.37,1.37,0,0,0-1.66,0,1.52,1.52,0,0,1-1.84,0,1.37,1.37,0,0,0-1.66,0,1.51,1.51,0,0,1-.92.31,1.48,1.48,0,0,1-.91-.31,1.35,1.35,0,0,0-.84-.28,1.32,1.32,0,0,0-.83.28,1.51,1.51,0,0,1-.92.31,1.48,1.48,0,0,1-.91-.31,1.35,1.35,0,0,0-.84-.28c-.07,0-.13-.12-.13-.26s.06-.26.13-.26a1.51,1.51,0,0,1,.92.31,1.32,1.32,0,0,0,.83.28,1.35,1.35,0,0,0,.84-.28,1.48,1.48,0,0,1,.91-.31,1.51,1.51,0,0,1,.92.31,1.32,1.32,0,0,0,.83.28,1.3,1.3,0,0,0,.83-.28,1.54,1.54,0,0,1,.92-.31,1.51,1.51,0,0,1,.92.31,1.37,1.37,0,0,0,1.66,0,1.52,1.52,0,0,1,1.84,0,1.37,1.37,0,0,0,1.66,0,1.51,1.51,0,0,1,.92-.31,1.48,1.48,0,0,1,.91.31,1.35,1.35,0,0,0,.84.28,1.32,1.32,0,0,0,.83-.28,1.51,1.51,0,0,1,.92-.31c.07,0,.13.12.13.26s-.06.26-.13.26a1.35,1.35,0,0,0-.84.28,1.32,1.32,0,0,1-.91.31Z"/></g></g></svg>