<svg xmlns="http://www.w3.org/2000/svg" viewBox="0 0 22.18 16"><defs><style>.cls-1,.cls-2{fill:#ff00ea;}.cls-2{fill-rule:evenodd;}.cls-3{fill:none;stroke:#000;stroke-linecap:round;stroke-linejoin:round;stroke-width:0.5px;}</style></defs><g id="图层_2" data-name="图层 2"><g id="图层_1-2" data-name="图层 1"><path class="cls-1" d="M5.18,2.34a8,8,0,1,0,11.32,0A8,8,0,0,0,5.18,2.34ZM16,13.11A7.23,7.23,0,1,1,16,2.89,7.25,7.25,0,0,1,16,13.11Z"/><path class="cls-2" d="M20.68,7.45H18.27l0-.55h0L18.17,3H16.31l.07,2.58H15L15,3H13.18l.06,2.58h-.38c-1.25,0-1.26-1.26-1.26-1.48,0,0-.24-1.1-1.25-1.1H9.82V1.16A.67.67,0,0,0,9.25.42H7.13a.67.67,0,0,0-.57.74V3H4.66c-.28,0-1.25.34-1.25,1.1V7.45H1.5c-.27,0-1.24.17-1.25,1.1l2,3.57c.3.93,2.23,1.1,2.5,1.1H15.94a2.75,2.75,0,0,0,2.5-1.1l3.49-3.57A1.12,1.12,0,0,0,20.68,7.45Z"/><path class="cls-3" d="M20.68,7.45H18.27l0-.55h0L18.17,3H16.31l.07,2.58H15L15,3H13.18l.06,2.58h-.38c-1.25,0-1.26-1.26-1.26-1.48,0,0-.24-1.1-1.25-1.1H9.82V1.16A.67.67,0,0,0,9.25.42H7.13a.67.67,0,0,0-.57.74V3H4.66c-.28,0-1.25.34-1.25,1.1V7.45H1.5c-.27,0-1.24.17-1.25,1.1l2,3.57c.3.93,2.23,1.1,2.5,1.1H15.94a2.75,2.75,0,0,0,2.5-1.1l3.49-3.57A1.12,1.12,0,0,0,20.68,7.45Z"/></g></g></svg>