<svg xmlns="http://www.w3.org/2000/svg" viewBox="0 0 22.18 16"><defs><style>.cls-1,.cls-2{fill:#f4fb34;}.cls-2{fill-rule:evenodd;}.cls-3{fill:none;stroke:#000;stroke-linecap:round;stroke-linejoin:round;stroke-width:0.5px;}</style></defs><g id="图层_2" data-name="图层 2"><g id="图层_1-2" data-name="图层 1"><path class="cls-1" d="M4.93,2.34a8,8,0,1,0,11.32,0A8,8,0,0,0,4.93,2.34ZM15.7,13.11a7.23,7.23,0,1,1,0-10.22A7.25,7.25,0,0,1,15.7,13.11Z"/><path class="cls-2" d="M20.69,7.38H18.27l0-.55h0l-.1-3.89H16.31l.07,2.57H15L15,2.94H13.18l.06,2.57h-.38C11.61,5.51,11.6,4.26,11.6,4a1.37,1.37,0,0,0-1.25-1.09H9.82V1.08A.67.67,0,0,0,9.25.35H7.13a.67.67,0,0,0-.57.73V2.94H4.66c-.28,0-1.25.34-1.25,1.09V7.38H1.5c-.27,0-1.24.17-1.25,1.09l2,3.58c.3.93,2.23,1.09,2.5,1.09H15.94a2.73,2.73,0,0,0,2.5-1.09l3.49-3.58A1.11,1.11,0,0,0,20.69,7.38Z"/><path class="cls-3" d="M20.69,7.38H18.27l0-.55h0l-.1-3.89H16.31l.07,2.57H15L15,2.94H13.18l.06,2.57h-.38C11.61,5.51,11.6,4.26,11.6,4a1.37,1.37,0,0,0-1.25-1.09H9.82V1.08A.67.67,0,0,0,9.25.35H7.13a.67.67,0,0,0-.57.73V2.94H4.66c-.28,0-1.25.34-1.25,1.09V7.38H1.5c-.27,0-1.24.17-1.25,1.09l2,3.58c.3.93,2.23,1.09,2.5,1.09H15.94a2.73,2.73,0,0,0,2.5-1.09l3.49-3.58A1.11,1.11,0,0,0,20.69,7.38Z"/></g></g></svg>