<svg xmlns="http://www.w3.org/2000/svg" viewBox="0 0 23.12 30.99"><defs><style>.cls-1{fill:#f431f4;}.cls-2{fill:#113e6b;}.cls-3{fill:#fff;}</style></defs><g id="图层_2" data-name="图层 2"><g id="图层_1-2" data-name="图层 1"><path class="cls-1" d="M18.77,20.6l-.27.21-.12.09c-6.14,4.34-6.76,8.4-6.82,9.74v0c-.36-5.46-4.77-8.21-6.36-9.39a11.56,11.56,0,1,1,16-3.28A11.69,11.69,0,0,1,18.77,20.6ZM11.56,31v0Z"/><circle class="cls-2" cx="11.56" cy="11.58" r="8.84"/><path class="cls-3" d="M4.79,14.32,7.05,8.86H8.38l2.26,5.46H9.28l-.53-1.26H6.68l-.53,1.26Zm2.93-4.14-.78,1.91H8.49Z"/><path class="cls-3" d="M11.23,14.32V8.86h1.16v5.46Z"/><path class="cls-3" d="M13.47,14.32v-1H16a1.75,1.75,0,0,0,.8-.12.54.54,0,0,0,.28-.51.61.61,0,0,0-.33-.58A1.32,1.32,0,0,0,16.1,12h-1a2.09,2.09,0,0,1-1.34-.34,1.41,1.41,0,0,1-.39-.53,1.57,1.57,0,0,1-.15-.68,1.78,1.78,0,0,1,.34-1.05,1.39,1.39,0,0,1,1-.54,6.41,6.41,0,0,1,.73,0H18v1H15.59a3.56,3.56,0,0,0-.73.05c-.25.06-.37.24-.37.55a.52.52,0,0,0,.31.53,1.9,1.9,0,0,0,.69.09h.88a3.07,3.07,0,0,1,1,.12,1.28,1.28,0,0,1,.81.69,2.14,2.14,0,0,1,.17.84,1.76,1.76,0,0,1-.23.89,1.3,1.3,0,0,1-1,.67,7,7,0,0,1-.94.05Z"/></g></g></svg>