<svg xmlns="http://www.w3.org/2000/svg" viewBox="0 0 23.12 30.99"><defs><style>.cls-1{fill:#00ffe6;}.cls-2{fill:#113e6b;}.cls-3{fill:#fff;}</style></defs><g id="图层_2" data-name="图层 2"><g id="图层_1-2" data-name="图层 1"><path class="cls-1" d="M18.77,20.6l-.27.21-.12.09c-6.14,4.34-6.76,8.4-6.82,9.74v0c-.36-5.46-4.77-8.21-6.36-9.39a11.56,11.56,0,1,1,16-3.28A11.69,11.69,0,0,1,18.77,20.6ZM11.56,31v0Z"/><circle class="cls-2" cx="11.56" cy="11.58" r="8.84"/><path class="cls-3" d="M11.68,11.45a.82.82,0,0,0,1-.34.86.86,0,0,0-.11-1,.82.82,0,0,0-1-.12.85.85,0,0,0-.33,1l-1,1L6.92,8.57A5.21,5.21,0,0,0,6.24,15l-.35.35a1,1,0,0,0,0,1.38l.14.14a.93.93,0,0,0,.67.28,1,1,0,0,0,.68-.28l.34-.36A4.94,4.94,0,0,0,14,15.8L10.7,12.44Z"/><path class="cls-3" d="M11.25,5.28v1a5,5,0,0,1,4.91,5h1A6,6,0,0,0,11.25,5.28Z"/><path class="cls-3" d="M11.25,7.39v.9a3,3,0,0,1,2.95,3h.88A3.88,3.88,0,0,0,11.25,7.39Z"/></g></g></svg>