<svg xmlns="http://www.w3.org/2000/svg" viewBox="0 0 23.12 30.99"><defs><style>.cls-1{fill:#ff4a4a;}.cls-2{fill:#113e6b;}.cls-3{fill:#fff;}</style></defs><g id="图层_2" data-name="图层 2"><g id="图层_1-2" data-name="图层 1"><path class="cls-1" d="M18.77,20.6l-.27.21-.12.09c-6.14,4.34-6.76,8.4-6.82,9.74v0c-.36-5.46-4.77-8.21-6.36-9.39a11.56,11.56,0,1,1,16-3.28A11.69,11.69,0,0,1,18.77,20.6ZM11.56,31v0Z"/><circle class="cls-2" cx="11.56" cy="11.58" r="8.84"/><path class="cls-3" d="M13.12,9.3h.4a.59.59,0,0,0,.6-.6V6.9a.59.59,0,0,0-.6-.6h-.4a.59.59,0,0,0-.6.6V8.7A.59.59,0,0,0,13.12,9.3Zm-.2-2.4a.19.19,0,0,1,.2-.2h.4a.19.19,0,0,1,.2.2V8.7a.19.19,0,0,1-.2.2h-.4a.19.19,0,0,1-.2-.2Z"/><path class="cls-3" d="M11.12,9.3h.6a.41.41,0,0,0,.4-.42v-1a.4.4,0,0,0-.4-.38h-.36a1,1,0,0,0-.24,0V6.7l.6,0V7.1h.4V6.68a.4.4,0,0,0-.4-.38h-.6a.38.38,0,0,0-.4.38v2.2A.41.41,0,0,0,11.12,9.3Zm0-1.32a.35.35,0,0,1,.24-.08l.36,0v1l-.6,0Z"/><path class="cls-3" d="M17.52,9.24c0-.66-.84-1.22-2.36-1.6l-.24-.06v2.93a15.53,15.53,0,0,1-3.4.35,15.53,15.53,0,0,1-3.4-.35V7.58l-.24.06c-1.52.36-2.36.94-2.36,1.6v0h0v5.2c0,1.3,3.1,2,6,2s6-.7,6-2V9.26h0Zm-2.2-1.16c1.12.32,1.8.72,1.8,1.14s-.68.86-1.8,1.16Zm-7.6,0V10.4c-1.12-.32-1.8-.74-1.8-1.16S6.6,8.38,7.72,8.08Zm4.08,7.5A14.89,14.89,0,0,1,8,15.14V15l2.61-2.6L12.37,14l.43-.85,2.12,2.12A16.29,16.29,0,0,1,11.8,15.58Zm3-2.25a.6.6,0,1,1,.6-.6A.6.6,0,0,1,14.82,13.33Z"/><path class="cls-3" d="M15,6.72a.56.56,0,1,0-.55-.56A.56.56,0,0,0,15,6.72Zm0-.83a.28.28,0,1,1-.27.27A.27.27,0,0,1,15,5.89Z"/><path class="cls-3" d="M9.27,9.3h.6a.41.41,0,0,0,.4-.42V6.68a.4.4,0,0,0-.4-.38h-.6a.38.38,0,0,0-.4.38V6.9h.4V6.7l.6,0V7.5H9.32v.4h.55v1l-.6,0V8.7h-.4v.18A.41.41,0,0,0,9.27,9.3Z"/></g></g></svg>