<svg xmlns="http://www.w3.org/2000/svg" viewBox="0 0 23.12 30.64"><defs><style>.cls-1{fill:#d0d82b;}.cls-2{fill:#113e6b;}.cls-3{fill:#fff;}</style></defs><g id="图层_2" data-name="图层 2"><g id="图层_1-2" data-name="图层 1"><path class="cls-1" d="M18.77,20.37l-.27.21-.12.09C12.24,25,11.62,29,11.56,30.3v0C11.2,24.86,6.79,22.14,5.2,21A11.36,11.36,0,0,1,1.91,5.14a11.64,11.64,0,0,1,16-3.25,11.35,11.35,0,0,1,3.28,15.84A11.55,11.55,0,0,1,18.77,20.37ZM11.56,30.64v0Z"/><ellipse class="cls-2" cx="11.56" cy="11.45" rx="8.84" ry="8.74"/><path class="cls-3" d="M14.55,9.2a.38.38,0,0,0,.28-.11L16.44,7.6a.35.35,0,0,0,0-.53.42.42,0,0,0-.57,0l-1.61,1.5a.36.36,0,0,0,0,.52A.41.41,0,0,0,14.55,9.2Z"/><path class="cls-3" d="M12.7,5.5a.41.41,0,0,0-.43.06L8.36,8.83H7.05a1.5,1.5,0,0,0-1.61,1.49v2.25a1.52,1.52,0,0,0,1.61,1.49H8.36l3.91,3.27a.43.43,0,0,0,.27.1.32.32,0,0,0,.16,0,.36.36,0,0,0,.24-.34V5.84A.38.38,0,0,0,12.7,5.5Z"/><path class="cls-3" d="M14.83,13.8a.42.42,0,0,0-.57,0,.37.37,0,0,0,0,.53l1.61,1.49a.44.44,0,0,0,.29.11h0a.41.41,0,0,0,.28-.11.35.35,0,0,0,0-.53Z"/><path class="cls-3" d="M17,11.07H14.55a.38.38,0,1,0,0,.75H17a.38.38,0,1,0,0-.75Z"/></g></g></svg>