<svg xmlns="http://www.w3.org/2000/svg" viewBox="0 0 23.12 30.99"><defs><style>.cls-1{fill:#ff6e0b;}.cls-2{fill:#113e6b;}.cls-3{fill:#fff;}</style></defs><g id="图层_2" data-name="图层 2"><g id="图层_1-2" data-name="图层 1"><path class="cls-1" d="M18.77,20.6l-.27.21-.12.09c-6.14,4.34-6.76,8.4-6.82,9.74v0c-.36-5.46-4.77-8.21-6.36-9.39a11.56,11.56,0,1,1,16-3.28A11.69,11.69,0,0,1,18.77,20.6ZM11.56,31v0Z"/><circle class="cls-2" cx="11.56" cy="11.58" r="8.84"/><path class="cls-3" d="M17.15,6.86H6a.46.46,0,0,0-.47.47v8.5a.47.47,0,0,0,.47.46h.8a.47.47,0,0,0,.47-.46v-.75H9.12v.75a.47.47,0,0,0,.46.46h4a.46.46,0,0,0,.46-.46v-.75h1.87v.75a.47.47,0,0,0,.47.46h.8a.46.46,0,0,0,.46-.46V7.33A.45.45,0,0,0,17.15,6.86Zm-6.07,6.53H7.14A.35.35,0,0,1,6.8,13a3,3,0,0,1,.58-1.44,3.2,3.2,0,0,1,.25-.27,2.17,2.17,0,0,1,.69-.47A1.54,1.54,0,0,1,7.55,9.5,1.55,1.55,0,0,1,9.11,8a1.84,1.84,0,0,1,.33,0,1.56,1.56,0,0,1,1.2,1.28,1.54,1.54,0,0,1-.74,1.57,2.17,2.17,0,0,1,.69.47,3.2,3.2,0,0,1,.25.27A3,3,0,0,1,11.42,13,.35.35,0,0,1,11.08,13.39Zm4.55-1.21H12.76a.28.28,0,0,1-.28-.28.27.27,0,0,1,.28-.28h2.87a.28.28,0,0,1,.29.28A.29.29,0,0,1,15.63,12.18Zm0-1.23H12.76a.28.28,0,0,1-.28-.28.27.27,0,0,1,.28-.28h2.87a.28.28,0,0,1,.29.28A.29.29,0,0,1,15.63,11Zm0-1.23H12.76a.28.28,0,0,1-.28-.28.27.27,0,0,1,.28-.28h2.87a.28.28,0,0,1,.29.28A.29.29,0,0,1,15.63,9.72Z"/></g></g></svg>