<svg xmlns="http://www.w3.org/2000/svg" viewBox="0 0 23.12 30.99"><defs><style>.cls-1{fill:#1baf22;}.cls-2{fill:#113e6b;}.cls-3{fill:#fff;}</style></defs><g id="图层_2" data-name="图层 2"><g id="图层_1-2" data-name="图层 1"><path class="cls-1" d="M18.77,20.6l-.27.21-.12.09c-6.14,4.34-6.76,8.4-6.82,9.74v0c-.36-5.46-4.77-8.21-6.36-9.39a11.56,11.56,0,1,1,16-3.28A11.69,11.69,0,0,1,18.77,20.6ZM11.56,31v0Z"/><circle class="cls-2" cx="11.56" cy="11.58" r="8.84"/><path class="cls-3" d="M15.78,7.8l2.31-.09c.07,0,.13-.12.12-.26s-.07-.25-.14-.25l-2.31.09c-.07,0-.13.12-.12.26S15.71,7.8,15.78,7.8Z"/><path class="cls-3" d="M18.07,9.1l-2.31.09c-.07,0-.13.11-.12.26s.07.25.14.25l2.31-.09c.07,0,.13-.12.12-.26S18.14,9.1,18.07,9.1Z"/><path class="cls-3" d="M18.07,11l-2.31.08c-.07,0-.13.12-.12.26s.07.26.14.25l2.31-.08c.07,0,.13-.12.12-.26S18.14,11,18.07,11Z"/><path class="cls-3" d="M18.07,12.9,15.76,13c-.07,0-.13.12-.12.26s.07.25.14.25l2.31-.09c.07,0,.13-.11.12-.25S18.14,12.89,18.07,12.9Z"/><path class="cls-3" d="M10.91,7.48l-5,.16a.74.74,0,0,0-.75.74l.13,4.67a.91.91,0,0,0,1,.84l1.79-.16a.16.16,0,0,0,.15-.17c0-.21-.06-.61-.09-1.05-.06-.88,0-1.68,1-1.72,0,0,.94-.11,1,1.1l.19,1.7a.16.16,0,0,0,.17.14l.65,0a.16.16,0,0,0,.16-.15l-.27-5.91A.16.16,0,0,0,10.91,7.48Z"/><path class="cls-3" d="M13.37,6.06,12,7.41l.34,6.23,1.24,1A1.19,1.19,0,0,0,14.82,14l-.25-7S14.52,6,13.37,6.06Z"/><path class="cls-3" d="M9.09,11.06a.73.73,0,0,0-.7.76l.41,5.11a.74.74,0,0,0,.81.65.73.73,0,0,0,.7-.76l-.41-5.1A.74.74,0,0,0,9.09,11.06Z"/></g></g></svg>