<svg xmlns="http://www.w3.org/2000/svg" viewBox="0 0 23.12 30.99"><defs><style>.cls-1{fill:#7f5cff;}.cls-2{fill:#113e6b;}.cls-3{fill:#fff;}</style></defs><g id="图层_2" data-name="图层 2"><g id="图层_1-2" data-name="图层 1"><path class="cls-1" d="M18.77,20.6l-.27.21-.12.09c-6.14,4.34-6.76,8.4-6.82,9.74v0c-.36-5.46-4.77-8.21-6.36-9.39a11.56,11.56,0,1,1,16-3.28A11.69,11.69,0,0,1,18.77,20.6ZM11.56,31v0Z"/><circle class="cls-2" cx="11.56" cy="11.58" r="8.84"/><path class="cls-3" d="M14.08,11.38h-.47L13,12.3l1.39.77.92,1.85s.15.16.46,0c.15,0,.16-.3.16-.3l-.62-2Z"/><path class="cls-3" d="M9.14,11.38,7.91,12.61l-.62,2s0,.27.16.3c.31.16.46,0,.46,0l.93-1.85,1.38-.77-.61-.92Z"/><path class="cls-3" d="M18.81,8.76A.57.57,0,0,0,19,8.45a.53.53,0,0,0-.15-.31l-1.39-.31c-.92,0-1.08.31-1.08.31V7.83H16v.31l-.77-.31H15l-1.54.31a.37.37,0,0,0,.16.62H16L16,9.14H15.8l-.15.16v.61L13.51,10,12.87,8.8a.7.7,0,0,0-.6-.35H10.9a.7.7,0,0,0-.6.35L9.66,10,7.52,9.91V9.3l-.15-.16H7.22l-.08-.38H9.61s.46-.16.15-.62L8.22,7.83H7.91l-.77.31V7.83H6.83v.31s-.15-.31-1.08-.31l-1.39.31a.53.53,0,0,0-.15.31.57.57,0,0,0,.15.31H6.83v.46H6.68l-.16.15-.15,1.85.15.16h.93l.15-.16H9.82l.48.88a.69.69,0,0,0,.6.36h1.37a.69.69,0,0,0,.6-.36l.48-.88h2.22l.15.16h.93l.15-.16-.15-1.85-.15-.15h-.16V8.76Zm-7.2,2.62a.93.93,0,1,1,.93-.93A.93.93,0,0,1,11.61,11.38Z"/><path class="cls-3" d="M11,10.48a.6.6,0,0,0,.06.27.68.68,0,0,1,0-.15.72.72,0,0,1,.73-.71l.18,0a.62.62,0,0,0-.31-.08A.64.64,0,0,0,11,10.48Z"/></g></g></svg>