<svg xmlns="http://www.w3.org/2000/svg" viewBox="0 0 10.9 10.9"><defs><style>.cls-1{fill:#2d7bf9;}</style></defs><g id="图层_2" data-name="图层 2"><g id="图层_1-2" data-name="图层 1"><path class="cls-1" d="M10.77,3.14h0l-3-3a.46.46,0,0,0-.67,0,2.22,2.22,0,0,0-.57,2.08L5.17,3.58a4,4,0,0,0-4.08.8.48.48,0,0,0,0,.67l2.05,2-3,3a.48.48,0,0,0,0,.67.48.48,0,0,0,.66,0l3-3L5.86,9.81a.47.47,0,0,0,.33.14.48.48,0,0,0,.34-.14,4,4,0,0,0,.79-4.07L8.68,4.38a2.27,2.27,0,0,0,2.09-.57A.48.48,0,0,0,10.77,3.14Z"/></g></g></svg>