<svg xmlns="http://www.w3.org/2000/svg" viewBox="0 0 22.54 16"><defs><style>.cls-1{fill:#fff;}</style></defs><g id="图层_2" data-name="图层 2"><g id="图层_1-2" data-name="图层 1"><path class="cls-1" d="M5.37,2.34a8,8,0,1,0,11.32,0A8,8,0,0,0,5.37,2.34ZM16.13,13.11a7.22,7.22,0,1,1,0-10.22A7.24,7.24,0,0,1,16.13,13.11Z"/><path d="M1.76,14.58a.22.22,0,0,1-.21-.12A21.79,21.79,0,0,1,.26,11.05V6A.25.25,0,0,1,.5,5.78H3.57A.25.25,0,0,1,3.82,6v2.3H6.64l.64-5.89a.24.24,0,0,1,.25-.22h.72a.25.25,0,0,1,.25.23l.06,1.28h4.32a.25.25,0,0,1,.25.25v.41a.26.26,0,0,1-.24.25l-.65,0v.4h.3a.25.25,0,0,1,.25.25v.36a.25.25,0,0,1-.25.25H10.28A.25.25,0,0,1,10,5.68V5.32a.25.25,0,0,1,.25-.25h.17v-.3l-1.87.11.23,3.45h1.9V7.49A.25.25,0,0,1,11,7.24h2.9a.26.26,0,0,1,.25.25l0,1.18h1.63A6,6,0,0,0,16.49,8a6.26,6.26,0,0,1,.85-.75.24.24,0,0,1,.14,0H22a.23.23,0,0,1,.21.13.23.23,0,0,1,0,.25c-.29.48-.63,1.07-1,1.7A21.58,21.58,0,0,1,19,12.9a.36.36,0,0,0,0,.27.17.17,0,0,0,.12.13l.72.12a.25.25,0,0,1,.19.17.69.69,0,0,1-.43,1,.15.15,0,0,1-.09,0Z"/><path class="cls-1" d="M8.25,2.46,8.32,4h4.56v.41L12,4.44l0,.88h.55v.36H10.28V5.32h.41l0-.81-2.4.14.26,3.93H11V7.49h2.9l0,1.43h1.95c.5-.33,1.12-1.12,1.62-1.46H22C21.09,9,19.57,12,18.81,12.72c-.22.33-.17.66.14.81l.78.14c.15.43,0,.57-.28.66H1.76A22.09,22.09,0,0,1,.5,11V6H3.57V8.58H6.86l.67-6.12h.72m0-.5H7.53a.51.51,0,0,0-.5.45L6.41,8.08H4.07V6a.5.5,0,0,0-.5-.5H.5A.5.5,0,0,0,0,6v5a.77.77,0,0,0,0,.15A21.77,21.77,0,0,0,1.33,14.6a.52.52,0,0,0,.43.23H19.45a.52.52,0,0,0,.18,0,.94.94,0,0,0,.58-1.29.51.51,0,0,0-.39-.33l-.63-.12,0,0a24.29,24.29,0,0,0,2.28-3.61c.35-.63.69-1.23,1-1.7a.47.47,0,0,0,0-.5A.49.49,0,0,0,22,7H17.48a.47.47,0,0,0-.28.09,6.92,6.92,0,0,0-.89.79,7.94,7.94,0,0,1-.61.58H14.39l0-.94a.51.51,0,0,0-.5-.49H11a.51.51,0,0,0-.5.5v.59H9.05l-.2-3,1-.06a.59.59,0,0,0-.07.26v.36a.5.5,0,0,0,.5.5h2.25a.5.5,0,0,0,.5-.5V5.32a.52.52,0,0,0-.24-.43h.12a.51.51,0,0,0,.47-.5V4a.5.5,0,0,0-.5-.5H8.8l-.05-1A.5.5,0,0,0,8.25,2Z"/><path d="M18.2,10a.54.54,0,1,1,0-1.07.54.54,0,0,1,0,1.07Z"/><path class="cls-1" d="M18.2,9.17a.29.29,0,0,1,0,.57.29.29,0,1,1,0-.57m0-.5a.78.78,0,0,0-.79.78.79.79,0,0,0,.79.79A.78.78,0,0,0,19,9.45a.77.77,0,0,0-.78-.78Z"/><path class="cls-1" d="M18.57,11.09a1.9,1.9,0,0,1-1.05-.3,1.68,1.68,0,0,0-1-.29,1.64,1.64,0,0,0-.95.29,2,2,0,0,1-2.1,0,1.68,1.68,0,0,0-1-.29,1.64,1.64,0,0,0-1,.29,2,2,0,0,1-2.1,0,1.72,1.72,0,0,0-1.91,0,2,2,0,0,1-2.1,0,1.72,1.72,0,0,0-1.91,0,1.9,1.9,0,0,1-1.05.3,1.9,1.9,0,0,1-1-.3,1.64,1.64,0,0,0-.95-.29c-.09,0-.15-.11-.15-.25S.44,10,.53,10a1.9,1.9,0,0,1,1.05.3,1.62,1.62,0,0,0,.95.28,1.68,1.68,0,0,0,1-.28,1.85,1.85,0,0,1,1-.3,1.9,1.9,0,0,1,1,.3,1.62,1.62,0,0,0,1,.28,1.62,1.62,0,0,0,1-.28,1.9,1.9,0,0,1,1-.3,1.85,1.85,0,0,1,1.05.3,1.68,1.68,0,0,0,1,.28,1.62,1.62,0,0,0,.95-.28,1.9,1.9,0,0,1,1.05-.3,1.87,1.87,0,0,1,1,.3,1.68,1.68,0,0,0,1,.28,1.62,1.62,0,0,0,.95-.28,2,2,0,0,1,2.1,0,1.68,1.68,0,0,0,1,.28,1.62,1.62,0,0,0,.95-.28,1.9,1.9,0,0,1,1.05-.3c.08,0,.15.11.15.26s-.07.25-.15.25a1.64,1.64,0,0,0-.95.29,1.9,1.9,0,0,1-1.05.3Z"/><path class="cls-1" d="M17.49,13.3a1.6,1.6,0,0,1-1-.31,1.46,1.46,0,0,0-.88-.28,1.4,1.4,0,0,0-.87.28,1.66,1.66,0,0,1-1.93,0,1.42,1.42,0,0,0-.87-.28,1.46,1.46,0,0,0-.88.28,1.62,1.62,0,0,1-1,.31,1.6,1.6,0,0,1-1-.31,1.52,1.52,0,0,0-1.76,0,1.6,1.6,0,0,1-1,.31,1.62,1.62,0,0,1-1-.31,1.46,1.46,0,0,0-.88-.28,1.42,1.42,0,0,0-.87.28,1.66,1.66,0,0,1-1.93,0A1.4,1.4,0,0,0,1,12.71c-.08,0-.14-.12-.14-.26s.06-.26.14-.26a1.63,1.63,0,0,1,1,.3,1.39,1.39,0,0,0,.88.29,1.36,1.36,0,0,0,.87-.29,1.7,1.7,0,0,1,1.93,0,1.34,1.34,0,0,0,.87.29,1.39,1.39,0,0,0,.88-.29,1.69,1.69,0,0,1,1.92,0,1.39,1.39,0,0,0,.88.29,1.34,1.34,0,0,0,.87-.29,1.7,1.7,0,0,1,1.93,0,1.36,1.36,0,0,0,.87.29,1.39,1.39,0,0,0,.88-.29,1.63,1.63,0,0,1,1-.3,1.6,1.6,0,0,1,1,.3,1.39,1.39,0,0,0,.88.29,1.34,1.34,0,0,0,.87-.29,1.66,1.66,0,0,1,1-.3c.07,0,.13.12.13.26s-.06.26-.13.26a1.46,1.46,0,0,0-.88.28,1.62,1.62,0,0,1-1,.31Z"/></g></g></svg>