<svg xmlns="http://www.w3.org/2000/svg" viewBox="0 0 22.54 16"><defs><style>.cls-1{fill:#fff;}</style></defs><g id="图层_2" data-name="图层 2"><g id="图层_1-2" data-name="图层 1"><path class="cls-1" d="M5.13,2.34a8,8,0,1,0,11.31,0A8,8,0,0,0,5.13,2.34ZM15.89,13.11a7.22,7.22,0,1,1,0-10.22A7.24,7.24,0,0,1,15.89,13.11Z"/><path d="M1.76,14.58a.24.24,0,0,1-.21-.11A22.19,22.19,0,0,1,.26,11.05V6A.25.25,0,0,1,.5,5.78H3.57A.25.25,0,0,1,3.82,6v2.3H6.64l.64-5.89a.24.24,0,0,1,.25-.22h.72a.25.25,0,0,1,.25.23l.06,1.28h4.32a.25.25,0,0,1,.25.25v.41a.26.26,0,0,1-.24.25l-.65,0v.4h.3a.25.25,0,0,1,.25.25v.36a.25.25,0,0,1-.25.25H10.28A.25.25,0,0,1,10,5.68V5.32a.25.25,0,0,1,.25-.25h.17v-.3l-1.87.11.23,3.45h1.9V7.49A.25.25,0,0,1,11,7.24h2.9a.26.26,0,0,1,.25.25l0,1.18h1.63A6,6,0,0,0,16.49,8a6.93,6.93,0,0,1,.85-.75.24.24,0,0,1,.14,0H22a.24.24,0,0,1,.21.13.23.23,0,0,1,0,.25c-.29.48-.63,1.08-1,1.7A21.58,21.58,0,0,1,19,12.9a.38.38,0,0,0,0,.28.18.18,0,0,0,.11.12l.73.12a.25.25,0,0,1,.19.17.69.69,0,0,1-.43,1,.15.15,0,0,1-.09,0Z"/><path class="cls-1" d="M8.25,2.46,8.32,4h4.56v.41L12,4.44l0,.88h.55v.36H10.28V5.32h.41l0-.81-2.4.14.26,3.93H11V7.49h2.9l0,1.43h2c.5-.33,1.12-1.12,1.62-1.46H22C21.09,9,19.57,12,18.81,12.72c-.22.33-.17.66.14.81l.78.14c.15.43,0,.57-.28.66H1.76A22.09,22.09,0,0,1,.5,11V6H3.57V8.58H6.86l.67-6.12h.72m0-.5H7.53a.51.51,0,0,0-.5.45L6.41,8.08H4.07V6a.5.5,0,0,0-.5-.5H.5A.5.5,0,0,0,0,6v5a.77.77,0,0,0,0,.15A21.77,21.77,0,0,0,1.33,14.6a.51.51,0,0,0,.43.23H19.45a.63.63,0,0,0,.19,0,1,1,0,0,0,.57-1.29.51.51,0,0,0-.39-.33l-.63-.12,0,0a24.5,24.5,0,0,0,2.28-3.62c.35-.62.69-1.22,1-1.69a.47.47,0,0,0,0-.5A.49.49,0,0,0,22,7H17.48a.47.47,0,0,0-.28.09,6.92,6.92,0,0,0-.89.79,7.94,7.94,0,0,1-.61.58H14.39l0-.94a.51.51,0,0,0-.5-.49H11a.51.51,0,0,0-.5.5v.59H9.05l-.2-3,1-.06a.59.59,0,0,0-.07.26v.36a.5.5,0,0,0,.5.5h2.25a.5.5,0,0,0,.5-.5V5.32a.52.52,0,0,0-.24-.43h.12a.51.51,0,0,0,.47-.5V4a.5.5,0,0,0-.5-.5H8.8l-.05-1A.5.5,0,0,0,8.25,2Z"/><path d="M18.2,10a.54.54,0,1,1,.53-.54A.53.53,0,0,1,18.2,10Z"/><path class="cls-1" d="M18.2,9.17a.29.29,0,0,1,0,.57.29.29,0,1,1,0-.57m0-.5a.78.78,0,0,0-.79.78.79.79,0,0,0,.79.79A.78.78,0,0,0,19,9.45a.77.77,0,0,0-.78-.78Z"/></g></g></svg>