<svg xmlns="http://www.w3.org/2000/svg" viewBox="0 0 22.54 16"><defs><style>.cls-1{fill:#46ccff;}.cls-2{fill:#0782ad;}</style></defs><g id="图层_2" data-name="图层 2"><g id="图层_1-2" data-name="图层 1"><path class="cls-1" d="M5.37,2.34a8,8,0,1,0,11.32,0A8,8,0,0,0,5.37,2.34ZM16.13,13.11a7.22,7.22,0,1,1,0-10.22A7.24,7.24,0,0,1,16.13,13.11Z"/><path class="cls-1" d="M1.76,14.53a.24.24,0,0,1-.21-.12A22.17,22.17,0,0,1,.26,11V6A.25.25,0,0,1,.5,5.72H3.57A.25.25,0,0,1,3.82,6v2.3H6.64l.64-5.89a.25.25,0,0,1,.25-.22h.72a.25.25,0,0,1,.25.24l.06,1.27h4.32a.25.25,0,0,1,.25.25v.41a.25.25,0,0,1-.24.25l-.65,0V5h.3a.25.25,0,0,1,.25.25v.36a.25.25,0,0,1-.25.25H10.28A.25.25,0,0,1,10,5.63V5.27A.25.25,0,0,1,10.28,5h.17v-.3l-1.87.11.23,3.44h1.9V7.44A.25.25,0,0,1,11,7.19h2.9a.26.26,0,0,1,.25.24l0,1.18h1.63A5.83,5.83,0,0,0,16.49,8a6.38,6.38,0,0,1,.85-.76.23.23,0,0,1,.14,0H22a.23.23,0,0,1,.21.13.23.23,0,0,1,0,.25c-.29.47-.63,1.07-1,1.7A21.83,21.83,0,0,1,19,12.84a.4.4,0,0,0,0,.28.18.18,0,0,0,.12.12l.72.13a.24.24,0,0,1,.19.16.7.7,0,0,1-.43,1l-.09,0Z"/><path d="M8.25,2.41l.07,1.51h4.56v.41l-.88,0,0,.89h.55v.36H10.28V5.27h.41l0-.82-2.4.14.26,3.93H11V7.44h2.9l0,1.42h1.95c.5-.33,1.12-1.12,1.62-1.45H22c-.95,1.57-2.47,4.52-3.23,5.25-.22.34-.17.67.14.81l.78.14c.15.43,0,.57-.28.67H1.76A22.5,22.5,0,0,1,.5,10.93V6H3.57V8.52H6.86l.67-6.11h.72m0-.5H7.53a.5.5,0,0,0-.5.45L6.41,8H4.07V6a.5.5,0,0,0-.5-.5H.5A.5.5,0,0,0,0,6v5a.59.59,0,0,0,0,.14,21.42,21.42,0,0,0,1.31,3.47.51.51,0,0,0,.43.24H19.45a.37.37,0,0,0,.18,0,.93.93,0,0,0,.58-1.28.5.5,0,0,0-.39-.34L19.19,13l0,0a23.76,23.76,0,0,0,2.28-3.61c.35-.62.69-1.22,1-1.69a.49.49,0,0,0,0-.51A.5.5,0,0,0,22,6.91H17.48A.54.54,0,0,0,17.2,7a7.78,7.78,0,0,0-.89.79,5.33,5.33,0,0,1-.61.58H14.39l0-.94a.5.5,0,0,0-.5-.48H11a.5.5,0,0,0-.5.5V8H9.05l-.2-3,1-.06a.6.6,0,0,0-.07.27v.36a.5.5,0,0,0,.5.5h2.25a.5.5,0,0,0,.5-.5V5.27a.52.52,0,0,0-.24-.43h.12a.5.5,0,0,0,.47-.5V3.92a.51.51,0,0,0-.5-.5H8.8l-.05-1a.5.5,0,0,0-.5-.48Z"/><path class="cls-2" d="M18.2,9.93a.54.54,0,1,1,0-1.07.54.54,0,0,1,0,1.07Z"/><path d="M18.2,9.11a.29.29,0,0,1,0,.57.29.29,0,1,1,0-.57m0-.5a.79.79,0,0,0-.79.79.78.78,0,0,0,.79.78A.77.77,0,0,0,19,9.4a.78.78,0,0,0-.78-.79Z"/><path d="M18.57,11.23a1.9,1.9,0,0,1-1.05-.3,1.61,1.61,0,0,0-1-.29,1.57,1.57,0,0,0-.95.29,2,2,0,0,1-2.1,0,1.61,1.61,0,0,0-1-.29,1.57,1.57,0,0,0-1,.29,2,2,0,0,1-2.1,0,1.72,1.72,0,0,0-1.91,0,2,2,0,0,1-2.1,0,1.6,1.6,0,0,0-1-.29,1.61,1.61,0,0,0-1,.29,1.9,1.9,0,0,1-1.05.3,1.9,1.9,0,0,1-1-.3,1.57,1.57,0,0,0-.95-.29c-.09,0-.15-.11-.15-.26s.06-.25.15-.25a1.9,1.9,0,0,1,1.05.3,1.62,1.62,0,0,0,.95.28,1.68,1.68,0,0,0,1-.28,1.85,1.85,0,0,1,1-.3,1.9,1.9,0,0,1,1,.3,1.62,1.62,0,0,0,1,.28,1.62,1.62,0,0,0,1-.28,1.9,1.9,0,0,1,1-.3,1.85,1.85,0,0,1,1.05.3,1.68,1.68,0,0,0,1,.28,1.62,1.62,0,0,0,.95-.28,1.9,1.9,0,0,1,1.05-.3,1.87,1.87,0,0,1,1,.3,1.68,1.68,0,0,0,1,.28,1.62,1.62,0,0,0,.95-.28,2,2,0,0,1,2.1,0,1.68,1.68,0,0,0,1,.28,1.62,1.62,0,0,0,.95-.28,1.9,1.9,0,0,1,1.05-.3c.08,0,.15.11.15.25s-.07.26-.15.26a1.57,1.57,0,0,0-.95.29,1.9,1.9,0,0,1-1.05.3Z"/><path d="M17.49,13.43a1.6,1.6,0,0,1-1-.3,1.46,1.46,0,0,0-.88-.28,1.4,1.4,0,0,0-.87.28,1.7,1.7,0,0,1-1.93,0,1.42,1.42,0,0,0-.87-.28,1.46,1.46,0,0,0-.88.28,1.63,1.63,0,0,1-1,.3,1.6,1.6,0,0,1-1-.3,1.52,1.52,0,0,0-1.76,0,1.6,1.6,0,0,1-1,.3,1.63,1.63,0,0,1-1-.3,1.46,1.46,0,0,0-.88-.28,1.42,1.42,0,0,0-.87.28,1.65,1.65,0,0,1-1,.3,1.66,1.66,0,0,1-1-.3A1.4,1.4,0,0,0,1,12.85c-.08,0-.14-.12-.14-.26s.06-.26.14-.26a1.63,1.63,0,0,1,1,.3,1.39,1.39,0,0,0,.88.29,1.36,1.36,0,0,0,.87-.29,1.7,1.7,0,0,1,1.93,0,1.34,1.34,0,0,0,.87.29,1.39,1.39,0,0,0,.88-.29,1.69,1.69,0,0,1,1.92,0,1.39,1.39,0,0,0,.88.29,1.34,1.34,0,0,0,.87-.29,1.7,1.7,0,0,1,1.93,0,1.36,1.36,0,0,0,.87.29,1.39,1.39,0,0,0,.88-.29,1.63,1.63,0,0,1,1-.3,1.6,1.6,0,0,1,1,.3,1.39,1.39,0,0,0,.88.29,1.34,1.34,0,0,0,.87-.29,1.66,1.66,0,0,1,1-.3c.07,0,.13.12.13.26s-.06.26-.13.26a1.46,1.46,0,0,0-.88.28,1.63,1.63,0,0,1-1,.3Z"/></g></g></svg>