<svg xmlns="http://www.w3.org/2000/svg" viewBox="0 0 22.54 16"><defs><style>.cls-1{fill:#28e29a;}</style></defs><g id="图层_2" data-name="图层 2"><g id="图层_1-2" data-name="图层 1"><path class="cls-1" d="M5.13,2.34a8,8,0,1,0,11.31,0A8,8,0,0,0,5.13,2.34ZM15.89,13.11a7.22,7.22,0,1,1,0-10.22A7.24,7.24,0,0,1,15.89,13.11Z"/><path class="cls-1" d="M1.76,14.37a.24.24,0,0,1-.21-.11A22.56,22.56,0,0,1,.26,10.85v-5A.25.25,0,0,1,.5,5.57H3.57a.25.25,0,0,1,.25.25v2.3H6.64l.64-5.89A.24.24,0,0,1,7.53,2h.72a.25.25,0,0,1,.25.23l.06,1.28h4.32a.25.25,0,0,1,.25.25v.41a.26.26,0,0,1-.24.25l-.65,0v.4h.3a.25.25,0,0,1,.25.25v.36a.25.25,0,0,1-.25.25H10.28A.25.25,0,0,1,10,5.47V5.11a.25.25,0,0,1,.25-.25h.17v-.3l-1.87.12.23,3.44h1.9V7.28A.26.26,0,0,1,11,7h2.9a.26.26,0,0,1,.25.25l0,1.18h1.63a6.78,6.78,0,0,0,.71-.65,6.3,6.3,0,0,1,.85-.76.23.23,0,0,1,.14,0H22a.24.24,0,0,1,.21.12.24.24,0,0,1,0,.26c-.29.47-.63,1.07-1,1.7A21.83,21.83,0,0,1,19,12.69a.39.39,0,0,0,0,.28.18.18,0,0,0,.11.12l.73.12a.25.25,0,0,1,.19.17.7.7,0,0,1-.43,1H1.76Z"/><path d="M8.25,2.26l.07,1.51h4.56v.41L12,4.23l0,.88h.55v.36H10.28V5.11h.41l0-.81-2.4.14.26,3.93H11V7.28h2.9l0,1.43h2c.5-.33,1.12-1.12,1.62-1.45H22c-.95,1.56-2.47,4.51-3.23,5.25-.22.33-.17.66.14.81l.78.14c.15.43,0,.57-.28.66H1.76A22.08,22.08,0,0,1,.5,10.78v-5H3.57V8.37H6.86l.67-6.11h.72m0-.5H7.53A.5.5,0,0,0,7,2.2L6.41,7.87H4.07v-2a.5.5,0,0,0-.5-.5H.5a.5.5,0,0,0-.5.5v5a.78.78,0,0,0,0,.14,21.42,21.42,0,0,0,1.31,3.47.51.51,0,0,0,.43.23H19.45a.63.63,0,0,0,.19,0,1,1,0,0,0,.57-1.29.51.51,0,0,0-.39-.33l-.63-.12,0,0A23.45,23.45,0,0,0,21.49,9.2c.35-.62.69-1.22,1-1.69a.47.47,0,0,0,0-.5A.48.48,0,0,0,22,6.76H17.48a.46.46,0,0,0-.28.08,6.92,6.92,0,0,0-.89.79,7.94,7.94,0,0,1-.61.58H14.39l0-.94a.51.51,0,0,0-.5-.49H11a.51.51,0,0,0-.5.5v.59H9.05l-.2-3,1-.06a.59.59,0,0,0-.07.26v.36a.5.5,0,0,0,.5.5h2.25a.5.5,0,0,0,.5-.5V5.11a.49.49,0,0,0-.24-.42h.12a.5.5,0,0,0,.47-.5V3.77a.5.5,0,0,0-.5-.5H8.8l-.05-1a.5.5,0,0,0-.5-.47Z"/><circle class="cls-1" cx="18.2" cy="9.24" r="0.54"/><path d="M18.2,9a.29.29,0,0,1,0,.57.29.29,0,1,1,0-.57m0-.5a.79.79,0,1,0,.78.78.77.77,0,0,0-.78-.78Z"/></g></g></svg>