<svg xmlns="http://www.w3.org/2000/svg" viewBox="0 0 22.54 16"><defs><style>.cls-1{fill:#28e29a;}</style></defs><g id="图层_2" data-name="图层 2"><g id="图层_1-2" data-name="图层 1"><path class="cls-1" d="M5.37,2.34a8,8,0,1,0,11.32,0A8,8,0,0,0,5.37,2.34ZM16.13,13.11a7.22,7.22,0,1,1,0-10.22A7.24,7.24,0,0,1,16.13,13.11Z"/><path class="cls-1" d="M1.76,14.1A.24.24,0,0,1,1.55,14,22.56,22.56,0,0,1,.26,10.57v-5A.25.25,0,0,1,.5,5.29H3.57a.25.25,0,0,1,.25.25v2.3H6.64L7.28,2a.24.24,0,0,1,.25-.22h.72A.25.25,0,0,1,8.5,2l.06,1.27h4.32a.25.25,0,0,1,.25.25V3.9a.26.26,0,0,1-.24.25l-.65,0v.4h.3a.25.25,0,0,1,.25.25V5.2a.25.25,0,0,1-.25.25H10.28A.25.25,0,0,1,10,5.2V4.84a.25.25,0,0,1,.25-.25h.17v-.3L8.59,4.4l.23,3.44h1.9V7A.25.25,0,0,1,11,6.76h2.9a.25.25,0,0,1,.25.24l0,1.18h1.63a6.78,6.78,0,0,0,.71-.65,5.75,5.75,0,0,1,.85-.76.23.23,0,0,1,.14,0H22a.25.25,0,0,1,.21.38c-.29.47-.63,1.07-1,1.7A21.83,21.83,0,0,1,19,12.41a.4.4,0,0,0,0,.28.18.18,0,0,0,.12.12l.72.13a.24.24,0,0,1,.19.16.7.7,0,0,1-.43,1l-.09,0Z"/><path d="M8.25,2l.07,1.51h4.56V3.9L12,4l0,.89h.55V5.2H10.28V4.84h.41l0-.82-2.4.14.26,3.93H11V7h2.9l0,1.42h1.95C16.36,8.1,17,7.31,17.48,7H22c-.95,1.56-2.47,4.52-3.23,5.25-.22.33-.17.67.14.81l.78.14c.15.43,0,.57-.28.67H1.76A22.5,22.5,0,0,1,.5,10.5v-5H3.57V8.09H6.86L7.53,2h.72m0-.5H7.53a.5.5,0,0,0-.5.44L6.41,7.59H4.07v-2a.5.5,0,0,0-.5-.5H.5a.5.5,0,0,0-.5.5v5a.68.68,0,0,0,0,.14,21.42,21.42,0,0,0,1.31,3.47.51.51,0,0,0,.43.24H19.45a.53.53,0,0,0,.18,0A.94.94,0,0,0,20.21,13a.51.51,0,0,0-.39-.33l-.63-.11a.08.08,0,0,1,0,0,23.76,23.76,0,0,0,2.28-3.61c.35-.62.69-1.22,1-1.69a.49.49,0,0,0,0-.51A.48.48,0,0,0,22,6.48H17.48a.54.54,0,0,0-.28.08,7.78,7.78,0,0,0-.89.79,5.33,5.33,0,0,1-.61.58H14.39l0-.94a.5.5,0,0,0-.5-.48H11a.5.5,0,0,0-.5.5v.58H9.05l-.2-3,1-.06a.6.6,0,0,0-.07.27V5.2a.5.5,0,0,0,.5.5h2.25a.5.5,0,0,0,.5-.5V4.84a.5.5,0,0,0-.24-.43h.12a.5.5,0,0,0,.47-.5V3.49a.51.51,0,0,0-.5-.5H8.8L8.75,2a.5.5,0,0,0-.5-.48Z"/><path class="cls-1" d="M18.2,9.5a.54.54,0,1,1,0-1.07.54.54,0,0,1,0,1.07Z"/><path d="M18.2,8.68a.29.29,0,0,1,0,.57.29.29,0,1,1,0-.57m0-.5a.79.79,0,0,0-.79.79.78.78,0,0,0,.79.78A.77.77,0,0,0,19,9a.78.78,0,0,0-.78-.79Z"/><path d="M18.57,10.55a1.9,1.9,0,0,1-1.05-.3,1.68,1.68,0,0,0-1-.29,1.64,1.64,0,0,0-.95.29,2,2,0,0,1-2.1,0,1.68,1.68,0,0,0-1-.29,1.64,1.64,0,0,0-1,.29,2,2,0,0,1-2.1,0,1.72,1.72,0,0,0-1.91,0,2,2,0,0,1-2.1,0,1.72,1.72,0,0,0-1.91,0,1.9,1.9,0,0,1-1.05.3,1.9,1.9,0,0,1-1-.3A1.64,1.64,0,0,0,.53,10c-.09,0-.15-.11-.15-.25s.06-.26.15-.26a1.9,1.9,0,0,1,1.05.3,1.62,1.62,0,0,0,.95.28,1.68,1.68,0,0,0,1-.28,1.85,1.85,0,0,1,1-.3,1.9,1.9,0,0,1,1,.3,1.62,1.62,0,0,0,1,.28,1.62,1.62,0,0,0,1-.28,1.9,1.9,0,0,1,1-.3,1.85,1.85,0,0,1,1.05.3,1.68,1.68,0,0,0,1,.28,1.62,1.62,0,0,0,.95-.28,1.9,1.9,0,0,1,1.05-.3,1.87,1.87,0,0,1,1,.3,1.68,1.68,0,0,0,1,.28,1.62,1.62,0,0,0,.95-.28,2,2,0,0,1,2.1,0,1.68,1.68,0,0,0,1,.28,1.62,1.62,0,0,0,.95-.28,1.9,1.9,0,0,1,1.05-.3c.08,0,.15.11.15.26s-.07.25-.15.25a1.64,1.64,0,0,0-.95.29,1.9,1.9,0,0,1-1.05.3Z"/><path d="M17.49,12.76a1.6,1.6,0,0,1-1-.31,1.46,1.46,0,0,0-.88-.28,1.4,1.4,0,0,0-.87.28,1.66,1.66,0,0,1-1.93,0,1.42,1.42,0,0,0-.87-.28,1.46,1.46,0,0,0-.88.28,1.62,1.62,0,0,1-1,.31,1.6,1.6,0,0,1-1-.31,1.52,1.52,0,0,0-1.76,0,1.6,1.6,0,0,1-1,.31,1.62,1.62,0,0,1-1-.31,1.46,1.46,0,0,0-.88-.28,1.42,1.42,0,0,0-.87.28,1.66,1.66,0,0,1-1.93,0A1.4,1.4,0,0,0,1,12.17c-.08,0-.14-.12-.14-.26s.06-.26.14-.26a1.56,1.56,0,0,1,1,.31,1.46,1.46,0,0,0,.88.28A1.42,1.42,0,0,0,3.66,12a1.58,1.58,0,0,1,1-.31,1.59,1.59,0,0,1,1,.31,1.4,1.4,0,0,0,.87.28A1.46,1.46,0,0,0,7.34,12a1.64,1.64,0,0,1,1.92,0,1.46,1.46,0,0,0,.88.28A1.4,1.4,0,0,0,11,12a1.66,1.66,0,0,1,1.93,0,1.42,1.42,0,0,0,.87.28,1.46,1.46,0,0,0,.88-.28,1.56,1.56,0,0,1,1-.31,1.53,1.53,0,0,1,1,.31,1.46,1.46,0,0,0,.88.28,1.4,1.4,0,0,0,.87-.28,1.59,1.59,0,0,1,1-.31c.07,0,.13.12.13.26s-.06.26-.13.26a1.46,1.46,0,0,0-.88.28,1.62,1.62,0,0,1-1,.31Z"/></g></g></svg>