<svg xmlns="http://www.w3.org/2000/svg" viewBox="0 0 22.54 12.87"><defs><style>.cls-1{fill:#28e29a;}</style></defs><g id="图层_2" data-name="图层 2"><g id="图层_1-2" data-name="图层 1"><path class="cls-1" d="M1.76,12.62a.24.24,0,0,1-.21-.12A22.17,22.17,0,0,1,.26,9.09v-5A.25.25,0,0,1,.5,3.81H3.57a.25.25,0,0,1,.25.25v2.3H6.64L7.28.47A.25.25,0,0,1,7.53.25h.72A.25.25,0,0,1,8.5.49l.06,1.27h4.32a.25.25,0,0,1,.25.25v.41a.25.25,0,0,1-.24.25l-.65,0v.4h.3a.25.25,0,0,1,.25.25v.36a.25.25,0,0,1-.25.25H10.28A.25.25,0,0,1,10,3.72V3.36a.25.25,0,0,1,.25-.25h.17v-.3l-1.87.11.23,3.44h1.9V5.53A.25.25,0,0,1,11,5.28h2.9a.26.26,0,0,1,.25.24l0,1.18h1.63a5.83,5.83,0,0,0,.71-.65,6.3,6.3,0,0,1,.85-.76.23.23,0,0,1,.14,0H22a.24.24,0,0,1,.21.13.23.23,0,0,1,0,.25c-.29.47-.63,1.07-1,1.7A21.83,21.83,0,0,1,19,10.93a.4.4,0,0,0,0,.28.18.18,0,0,0,.11.12l.73.13a.24.24,0,0,1,.19.16.7.7,0,0,1-.43,1l-.09,0Z"/><path d="M8.25.5,8.32,2h4.56v.41L12,2.47l0,.89h.56v.36H10.28V3.36h.41l0-.82-2.4.14.26,3.93H11V5.53h2.9L13.9,7h2c.5-.33,1.12-1.12,1.62-1.45H22c-.95,1.57-2.47,4.52-3.23,5.25-.22.34-.17.67.14.81l.78.14c.15.43,0,.57-.28.67H1.76A22.5,22.5,0,0,1,.5,9v-5H3.57V6.61H6.86L7.53.5h.72m0-.5H7.53A.5.5,0,0,0,7,.45L6.41,6.11H4.07V4.06a.5.5,0,0,0-.5-.5H.5a.5.5,0,0,0-.5.5V9a.59.59,0,0,0,0,.14,21.42,21.42,0,0,0,1.31,3.47.5.5,0,0,0,.43.24H19.45a.43.43,0,0,0,.19,0,1,1,0,0,0,.57-1.28.5.5,0,0,0-.39-.34l-.63-.11a.08.08,0,0,1,0,0,23.76,23.76,0,0,0,2.28-3.61c.35-.63.69-1.22,1-1.69a.49.49,0,0,0,0-.51A.5.5,0,0,0,22,5H17.48a.54.54,0,0,0-.28.08,7.78,7.78,0,0,0-.89.79,5.33,5.33,0,0,1-.61.58H14.39l0-.94a.5.5,0,0,0-.5-.48H11a.5.5,0,0,0-.5.5v.58H9.05l-.2-3,1-.06a.6.6,0,0,0-.07.27v.36a.5.5,0,0,0,.5.5h2.25a.5.5,0,0,0,.5-.5V3.36a.52.52,0,0,0-.24-.43h.11a.5.5,0,0,0,.48-.5V2a.51.51,0,0,0-.5-.5H8.8l-.05-1A.51.51,0,0,0,8.25,0Z"/><circle class="cls-1" cx="18.2" cy="7.49" r="0.54"/><path d="M18.2,7.2a.29.29,0,0,1,0,.57.29.29,0,1,1,0-.57m0-.5a.79.79,0,0,0-.79.79.78.78,0,0,0,.79.78A.77.77,0,0,0,19,7.49a.78.78,0,0,0-.78-.79Z"/><path d="M18.57,9.07a1.9,1.9,0,0,1-1.05-.3,1.68,1.68,0,0,0-1-.28,1.65,1.65,0,0,0-.95.28,2,2,0,0,1-2.1,0,1.68,1.68,0,0,0-1-.28,1.65,1.65,0,0,0-1,.28,2,2,0,0,1-2.1,0,1.77,1.77,0,0,0-1.91,0,2,2,0,0,1-2.1,0,1.67,1.67,0,0,0-1-.28,1.68,1.68,0,0,0-1,.28,1.9,1.9,0,0,1-1.05.3,1.9,1.9,0,0,1-1-.3,1.65,1.65,0,0,0-.95-.28c-.09,0-.15-.12-.15-.26S.44,8,.53,8a1.9,1.9,0,0,1,1.05.3,1.62,1.62,0,0,0,.95.29,1.68,1.68,0,0,0,1-.29,1.85,1.85,0,0,1,1-.3,1.9,1.9,0,0,1,1,.3,1.7,1.7,0,0,0,1.9,0,1.9,1.9,0,0,1,1-.3,1.85,1.85,0,0,1,1.05.3,1.68,1.68,0,0,0,1,.29,1.62,1.62,0,0,0,.95-.29A1.9,1.9,0,0,1,12.55,8a1.87,1.87,0,0,1,1,.3,1.68,1.68,0,0,0,1,.29,1.62,1.62,0,0,0,.95-.29,2,2,0,0,1,2.1,0,1.68,1.68,0,0,0,1,.29,1.64,1.64,0,0,0,.95-.29A1.9,1.9,0,0,1,20.57,8c.08,0,.15.12.15.26s-.07.26-.15.26a1.62,1.62,0,0,0-.95.28,1.9,1.9,0,0,1-1.05.3Z"/><path d="M17.49,11.28a1.6,1.6,0,0,1-1-.31,1.46,1.46,0,0,0-.88-.28,1.4,1.4,0,0,0-.87.28,1.66,1.66,0,0,1-1.93,0,1.42,1.42,0,0,0-.87-.28,1.46,1.46,0,0,0-.88.28,1.62,1.62,0,0,1-1,.31,1.6,1.6,0,0,1-1-.31,1.52,1.52,0,0,0-1.76,0,1.6,1.6,0,0,1-1,.31,1.62,1.62,0,0,1-1-.31,1.46,1.46,0,0,0-.88-.28,1.42,1.42,0,0,0-.87.28,1.66,1.66,0,0,1-1.93,0A1.4,1.4,0,0,0,1,10.69c-.08,0-.14-.12-.14-.26s.06-.26.14-.26a1.62,1.62,0,0,1,1,.31,1.46,1.46,0,0,0,.88.28,1.42,1.42,0,0,0,.87-.28,1.66,1.66,0,0,1,1.93,0,1.4,1.4,0,0,0,.87.28,1.46,1.46,0,0,0,.88-.28,1.64,1.64,0,0,1,1.92,0,1.46,1.46,0,0,0,.88.28,1.4,1.4,0,0,0,.87-.28,1.66,1.66,0,0,1,1.93,0,1.42,1.42,0,0,0,.87.28,1.46,1.46,0,0,0,.88-.28,1.62,1.62,0,0,1,1-.31,1.6,1.6,0,0,1,1,.31,1.46,1.46,0,0,0,.88.28,1.4,1.4,0,0,0,.87-.28,1.66,1.66,0,0,1,1-.31c.07,0,.13.12.13.26s-.06.26-.13.26a1.46,1.46,0,0,0-.88.28,1.62,1.62,0,0,1-1,.31Z"/></g></g></svg>