<svg xmlns="http://www.w3.org/2000/svg" viewBox="0 0 22.92 16"><defs><style>.cls-1{fill:#ff7300;}</style></defs><g id="图层_2" data-name="图层 2"><g id="图层_1-2" data-name="图层 1"><path class="cls-1" d="M5.13,2.34a8,8,0,1,0,11.31,0A8,8,0,0,0,5.13,2.34ZM15.89,13.11a7.22,7.22,0,1,1,0-10.22A7.24,7.24,0,0,1,15.89,13.11Z"/><path class="cls-1" d="M1.62,14.29l-.07-.12A21.79,21.79,0,0,1,.26,10.76V5.49H3.82V8H6.64L7.3,1.92H8.49l.07,1.52h4.57v.89l-.89,0v.4h.55v.86H10V4.78h.42v-.3l-1.87.11L8.82,8h1.9V7h3.39l0,1.43h1.63a6,6,0,0,0,.71-.66A6.38,6.38,0,0,1,17.34,7l.06,0h5.08l-.23.38c-.29.48-.63,1.08-1,1.71A21.83,21.83,0,0,1,19,12.61a.36.36,0,0,0,0,.27.18.18,0,0,0,.11.13l.87.15,0,.14a.69.69,0,0,1-.43,1l0,0Z"/><path d="M8.25,2.17l.07,1.52h4.56V4.1l-.88,0L12,5h.55v.36H10.28V5h.41l0-.81-2.4.14.26,3.92H11V7.2h2.9l0,1.43h2c.5-.34,1.12-1.13,1.62-1.46H22c-.95,1.57-2.47,4.52-3.23,5.26-.22.33-.17.66.14.8l.78.15c.15.42,0,.57-.28.66H1.76A22.5,22.5,0,0,1,.5,10.69V5.74H3.57V8.28H6.86l.67-6.11h.72m.48-.5H7.08l0,.45L6.41,7.78H4.07V5.24H0v5.52l0,.07A21.42,21.42,0,0,0,1.33,14.3l.15.24H19.55l.09,0a1,1,0,0,0,.57-1.29l-.09-.28-.3-.06-.63-.11,0,0a24.5,24.5,0,0,0,2.28-3.62c.35-.62.69-1.22,1-1.69l.46-.76h-5.6l-.12.09a6.24,6.24,0,0,0-.89.79,7.94,7.94,0,0,1-.61.58H14.39l0-.94,0-.49H10.47V7.78H9.05l-.2-2.95.93-.06V5.89H13V4.59l.35,0V3.19H8.8l-.05-1,0-.48Z"/><path class="cls-1" d="M18.2,9.7a.54.54,0,1,1,.53-.54A.53.53,0,0,1,18.2,9.7Z"/><path d="M18.2,8.88a.26.26,0,0,1,.28.28.27.27,0,0,1-.28.29.28.28,0,0,1-.29-.29.27.27,0,0,1,.29-.28m0-.5a.78.78,0,0,0-.79.78.79.79,0,0,0,.79.79A.78.78,0,0,0,19,9.16a.77.77,0,0,0-.78-.78Z"/></g></g></svg>