<svg xmlns="http://www.w3.org/2000/svg" viewBox="0 0 22.54 16"><defs><style>.cls-1{fill:#ff00ea;}</style></defs><g id="图层_2" data-name="图层 2"><g id="图层_1-2" data-name="图层 1"><path class="cls-1" d="M5.37,2.34a8,8,0,1,0,11.32,0A8,8,0,0,0,5.37,2.34ZM16.13,13.11a7.22,7.22,0,1,1,0-10.22A7.24,7.24,0,0,1,16.13,13.11Z"/><path class="cls-1" d="M1.76,14.63a.24.24,0,0,1-.21-.12A22.56,22.56,0,0,1,.26,11.1v-5A.25.25,0,0,1,.5,5.82H3.57a.25.25,0,0,1,.25.25v2.3H6.64l.64-5.89a.24.24,0,0,1,.25-.22h.72a.25.25,0,0,1,.25.24l.06,1.27h4.32a.25.25,0,0,1,.25.25v.41a.26.26,0,0,1-.24.25l-.65,0v.4h.3a.25.25,0,0,1,.25.25v.36a.25.25,0,0,1-.25.25H10.28A.25.25,0,0,1,10,5.73V5.37a.25.25,0,0,1,.25-.25h.17v-.3l-1.87.11.23,3.44h1.9V7.54A.25.25,0,0,1,11,7.29h2.9a.25.25,0,0,1,.25.24l0,1.18h1.63a6.78,6.78,0,0,0,.71-.65,5.75,5.75,0,0,1,.85-.76.23.23,0,0,1,.14,0H22a.25.25,0,0,1,.21.38c-.29.47-.63,1.07-1,1.7A21.83,21.83,0,0,1,19,12.94a.39.39,0,0,0,0,.28.18.18,0,0,0,.12.12l.72.13a.24.24,0,0,1,.19.16.7.7,0,0,1-.43,1l-.09,0Z"/><path d="M8.25,2.51,8.32,4h4.56v.41L12,4.48l0,.89h.55v.36H10.28V5.37h.41l0-.82-2.4.14.26,3.93H11V7.54h2.9l0,1.42h1.95c.5-.33,1.12-1.12,1.62-1.45H22c-.95,1.56-2.47,4.52-3.23,5.25-.22.33-.17.67.14.81l.78.14c.15.43,0,.57-.28.67H1.76A22.5,22.5,0,0,1,.5,11v-5H3.57V8.62H6.86l.67-6.11h.72m0-.5H7.53a.5.5,0,0,0-.5.44L6.41,8.12H4.07v-2a.5.5,0,0,0-.5-.5H.5a.5.5,0,0,0-.5.5v5a.68.68,0,0,0,0,.14,21.42,21.42,0,0,0,1.31,3.47.51.51,0,0,0,.43.24H19.45a.53.53,0,0,0,.18,0,.94.94,0,0,0,.58-1.29.51.51,0,0,0-.39-.33l-.63-.12,0,0a23.76,23.76,0,0,0,2.28-3.61c.35-.63.69-1.22,1-1.69a.49.49,0,0,0,0-.51A.48.48,0,0,0,22,7H17.48a.54.54,0,0,0-.28.08,7.78,7.78,0,0,0-.89.79,6.38,6.38,0,0,1-.61.58H14.39l0-.94a.5.5,0,0,0-.5-.48H11a.5.5,0,0,0-.5.5v.58H9.05l-.2-3,1-.06a.6.6,0,0,0-.07.27v.36a.5.5,0,0,0,.5.5h2.25a.5.5,0,0,0,.5-.5V5.37a.49.49,0,0,0-.24-.43h.12a.5.5,0,0,0,.47-.5V4a.51.51,0,0,0-.5-.5H8.8l-.05-1A.5.5,0,0,0,8.25,2Z"/><path class="cls-1" d="M18.2,10A.54.54,0,1,1,18.2,9a.54.54,0,0,1,0,1.07Z"/><path d="M18.2,9.21a.29.29,0,0,1,0,.57.29.29,0,1,1,0-.57m0-.5a.79.79,0,0,0-.79.79.78.78,0,0,0,.79.78A.77.77,0,0,0,19,9.5a.78.78,0,0,0-.78-.79Z"/><path d="M18.57,11.18a1.82,1.82,0,0,1-1.05-.31,1.68,1.68,0,0,0-1-.28,1.65,1.65,0,0,0-.95.28,1.93,1.93,0,0,1-2.1,0,1.68,1.68,0,0,0-1-.28,1.65,1.65,0,0,0-1,.28,1.93,1.93,0,0,1-2.1,0,1.77,1.77,0,0,0-1.91,0,1.82,1.82,0,0,1-1,.31,1.82,1.82,0,0,1-1-.31,1.67,1.67,0,0,0-1-.28,1.68,1.68,0,0,0-1,.28,1.82,1.82,0,0,1-1.05.31,1.82,1.82,0,0,1-1-.31,1.65,1.65,0,0,0-.95-.28c-.09,0-.15-.12-.15-.26s.06-.26.15-.26a1.89,1.89,0,0,1,1.05.31,1.62,1.62,0,0,0,.95.28,1.68,1.68,0,0,0,1-.28,1.84,1.84,0,0,1,1-.31,1.89,1.89,0,0,1,1,.31,1.62,1.62,0,0,0,1,.28,1.62,1.62,0,0,0,1-.28,1.89,1.89,0,0,1,1-.31,1.84,1.84,0,0,1,1.05.31,1.68,1.68,0,0,0,1,.28,1.62,1.62,0,0,0,.95-.28,1.89,1.89,0,0,1,1.05-.31,1.87,1.87,0,0,1,1,.31,1.68,1.68,0,0,0,1,.28,1.62,1.62,0,0,0,.95-.28,1.93,1.93,0,0,1,2.1,0,1.68,1.68,0,0,0,1,.28,1.62,1.62,0,0,0,.95-.28,1.89,1.89,0,0,1,1.05-.31c.08,0,.15.12.15.26s-.07.26-.15.26a1.65,1.65,0,0,0-.95.28,1.82,1.82,0,0,1-1.05.31Z"/><path d="M17.49,13.38a1.6,1.6,0,0,1-1-.3,1.46,1.46,0,0,0-.88-.29,1.4,1.4,0,0,0-.87.29,1.7,1.7,0,0,1-1.93,0,1.42,1.42,0,0,0-.87-.29,1.46,1.46,0,0,0-.88.29,1.63,1.63,0,0,1-1,.3,1.6,1.6,0,0,1-1-.3,1.48,1.48,0,0,0-1.76,0,1.6,1.6,0,0,1-1,.3,1.63,1.63,0,0,1-1-.3,1.46,1.46,0,0,0-.88-.29,1.42,1.42,0,0,0-.87.29,1.65,1.65,0,0,1-1,.3,1.66,1.66,0,0,1-1-.3A1.4,1.4,0,0,0,1,12.79c-.08,0-.14-.11-.14-.25s.06-.26.14-.26a1.63,1.63,0,0,1,1,.3,1.46,1.46,0,0,0,.88.28,1.42,1.42,0,0,0,.87-.28,1.7,1.7,0,0,1,1.93,0,1.4,1.4,0,0,0,.87.28,1.46,1.46,0,0,0,.88-.28,1.69,1.69,0,0,1,1.92,0,1.46,1.46,0,0,0,.88.28,1.4,1.4,0,0,0,.87-.28,1.7,1.7,0,0,1,1.93,0,1.42,1.42,0,0,0,.87.28,1.46,1.46,0,0,0,.88-.28,1.63,1.63,0,0,1,1-.3,1.6,1.6,0,0,1,1,.3,1.46,1.46,0,0,0,.88.28,1.4,1.4,0,0,0,.87-.28,1.66,1.66,0,0,1,1-.3c.07,0,.13.11.13.26s-.06.25-.13.25a1.46,1.46,0,0,0-.88.29,1.63,1.63,0,0,1-1,.3Z"/></g></g></svg>