<svg xmlns="http://www.w3.org/2000/svg" viewBox="0 0 22.92 12.87"><defs><style>.cls-1{fill:#ff2f25;}</style></defs><g id="图层_2" data-name="图层 2"><g id="图层_1-2" data-name="图层 1"><path class="cls-1" d="M1.62,12.62l-.07-.12A22.56,22.56,0,0,1,.26,9.09V3.81H3.82V6.36H6.64L7.3.25H8.49l.07,1.51h4.57v.9l-.89,0v.4h.55V4H10V3.11h.42v-.3l-1.87.11.23,3.44h1.9V5.28h3.39l0,1.42h1.64a6.66,6.66,0,0,0,.7-.65,7.07,7.07,0,0,1,.85-.76l.06,0h5.08l-.23.38c-.29.47-.62,1.07-1,1.69A21.58,21.58,0,0,1,19,10.93a.4.4,0,0,0,0,.28.18.18,0,0,0,.12.12l.86.15,0,.14a.7.7,0,0,1-.43,1l0,0Z"/><path d="M8.25.5,8.32,2h4.56v.41L12,2.47l0,.89h.55v.36H10.28V3.36h.41l0-.82-2.4.14.26,3.93H11V5.53h2.9l0,1.42h1.95c.5-.33,1.12-1.12,1.62-1.45H22c-.95,1.57-2.47,4.52-3.23,5.25-.22.34-.17.67.14.81l.78.14c.15.43,0,.57-.28.67H1.76A22.5,22.5,0,0,1,.5,9v-5H3.57V6.61H6.86L7.53.5h.72M8.73,0H7.08L7,.45,6.41,6.11H4.07V3.56H0V9.09l0,.07a21.42,21.42,0,0,0,1.31,3.47l.15.24H19.55l.09,0a.94.94,0,0,0,.57-1.28l-.09-.29-.3,0-.63-.11,0,0a23.76,23.76,0,0,0,2.28-3.61c.35-.62.69-1.22,1-1.69L22.92,5h-5.6l-.12.08a7.78,7.78,0,0,0-.89.79,5.33,5.33,0,0,1-.61.58H14.39l0-.94,0-.48H10.47V6.11H9.05l-.2-3,.93,0V4.22H13V2.92l.35,0V1.51H8.8l-.05-1,0-.48Z"/><path class="cls-1" d="M18.2,8a.54.54,0,1,1,.53-.53A.52.52,0,0,1,18.2,8Z"/><path d="M18.2,7.2a.29.29,0,0,1,0,.57.29.29,0,1,1,0-.57m0-.5a.79.79,0,0,0-.79.79.78.78,0,0,0,.79.78A.77.77,0,0,0,19,7.49a.78.78,0,0,0-.78-.79Z"/></g></g></svg>