<svg xmlns="http://www.w3.org/2000/svg" viewBox="0 0 22.92 16"><defs><style>.cls-1{fill:#ff2f25;}</style></defs><g id="图层_2" data-name="图层 2"><g id="图层_1-2" data-name="图层 1"><path class="cls-1" d="M5.13,2.34a8,8,0,1,0,11.31,0A8,8,0,0,0,5.13,2.34ZM15.89,13.11a7.22,7.22,0,1,1,0-10.22A7.24,7.24,0,0,1,15.89,13.11Z"/><path class="cls-1" d="M1.62,13.84l-.07-.12A22.56,22.56,0,0,1,.26,10.31V5H3.82V7.58H6.64L7.3,1.47H8.49L8.56,3h4.57v.9l-.89.05v.39h.55v.86H10V4.32h.42V4l-1.87.11.23,3.44h1.9V6.5h3.39l0,1.42h1.64a9.62,9.62,0,0,0,.71-.65,5.71,5.71,0,0,1,.84-.76l.06,0h5.08l-.23.38c-.29.47-.63,1.07-1,1.7A21.83,21.83,0,0,1,19,12.15a.39.39,0,0,0,0,.28.18.18,0,0,0,.11.12l.87.15,0,.14a.7.7,0,0,1-.43,1l0,0Z"/><path d="M8.25,1.72l.07,1.51h4.56v.41l-.88,0,0,.88h.55v.37H10.28V4.57h.41l0-.81-2.4.14.26,3.93H11V6.75h2.9l0,1.42h2c.5-.33,1.12-1.12,1.62-1.45H22c-.95,1.56-2.47,4.51-3.23,5.25-.22.33-.17.67.14.81l.78.14c.15.43,0,.57-.28.67H1.76A22.5,22.5,0,0,1,.5,10.24v-5H3.57V7.83H6.86l.67-6.11h.72m.48-.5H7.08l0,.44L6.41,7.33H4.07V4.78H0v5.53l0,.07a21.42,21.42,0,0,0,1.31,3.47l.15.24H19.55l.09,0a1,1,0,0,0,.57-1.29l-.09-.28-.3-.05-.63-.12,0,0a23.45,23.45,0,0,0,2.28-3.62c.35-.62.69-1.21,1-1.68l.46-.76h-5.6l-.12.08a6.92,6.92,0,0,0-.89.79,7.94,7.94,0,0,1-.61.58H14.39l0-.94,0-.48H10.47V7.33H9.05l-.2-3,.93,0V5.44H13V4.13l.35,0V2.73H8.8l-.05-1,0-.47Z"/><path class="cls-1" d="M18.2,9.24a.54.54,0,1,1,.53-.53A.52.52,0,0,1,18.2,9.24Z"/><path d="M18.2,8.42a.29.29,0,0,1,0,.57.29.29,0,1,1,0-.57m0-.5a.79.79,0,0,0-.79.79.78.78,0,0,0,.79.78A.77.77,0,0,0,19,8.71a.78.78,0,0,0-.78-.79Z"/></g></g></svg>