<svg xmlns="http://www.w3.org/2000/svg" viewBox="0 0 22.54 16"><defs><style>.cls-1{fill:#f4fb34;}</style></defs><g id="图层_2" data-name="图层 2"><g id="图层_1-2" data-name="图层 1"><path class="cls-1" d="M5.13,2.34a8,8,0,1,0,11.31,0A8,8,0,0,0,5.13,2.34ZM15.89,13.11a7.22,7.22,0,1,1,0-10.22A7.24,7.24,0,0,1,15.89,13.11Z"/><path class="cls-1" d="M1.76,14.57a.24.24,0,0,1-.21-.12A22.56,22.56,0,0,1,.26,11V6A.25.25,0,0,1,.5,5.76H3.57A.25.25,0,0,1,3.82,6v2.3H6.64l.64-5.89a.24.24,0,0,1,.25-.22h.72a.25.25,0,0,1,.25.24l.06,1.27h4.32a.25.25,0,0,1,.25.25v.41a.26.26,0,0,1-.24.25l-.65,0v.39h.3a.25.25,0,0,1,.25.25v.37a.25.25,0,0,1-.25.25H10.28A.25.25,0,0,1,10,5.67V5.3a.25.25,0,0,1,.25-.25h.17v-.3l-1.87.12.23,3.44h1.9V7.47A.26.26,0,0,1,11,7.22h2.9a.26.26,0,0,1,.25.25l0,1.18h1.63A6.78,6.78,0,0,0,16.49,8a6.3,6.3,0,0,1,.85-.76.23.23,0,0,1,.14,0H22a.26.26,0,0,1,.21.12.24.24,0,0,1,0,.26c-.29.47-.63,1.07-1,1.7A21.4,21.4,0,0,1,19,12.88a.39.39,0,0,0,0,.28.18.18,0,0,0,.11.12l.73.12a.25.25,0,0,1,.19.17.7.7,0,0,1-.43,1l-.09,0Z"/><path d="M8.25,2.45,8.32,4h4.56v.41l-.88,0,0,.88h.55v.36H10.28V5.3h.41l0-.81-2.4.14.26,3.93H11V7.48h2.9l0,1.42h2c.5-.33,1.12-1.12,1.62-1.45H22C21.09,9,19.57,12,18.81,12.7c-.22.33-.17.67.14.81l.78.14c.15.43,0,.57-.28.67H1.76A22.5,22.5,0,0,1,.5,11V6H3.57V8.56H6.86l.67-6.11h.72m0-.5H7.53a.5.5,0,0,0-.5.44L6.41,8.06H4.07V6a.5.5,0,0,0-.5-.5H.5A.5.5,0,0,0,0,6v5a.78.78,0,0,0,0,.14,21.42,21.42,0,0,0,1.31,3.47.5.5,0,0,0,.43.24H19.45a.65.65,0,0,0,.19,0,1,1,0,0,0,.57-1.29.51.51,0,0,0-.39-.33L19.19,13l0,0a23.45,23.45,0,0,0,2.28-3.62c.35-.62.69-1.21,1-1.68a.49.49,0,0,0,0-.51A.48.48,0,0,0,22,7H17.48A.54.54,0,0,0,17.2,7a6.92,6.92,0,0,0-.89.79,7.94,7.94,0,0,1-.61.58H14.39l0-.94a.5.5,0,0,0-.5-.48H11a.5.5,0,0,0-.5.5v.58H9.05l-.2-3,1-.06a.59.59,0,0,0-.07.26v.36a.5.5,0,0,0,.5.5h2.25a.5.5,0,0,0,.5-.5V5.3a.49.49,0,0,0-.24-.42h.12a.5.5,0,0,0,.47-.5V4a.51.51,0,0,0-.5-.5H8.8l-.05-1A.5.5,0,0,0,8.25,2Z"/><circle class="cls-1" cx="18.2" cy="9.44" r="0.54"/><path d="M18.2,9.15a.29.29,0,0,1,0,.57.29.29,0,1,1,0-.57m0-.5a.79.79,0,0,0-.79.79.78.78,0,0,0,.79.78A.77.77,0,0,0,19,9.44a.78.78,0,0,0-.78-.79Z"/></g></g></svg>