<svg xmlns="http://www.w3.org/2000/svg" viewBox="0 0 22.62 16"><defs><style>.cls-1{fill:#fff;}.cls-2{fill-rule:evenodd;}.cls-3{fill:none;stroke:#fff;stroke-linecap:round;stroke-linejoin:round;stroke-width:0.5px;}</style></defs><g id="图层_2" data-name="图层 2"><g id="图层_1-2" data-name="图层 1"><path class="cls-1" d="M7.31,2.34a8,8,0,1,0,11.32,0A8,8,0,0,0,7.31,2.34ZM18.08,13.11a7.23,7.23,0,1,1,0-10.22A7.25,7.25,0,0,1,18.08,13.11Z"/><path class="cls-2" d="M19.2,8.94V7a.66.66,0,0,0-.69-.64H18v-.9c0-.22,0-.4-.09-.4H16.67c-.05,0-.09.18-.09.4v.9H14.24v0l.5-1.06c0-.31-.13-.55-.28-.55H14.3V2H13V4.69H10.78c-.16,0-.29.24-.29.55l.86,1.06v0H9.46A.66.66,0,0,0,8.77,7V8.63c-2.84-.3-6.51-.84-6.51-.84-.59,0-2-.1-2,.42a8.45,8.45,0,0,0,.83,1,23.35,23.35,0,0,1,1.6,3.17,3,3,0,0,0,3,1.72l13,.25,3.7,0L22.37,9Z"/><path class="cls-3" d="M19.2,8.94V7a.66.66,0,0,0-.69-.64H18v-.9c0-.22,0-.4-.09-.4H16.67c-.05,0-.09.18-.09.4v.9H14.24v0l.5-1.06c0-.31-.13-.55-.28-.55H14.3V2H13V4.69H10.78c-.16,0-.29.24-.29.55l.86,1.06v0H9.46A.66.66,0,0,0,8.77,7V8.63c-2.84-.3-6.51-.84-6.51-.84-.59,0-2-.1-2,.42a8.45,8.45,0,0,0,.83,1,23.35,23.35,0,0,1,1.6,3.17,3,3,0,0,0,3,1.72l13,.25,3.7,0L22.37,9Z"/></g></g></svg>