<svg xmlns="http://www.w3.org/2000/svg" viewBox="0 0 22.62 16"><defs><style>.cls-1{fill:#fff;}.cls-2{fill-rule:evenodd;}.cls-3{fill:none;stroke:#fff;stroke-linecap:round;stroke-linejoin:round;stroke-width:0.5px;}</style></defs><g id="图层_2" data-name="图层 2"><g id="图层_1-2" data-name="图层 1"><path class="cls-1" d="M6.92,2.34a8,8,0,1,0,11.32,0A8,8,0,0,0,6.92,2.34ZM17.69,13.11a7.23,7.23,0,1,1,0-10.22A7.25,7.25,0,0,1,17.69,13.11Z"/><path class="cls-2" d="M19.2,8.94V7a.66.66,0,0,0-.69-.64H18v-.9c0-.22,0-.4-.09-.4H16.67c-.05,0-.09.18-.09.4v.9H14.24v0l.5-1.06c0-.31-.13-.55-.28-.55H14.3V2H13V4.69H10.78c-.16,0-.29.24-.29.55l.86,1.06v0H9.46A.66.66,0,0,0,8.77,7V8.63c-2.84-.3-6.51-.84-6.51-.84-.59,0-2-.1-2,.42a8.45,8.45,0,0,0,.83,1,23.35,23.35,0,0,1,1.6,3.17,3,3,0,0,0,3,1.72l13,.25,3.7,0L22.37,9Z"/><path class="cls-3" d="M19.2,8.94V7a.66.66,0,0,0-.69-.64H18v-.9c0-.22,0-.4-.09-.4H16.67c-.05,0-.09.18-.09.4v.9H14.24v0l.5-1.06c0-.31-.13-.55-.28-.55H14.3V2H13V4.69H10.78c-.16,0-.29.24-.29.55l.86,1.06v0H9.46A.66.66,0,0,0,8.77,7V8.63c-2.84-.3-6.51-.84-6.51-.84-.59,0-2-.1-2,.42a8.45,8.45,0,0,0,.83,1,23.35,23.35,0,0,1,1.6,3.17,3,3,0,0,0,3,1.72l13,.25,3.7,0L22.37,9Z"/><path class="cls-1" d="M20.17,10.73a2,2,0,0,1-1.07-.31,1.82,1.82,0,0,0-1.94,0,2,2,0,0,1-1.07.31A1.94,1.94,0,0,1,15,10.42a1.84,1.84,0,0,0-1.95,0,1.94,1.94,0,0,1-1.07.31,2,2,0,0,1-1.07-.31,1.82,1.82,0,0,0-1.94,0,2,2,0,0,1-1.07.31,1.91,1.91,0,0,1-1.07-.31,1.73,1.73,0,0,0-1-.28,1.72,1.72,0,0,0-1,.28,2,2,0,0,1-2.14,0,1.72,1.72,0,0,0-1-.28c-.09,0-.16-.12-.16-.26s.07-.26.16-.26a2,2,0,0,1,1.07.31,1.69,1.69,0,0,0,1,.28,1.69,1.69,0,0,0,1-.28,2,2,0,0,1,1.07-.31,1.94,1.94,0,0,1,1.07.31,1.84,1.84,0,0,0,2,0A1.94,1.94,0,0,1,10,9.62,2,2,0,0,1,11,9.93a1.72,1.72,0,0,0,1,.28,1.69,1.69,0,0,0,1-.28,2,2,0,0,1,2.15,0,1.69,1.69,0,0,0,1,.28,1.72,1.72,0,0,0,1-.28,2,2,0,0,1,1.07-.31,1.94,1.94,0,0,1,1.07.31,1.84,1.84,0,0,0,1.95,0,1.94,1.94,0,0,1,1.07-.31c.08,0,.15.12.15.26s-.07.26-.15.26a1.73,1.73,0,0,0-1,.28,1.91,1.91,0,0,1-1.07.31Z"/><path class="cls-1" d="M20.26,12.93a1.79,1.79,0,0,1-1-.3,1.65,1.65,0,0,0-1.87,0,1.83,1.83,0,0,1-1,.3,1.79,1.79,0,0,1-1-.3,1.65,1.65,0,0,0-1.87,0,1.83,1.83,0,0,1-1,.3,1.79,1.79,0,0,1-1-.3,1.65,1.65,0,0,0-1.87,0,1.83,1.83,0,0,1-1,.3,1.79,1.79,0,0,1-1-.3,1.54,1.54,0,0,0-.94-.29,1.53,1.53,0,0,0-.93.29,1.83,1.83,0,0,1-1,.3,1.79,1.79,0,0,1-1-.3,1.54,1.54,0,0,0-.94-.29c-.08,0-.14-.11-.14-.26s.06-.25.14-.25a1.83,1.83,0,0,1,1,.3,1.6,1.6,0,0,0,.93.28,1.61,1.61,0,0,0,.94-.28,1.79,1.79,0,0,1,1-.3,1.83,1.83,0,0,1,1,.3,1.7,1.7,0,0,0,1.87,0,1.79,1.79,0,0,1,1-.3,1.83,1.83,0,0,1,1,.3,1.7,1.7,0,0,0,1.87,0,1.79,1.79,0,0,1,1-.3,1.83,1.83,0,0,1,1,.3,1.7,1.7,0,0,0,1.87,0,1.79,1.79,0,0,1,1-.3,1.83,1.83,0,0,1,1,.3,1.7,1.7,0,0,0,1.87,0,1.79,1.79,0,0,1,1-.3c.08,0,.15.11.15.25s-.07.26-.15.26a1.53,1.53,0,0,0-.93.29,1.83,1.83,0,0,1-1,.3Z"/></g></g></svg>