<svg xmlns="http://www.w3.org/2000/svg" viewBox="0 0 22.62 12.88"><defs><style>.cls-1{fill-rule:evenodd;}.cls-2{fill:none;stroke:#fff;stroke-linecap:round;stroke-linejoin:round;stroke-width:0.5px;}.cls-3{fill:#fff;}</style></defs><g id="图层_2" data-name="图层 2"><g id="图层_1-2" data-name="图层 1"><path class="cls-1" d="M19.2,7.24V5.29a.67.67,0,0,0-.69-.64H18V3.76c0-.23,0-.41-.09-.41H16.67c-.05,0-.09.18-.09.41v.89H14.24V4.6l.5-1.06c0-.3-.13-.55-.28-.55H14.3V.25H13V3H10.77c-.15,0-.28.25-.28.55l.86,1.06v.05H9.46a.66.66,0,0,0-.69.64V6.93c-2.84-.3-6.51-.84-6.51-.84-.59,0-2-.1-2,.42a8.45,8.45,0,0,0,.83,1,23.35,23.35,0,0,1,1.6,3.17,3,3,0,0,0,3,1.72l13,.25,3.7,0,.06-5.28Z"/><path class="cls-2" d="M19.2,7.24V5.29a.67.67,0,0,0-.69-.64H18V3.76c0-.23,0-.41-.09-.41H16.67c-.05,0-.09.18-.09.41v.89H14.24V4.6l.5-1.06c0-.3-.13-.55-.28-.55H14.3V.25H13V3H10.77c-.15,0-.28.25-.28.55l.86,1.06v.05H9.46a.66.66,0,0,0-.69.64V6.93c-2.84-.3-6.51-.84-6.51-.84-.59,0-2-.1-2,.42a8.45,8.45,0,0,0,.83,1,23.35,23.35,0,0,1,1.6,3.17,3,3,0,0,0,3,1.72l13,.25,3.7,0,.06-5.28Z"/><path class="cls-3" d="M20.17,9a1.89,1.89,0,0,1-1.07-.31,1.82,1.82,0,0,0-1.94,0A1.89,1.89,0,0,1,16.09,9,1.86,1.86,0,0,1,15,8.72a1.84,1.84,0,0,0-1.95,0A1.86,1.86,0,0,1,12,9a1.89,1.89,0,0,1-1.07-.31A1.82,1.82,0,0,0,9,8.72,1.89,1.89,0,0,1,7.92,9a1.84,1.84,0,0,1-1.07-.31,1.73,1.73,0,0,0-1-.28,1.72,1.72,0,0,0-1,.28A1.86,1.86,0,0,1,3.83,9a1.86,1.86,0,0,1-1.07-.31,1.72,1.72,0,0,0-1-.28c-.09,0-.16-.12-.16-.26s.07-.26.16-.26a2,2,0,0,1,1.07.31,1.69,1.69,0,0,0,1,.28,1.69,1.69,0,0,0,1-.28,2,2,0,0,1,1.07-.31,1.94,1.94,0,0,1,1.07.31,1.84,1.84,0,0,0,2,0A1.94,1.94,0,0,1,10,7.92,2,2,0,0,1,11,8.23a1.72,1.72,0,0,0,1,.28,1.69,1.69,0,0,0,1-.28,2,2,0,0,1,2.15,0,1.69,1.69,0,0,0,1,.28,1.72,1.72,0,0,0,1-.28,2,2,0,0,1,1.07-.31,1.94,1.94,0,0,1,1.07.31,1.84,1.84,0,0,0,1.95,0,1.94,1.94,0,0,1,1.07-.31c.08,0,.15.12.15.26s-.07.26-.15.26a1.73,1.73,0,0,0-1,.28A1.84,1.84,0,0,1,20.17,9Z"/><path class="cls-3" d="M20.26,11.23a1.79,1.79,0,0,1-1-.3,1.65,1.65,0,0,0-1.87,0,1.83,1.83,0,0,1-1,.3,1.79,1.79,0,0,1-1-.3,1.65,1.65,0,0,0-1.87,0,1.83,1.83,0,0,1-1,.3,1.79,1.79,0,0,1-1-.3,1.65,1.65,0,0,0-1.87,0,1.83,1.83,0,0,1-1,.3,1.79,1.79,0,0,1-1-.3,1.65,1.65,0,0,0-1.87,0,1.83,1.83,0,0,1-1,.3,1.79,1.79,0,0,1-1-.3,1.61,1.61,0,0,0-.94-.29c-.08,0-.14-.11-.14-.25s.06-.26.14-.26a1.83,1.83,0,0,1,1,.3,1.6,1.6,0,0,0,.93.28,1.61,1.61,0,0,0,.94-.28,1.79,1.79,0,0,1,1-.3,1.83,1.83,0,0,1,1,.3,1.7,1.7,0,0,0,1.87,0,1.79,1.79,0,0,1,1-.3,1.83,1.83,0,0,1,1,.3,1.7,1.7,0,0,0,1.87,0,1.79,1.79,0,0,1,1-.3,1.83,1.83,0,0,1,1,.3,1.7,1.7,0,0,0,1.87,0,1.79,1.79,0,0,1,1-.3,1.83,1.83,0,0,1,1,.3,1.7,1.7,0,0,0,1.87,0,1.79,1.79,0,0,1,1-.3c.08,0,.15.11.15.26s-.07.25-.15.25a1.6,1.6,0,0,0-.93.29,1.83,1.83,0,0,1-1,.3Z"/></g></g></svg>