<svg xmlns="http://www.w3.org/2000/svg" viewBox="0 0 22.62 16"><defs><style>.cls-1,.cls-2{fill:#46ccff;}.cls-2{fill-rule:evenodd;}.cls-3{fill:none;stroke:#000;stroke-linecap:round;stroke-linejoin:round;stroke-width:0.5px;}</style></defs><g id="图层_2" data-name="图层 2"><g id="图层_1-2" data-name="图层 1"><path class="cls-1" d="M6.92,2.34a8,8,0,1,0,11.32,0A8,8,0,0,0,6.92,2.34ZM17.69,13.11a7.23,7.23,0,1,1,0-10.22A7.25,7.25,0,0,1,17.69,13.11Z"/><path class="cls-2" d="M19.2,8.89v-2a.67.67,0,0,0-.69-.64H18V5.4c0-.23,0-.41-.09-.41H16.67c-.05,0-.09.18-.09.41v.89H14.24v0l.5-1.06c0-.31-.13-.56-.28-.56H14.3V1.89H13V4.63H10.78c-.16,0-.29.25-.29.56l.86,1.06v0H9.46a.66.66,0,0,0-.69.64V8.58c-2.84-.3-6.51-.85-6.51-.85-.59,0-2-.1-2,.43a8.36,8.36,0,0,0,.83,1,22.93,22.93,0,0,1,1.6,3.18,3,3,0,0,0,3,1.72l13,.25,3.7,0L22.37,9Z"/><path class="cls-3" d="M19.2,8.89v-2a.67.67,0,0,0-.69-.64H18V5.4c0-.23,0-.41-.09-.41H16.67c-.05,0-.09.18-.09.41v.89H14.24v0l.5-1.06c0-.31-.13-.56-.28-.56H14.3V1.89H13V4.63H10.78c-.16,0-.29.25-.29.56l.86,1.06v0H9.46a.66.66,0,0,0-.69.64V8.58c-2.84-.3-6.51-.85-6.51-.85-.59,0-2-.1-2,.43a8.36,8.36,0,0,0,.83,1,22.93,22.93,0,0,1,1.6,3.18,3,3,0,0,0,3,1.72l13,.25,3.7,0L22.37,9Z"/><path d="M20,10.63a1.9,1.9,0,0,1-1.06-.31A1.68,1.68,0,0,0,18,10a1.66,1.66,0,0,0-1,.28,2,2,0,0,1-1.06.31,1.9,1.9,0,0,1-1.06-.31,1.8,1.8,0,0,0-1.93,0,1.9,1.9,0,0,1-1.06.31,2,2,0,0,1-1.06-.31,1.66,1.66,0,0,0-1-.28,1.68,1.68,0,0,0-1,.28,2,2,0,0,1-2.12,0,1.68,1.68,0,0,0-1-.28,1.66,1.66,0,0,0-1,.28,2,2,0,0,1-1.06.31,1.9,1.9,0,0,1-1.06-.31,1.69,1.69,0,0,0-1-.28c-.08,0-.15-.12-.15-.26s.07-.26.15-.26a1.9,1.9,0,0,1,1.06.31,1.69,1.69,0,0,0,1,.28,1.68,1.68,0,0,0,1-.28,1.9,1.9,0,0,1,1.06-.31,1.93,1.93,0,0,1,1.06.31,1.66,1.66,0,0,0,1,.28,1.68,1.68,0,0,0,1-.28,1.93,1.93,0,0,1,1.06-.31,1.9,1.9,0,0,1,1.06.31,1.68,1.68,0,0,0,1,.28,1.72,1.72,0,0,0,1-.28,2,2,0,0,1,2.11,0,1.72,1.72,0,0,0,1,.28,1.68,1.68,0,0,0,1-.28A1.9,1.9,0,0,1,18,9.52,1.93,1.93,0,0,1,19,9.83a1.79,1.79,0,0,0,1.92,0A1.93,1.93,0,0,1,22,9.52c.08,0,.15.12.15.26S22.08,10,22,10a1.68,1.68,0,0,0-1,.28,1.9,1.9,0,0,1-1.06.31Z"/><path d="M20.07,12.83a1.79,1.79,0,0,1-1-.3,1.5,1.5,0,0,0-.92-.29,1.48,1.48,0,0,0-.92.29,1.84,1.84,0,0,1-1,.3,1.79,1.79,0,0,1-1-.3,1.6,1.6,0,0,0-1.84,0,1.88,1.88,0,0,1-2,0,1.6,1.6,0,0,0-1.84,0,1.79,1.79,0,0,1-1,.3,1.84,1.84,0,0,1-1-.3,1.48,1.48,0,0,0-.92-.29,1.48,1.48,0,0,0-.92.29,1.79,1.79,0,0,1-1,.3,1.78,1.78,0,0,1-1-.3,1.53,1.53,0,0,0-.93-.29c-.08,0-.14-.11-.14-.26s.06-.25.14-.25a1.79,1.79,0,0,1,1,.3,1.57,1.57,0,0,0,.92.28A1.54,1.54,0,0,0,5.47,12a1.84,1.84,0,0,1,1-.3,1.79,1.79,0,0,1,1,.3,1.65,1.65,0,0,0,1.84,0,1.88,1.88,0,0,1,2,0,1.65,1.65,0,0,0,1.84,0,1.79,1.79,0,0,1,1-.3,1.84,1.84,0,0,1,1,.3,1.65,1.65,0,0,0,1.84,0,1.87,1.87,0,0,1,2,0,1.6,1.6,0,0,0,.93.28A1.57,1.57,0,0,0,21,12a1.79,1.79,0,0,1,1-.3c.08,0,.14.11.14.25s-.06.26-.14.26a1.53,1.53,0,0,0-.93.29,1.78,1.78,0,0,1-1,.3Z"/></g></g></svg>