<svg xmlns="http://www.w3.org/2000/svg" viewBox="0 0 22.62 16"><defs><style>.cls-1,.cls-2{fill:#ff00ea;}.cls-2{fill-rule:evenodd;}.cls-3{fill:none;stroke:#000;stroke-linecap:round;stroke-linejoin:round;stroke-width:0.5px;}</style></defs><g id="图层_2" data-name="图层 2"><g id="图层_1-2" data-name="图层 1"><path class="cls-1" d="M7.31,2.34a8,8,0,1,0,11.32,0A8,8,0,0,0,7.31,2.34ZM18.08,13.11a7.23,7.23,0,1,1,0-10.22A7.25,7.25,0,0,1,18.08,13.11Z"/><path class="cls-2" d="M19.2,9V7a.67.67,0,0,0-.69-.64H18V5.5c0-.23,0-.41-.09-.41H16.67c-.05,0-.09.18-.09.41v.89H14.24v0l.5-1.06c0-.3-.13-.55-.28-.55H14.3V2H13V4.73H10.78c-.16,0-.29.25-.29.55l.86,1.06v0H9.46A.66.66,0,0,0,8.77,7V8.68c-2.84-.3-6.51-.85-6.51-.85-.59,0-2-.1-2,.42a8.45,8.45,0,0,0,.83,1,23.35,23.35,0,0,1,1.6,3.17,3,3,0,0,0,3,1.72l13,.26,3.7,0,.06-5.29Z"/><path class="cls-3" d="M19.2,9V7a.67.67,0,0,0-.69-.64H18V5.5c0-.23,0-.41-.09-.41H16.67c-.05,0-.09.18-.09.41v.89H14.24v0l.5-1.06c0-.3-.13-.55-.28-.55H14.3V2H13V4.73H10.78c-.16,0-.29.25-.29.55l.86,1.06v0H9.46A.66.66,0,0,0,8.77,7V8.68c-2.84-.3-6.51-.85-6.51-.85-.59,0-2-.1-2,.42a8.45,8.45,0,0,0,.83,1,23.35,23.35,0,0,1,1.6,3.17,3,3,0,0,0,3,1.72l13,.26,3.7,0,.06-5.29Z"/></g></g></svg>