<svg xmlns="http://www.w3.org/2000/svg" viewBox="0 0 22.62 12.88"><defs><style>.cls-1{fill:#ff00ea;fill-rule:evenodd;}.cls-2{fill:none;stroke:#000;stroke-linecap:round;stroke-linejoin:round;stroke-width:0.5px;}</style></defs><g id="图层_2" data-name="图层 2"><g id="图层_1-2" data-name="图层 1"><path class="cls-1" d="M19.2,7.24V5.29a.67.67,0,0,0-.69-.64H18V3.76c0-.23,0-.41-.09-.41H16.67c-.05,0-.09.18-.09.41v.89H14.24V4.6l.5-1.06c0-.3-.13-.55-.28-.55H14.3V.25H13V3H10.77c-.15,0-.28.25-.28.55l.86,1.06v.05H9.46a.66.66,0,0,0-.69.64V6.93c-2.84-.3-6.51-.84-6.51-.84-.59,0-2-.1-2,.42a8.45,8.45,0,0,0,.83,1,23.35,23.35,0,0,1,1.6,3.17,3,3,0,0,0,3,1.72l13,.25,3.7,0,.06-5.28Z"/><path class="cls-2" d="M19.2,7.24V5.29a.67.67,0,0,0-.69-.64H18V3.76c0-.23,0-.41-.09-.41H16.67c-.05,0-.09.18-.09.41v.89H14.24V4.6l.5-1.06c0-.3-.13-.55-.28-.55H14.3V.25H13V3H10.77c-.15,0-.28.25-.28.55l.86,1.06v.05H9.46a.66.66,0,0,0-.69.64V6.93c-2.84-.3-6.51-.84-6.51-.84-.59,0-2-.1-2,.42a8.45,8.45,0,0,0,.83,1,23.35,23.35,0,0,1,1.6,3.17,3,3,0,0,0,3,1.72l13,.25,3.7,0,.06-5.28Z"/><path d="M20,9.05a1.83,1.83,0,0,1-1.06-.31,1.68,1.68,0,0,0-1-.28,1.66,1.66,0,0,0-1,.28,1.88,1.88,0,0,1-1.06.31,1.83,1.83,0,0,1-1.06-.31,1.8,1.8,0,0,0-1.93,0,1.83,1.83,0,0,1-1.06.31,1.88,1.88,0,0,1-1.06-.31,1.66,1.66,0,0,0-1-.28,1.68,1.68,0,0,0-1,.28,1.83,1.83,0,0,1-1.06.31,1.83,1.83,0,0,1-1.06-.31,1.68,1.68,0,0,0-1-.28,1.66,1.66,0,0,0-1,.28,1.88,1.88,0,0,1-1.06.31,1.83,1.83,0,0,1-1.06-.31,1.69,1.69,0,0,0-1-.28c-.08,0-.15-.12-.15-.26s.07-.26.15-.26a1.9,1.9,0,0,1,1.06.31,1.69,1.69,0,0,0,1,.28,1.68,1.68,0,0,0,1-.28,1.9,1.9,0,0,1,1.06-.31,1.93,1.93,0,0,1,1.06.31,1.66,1.66,0,0,0,1,.28,1.68,1.68,0,0,0,1-.28,2,2,0,0,1,2.12,0,1.68,1.68,0,0,0,1,.28,1.72,1.72,0,0,0,1-.28,2,2,0,0,1,2.11,0,1.72,1.72,0,0,0,1,.28,1.68,1.68,0,0,0,1-.28A1.9,1.9,0,0,1,18,7.94,1.93,1.93,0,0,1,19,8.25a1.79,1.79,0,0,0,1.92,0A1.93,1.93,0,0,1,22,7.94c.08,0,.15.12.15.26s-.07.26-.15.26a1.68,1.68,0,0,0-1,.28A1.83,1.83,0,0,1,20,9.05Z"/><path d="M20.07,11.25a1.79,1.79,0,0,1-1-.3,1.57,1.57,0,0,0-.92-.29,1.54,1.54,0,0,0-.92.29,1.84,1.84,0,0,1-1,.3,1.79,1.79,0,0,1-1-.3,1.6,1.6,0,0,0-1.84,0,1.88,1.88,0,0,1-2,0,1.6,1.6,0,0,0-1.84,0,1.79,1.79,0,0,1-1,.3,1.84,1.84,0,0,1-1-.3,1.6,1.6,0,0,0-1.84,0,1.79,1.79,0,0,1-1,.3,1.78,1.78,0,0,1-1-.3,1.6,1.6,0,0,0-.93-.29c-.08,0-.14-.11-.14-.25s.06-.26.14-.26a1.79,1.79,0,0,1,1,.3,1.57,1.57,0,0,0,.92.29,1.54,1.54,0,0,0,.92-.29,1.84,1.84,0,0,1,1-.3,1.79,1.79,0,0,1,1,.3,1.6,1.6,0,0,0,1.84,0,1.88,1.88,0,0,1,2,0,1.6,1.6,0,0,0,1.84,0,1.79,1.79,0,0,1,1-.3,1.84,1.84,0,0,1,1,.3,1.6,1.6,0,0,0,1.84,0,1.87,1.87,0,0,1,2,0,1.6,1.6,0,0,0,.93.29,1.57,1.57,0,0,0,.92-.29,1.79,1.79,0,0,1,1-.3c.08,0,.14.11.14.26s-.06.25-.14.25a1.6,1.6,0,0,0-.93.29,1.78,1.78,0,0,1-1,.3Z"/></g></g></svg>