<svg xmlns="http://www.w3.org/2000/svg" viewBox="0 0 22.62 16"><defs><style>.cls-1,.cls-2{fill:#ff00ea;}.cls-2{fill-rule:evenodd;}.cls-3{fill:none;stroke:#000;stroke-linecap:round;stroke-linejoin:round;stroke-width:0.5px;}</style></defs><g id="图层_2" data-name="图层 2"><g id="图层_1-2" data-name="图层 1"><path class="cls-1" d="M6.92,2.34a8,8,0,1,0,11.32,0A8,8,0,0,0,6.92,2.34ZM17.69,13.11a7.23,7.23,0,1,1,0-10.22A7.25,7.25,0,0,1,17.69,13.11Z"/><path class="cls-2" d="M19.2,9V7a.67.67,0,0,0-.69-.64H18V5.5c0-.23,0-.41-.09-.41H16.67c-.05,0-.09.18-.09.41v.89H14.24v0l.5-1.06c0-.3-.13-.55-.28-.55H14.3V2H13V4.73H10.78c-.16,0-.29.25-.29.55l.86,1.06v0H9.46A.66.66,0,0,0,8.77,7V8.68c-2.84-.3-6.51-.85-6.51-.85-.59,0-2-.1-2,.42a8.45,8.45,0,0,0,.83,1,23.35,23.35,0,0,1,1.6,3.17,3,3,0,0,0,3,1.72l13,.26,3.7,0,.06-5.29Z"/><path class="cls-3" d="M19.2,9V7a.67.67,0,0,0-.69-.64H18V5.5c0-.23,0-.41-.09-.41H16.67c-.05,0-.09.18-.09.41v.89H14.24v0l.5-1.06c0-.3-.13-.55-.28-.55H14.3V2H13V4.73H10.78c-.16,0-.29.25-.29.55l.86,1.06v0H9.46A.66.66,0,0,0,8.77,7V8.68c-2.84-.3-6.51-.85-6.51-.85-.59,0-2-.1-2,.42a8.45,8.45,0,0,0,.83,1,23.35,23.35,0,0,1,1.6,3.17,3,3,0,0,0,3,1.72l13,.26,3.7,0,.06-5.29Z"/><path d="M20,10.79a1.91,1.91,0,0,1-1.06-.3,1.68,1.68,0,0,0-1-.29,1.65,1.65,0,0,0-1,.29,2,2,0,0,1-1.06.3,1.91,1.91,0,0,1-1.06-.3,1.75,1.75,0,0,0-1.93,0,1.91,1.91,0,0,1-1.06.3,2,2,0,0,1-1.06-.3,1.65,1.65,0,0,0-1-.29,1.68,1.68,0,0,0-1,.29,2,2,0,0,1-2.12,0,1.68,1.68,0,0,0-1-.29,1.65,1.65,0,0,0-1,.29,2,2,0,0,1-1.06.3,1.91,1.91,0,0,1-1.06-.3,1.69,1.69,0,0,0-1-.29c-.08,0-.15-.11-.15-.26s.07-.25.15-.25a1.91,1.91,0,0,1,1.06.3,1.69,1.69,0,0,0,1,.28,1.68,1.68,0,0,0,1-.28,1.91,1.91,0,0,1,1.06-.3,1.94,1.94,0,0,1,1.06.3,1.66,1.66,0,0,0,1,.28,1.68,1.68,0,0,0,1-.28,1.94,1.94,0,0,1,1.06-.3,1.91,1.91,0,0,1,1.06.3,1.68,1.68,0,0,0,1,.28,1.72,1.72,0,0,0,1-.28A2,2,0,0,1,15,10a1.72,1.72,0,0,0,1,.28,1.68,1.68,0,0,0,1-.28A1.91,1.91,0,0,1,18,9.69,1.94,1.94,0,0,1,19,10a1.79,1.79,0,0,0,1.92,0A1.94,1.94,0,0,1,22,9.69c.08,0,.15.11.15.25s-.07.26-.15.26a1.68,1.68,0,0,0-1,.29,1.91,1.91,0,0,1-1.06.3Z"/><path d="M20.07,13a1.79,1.79,0,0,1-1-.3,1.57,1.57,0,0,0-.92-.28,1.54,1.54,0,0,0-.92.28,1.84,1.84,0,0,1-1,.3,1.79,1.79,0,0,1-1-.3,1.65,1.65,0,0,0-1.84,0,1.88,1.88,0,0,1-2,0,1.65,1.65,0,0,0-1.84,0,1.79,1.79,0,0,1-1,.3,1.84,1.84,0,0,1-1-.3,1.54,1.54,0,0,0-.92-.28,1.54,1.54,0,0,0-.92.28,1.79,1.79,0,0,1-1,.3,1.78,1.78,0,0,1-1-.3,1.6,1.6,0,0,0-.93-.28c-.08,0-.14-.12-.14-.26s.06-.26.14-.26a1.79,1.79,0,0,1,1,.3,1.5,1.5,0,0,0,.92.29,1.48,1.48,0,0,0,.92-.29,1.84,1.84,0,0,1,1-.3,1.79,1.79,0,0,1,1,.3,1.6,1.6,0,0,0,1.84,0,1.88,1.88,0,0,1,2,0,1.6,1.6,0,0,0,1.84,0,1.79,1.79,0,0,1,1-.3,1.84,1.84,0,0,1,1,.3,1.6,1.6,0,0,0,1.84,0,1.87,1.87,0,0,1,2,0,1.53,1.53,0,0,0,.93.29,1.5,1.5,0,0,0,.92-.29,1.79,1.79,0,0,1,1-.3c.08,0,.14.12.14.26s-.06.26-.14.26a1.6,1.6,0,0,0-.93.28,1.78,1.78,0,0,1-1,.3Z"/></g></g></svg>