<svg xmlns="http://www.w3.org/2000/svg" viewBox="0 0 22.62 12.88"><defs><style>.cls-1{fill:#f4fb34;fill-rule:evenodd;}.cls-2{fill:none;stroke:#000;stroke-linecap:round;stroke-linejoin:round;stroke-width:0.5px;}</style></defs><g id="图层_2" data-name="图层 2"><g id="图层_1-2" data-name="图层 1"><path class="cls-1" d="M19.2,7.24V5.29a.67.67,0,0,0-.69-.64H18V3.76c0-.23,0-.41-.09-.41H16.67c-.05,0-.09.18-.09.41v.89H14.24V4.6l.5-1.06c0-.3-.13-.55-.28-.55H14.3V.25H13V3H10.78c-.16,0-.29.25-.29.55l.86,1.06v.05H9.46a.66.66,0,0,0-.69.64V6.93c-2.84-.3-6.51-.84-6.51-.84-.59,0-2-.1-2,.42a8.45,8.45,0,0,0,.83,1,23.35,23.35,0,0,1,1.6,3.17,3,3,0,0,0,3,1.72l13,.25,3.7,0,.06-5.28Z"/><path class="cls-2" d="M19.2,7.24V5.29a.67.67,0,0,0-.69-.64H18V3.76c0-.23,0-.41-.09-.41H16.67c-.05,0-.09.18-.09.41v.89H14.24V4.6l.5-1.06c0-.3-.13-.55-.28-.55H14.3V.25H13V3H10.78c-.16,0-.29.25-.29.55l.86,1.06v.05H9.46a.66.66,0,0,0-.69.64V6.93c-2.84-.3-6.51-.84-6.51-.84-.59,0-2-.1-2,.42a8.45,8.45,0,0,0,.83,1,23.35,23.35,0,0,1,1.6,3.17,3,3,0,0,0,3,1.72l13,.25,3.7,0,.06-5.28Z"/></g></g></svg>