<?xml version="1.0" standalone="no"?><!DOCTYPE svg PUBLIC "-//W3C//DTD SVG 1.1//EN" "http://www.w3.org/Graphics/SVG/1.1/DTD/svg11.dtd"><svg t="1680767033233" class="icon" viewBox="0 0 1024 1024" version="1.1" xmlns="http://www.w3.org/2000/svg" p-id="6448" xmlns:xlink="http://www.w3.org/1999/xlink" width="200" height="200"><path d="M417.72694 998.692958l-281.32196-162.399495A187.547973 187.547973 0 0 1 43.057239 674.320214V349.521223a187.121728 187.121728 0 0 1 93.347741-161.97325L417.72694 25.148478a185.842992 185.842992 0 0 1 187.121728 0l281.321961 162.399495A186.269237 186.269237 0 0 1 980.797106 349.521223v324.798991a186.695483 186.695483 0 0 1-93.347741 161.973249l-281.32196 162.399495a187.974219 187.974219 0 0 1-188.400465 0z" fill="#00F0FF" p-id="6449"></path><path d="M417.72694 906.623953l-201.187826-116.364992a187.121728 187.121728 0 0 1-93.773986-161.97325V395.555726a186.695483 186.695483 0 0 1 93.773986-161.97325l201.187826-116.364993a187.974219 187.974219 0 0 1 187.121728 0l201.614072 116.364993a186.269237 186.269237 0 0 1 93.347741 161.97325v232.729985a186.695483 186.695483 0 0 1-93.347741 161.97325l-201.614072 116.364992a187.974219 187.974219 0 0 1-187.121728 0z" fill="#113E6B" p-id="6450"></path><path d="M734.853514 560.086448l-42.62454 53.70692h14.918589s-20.459779 42.624539-100.167668 36.657103a72.035472 72.035472 0 0 1-64.363054-57.116882V485.919749h66.920527v-32.820895h-68.625509V407.064351a72.887962 72.887962 0 1 0-38.788331 0v47.739485H437.760474v28.558441h64.363054V596.743552a92.069005 92.069005 0 0 1-70.756735 53.706919 90.364024 90.364024 0 0 1-95.052723-35.378367h19.181043l-45.182012-63.510564-31.542159 62.231828h28.558441s32.820895 104.003876 213.122697 145.775924a332.471407 332.471407 0 0 0 213.122697-145.775924h26.85346z m-253.189764-222.07385a36.230859 36.230859 0 0 1 72.461717 0 36.230859 36.230859 0 1 1-72.461717 0z" fill="#35AAF9" p-id="6451"></path></svg>