<?xml version="1.0" standalone="no"?><!DOCTYPE svg PUBLIC "-//W3C//DTD SVG 1.1//EN" "http://www.w3.org/Graphics/SVG/1.1/DTD/svg11.dtd"><svg t="1680767015417" class="icon" viewBox="0 0 1024 1024" version="1.1" xmlns="http://www.w3.org/2000/svg" p-id="5764" xmlns:xlink="http://www.w3.org/1999/xlink" width="200" height="200"><path d="M417.72694 998.692958l-281.32196-162.399495A187.547973 187.547973 0 0 1 43.057239 674.320214V349.521223a187.121728 187.121728 0 0 1 93.347741-161.97325L417.72694 25.148478a185.842992 185.842992 0 0 1 187.121728 0l281.321961 162.399495A186.269237 186.269237 0 0 1 980.797106 349.521223v324.798991a186.695483 186.695483 0 0 1-93.347741 161.973249l-281.32196 162.399495a187.974219 187.974219 0 0 1-188.400465 0z" fill="#00F0FF" p-id="5765"></path><path d="M417.72694 906.623953l-201.187826-116.364992a187.121728 187.121728 0 0 1-93.773986-161.97325V395.555726a186.695483 186.695483 0 0 1 93.773986-161.97325l201.187826-116.364993a187.974219 187.974219 0 0 1 187.121728 0l201.614072 116.364993a186.269237 186.269237 0 0 1 93.347741 161.97325v232.729985a186.695483 186.695483 0 0 1-93.347741 161.97325l-201.614072 116.364992a187.974219 187.974219 0 0 1-187.121728 0z" fill="#113E6B" p-id="5766"></path><path d="M613.373576 332.471407h-138.529753v-27.70595a27.705951 27.705951 0 0 0-27.70595-27.705951H392.152217a27.705951 27.705951 0 0 0-27.705951 27.705951v27.70595h-14.066098a13.639853 13.639853 0 0 0-13.639852 14.066098v359.751113a13.639853 13.639853 0 0 0 13.639852 14.066098h304.765457a13.639853 13.639853 0 0 0 13.639853-14.066098V387.883309a55.411901 55.411901 0 0 0-55.411902-55.411902z m6.393681 192.236673h-51.149447V410.474315h49.444466a2.983718 2.983718 0 0 1 3.409963 3.409963z" fill="#00F0FF" p-id="5767"></path></svg>