<?xml version="1.0" standalone="no"?><!DOCTYPE svg PUBLIC "-//W3C//DTD SVG 1.1//EN" "http://www.w3.org/Graphics/SVG/1.1/DTD/svg11.dtd"><svg t="1680766982772" class="icon" viewBox="0 0 1024 1024" version="1.1" xmlns="http://www.w3.org/2000/svg" p-id="4943" xmlns:xlink="http://www.w3.org/1999/xlink" width="200" height="200"><path d="M417.72694 998.692958l-281.32196-162.399495A187.547973 187.547973 0 0 1 43.057239 674.320214V349.521223a187.121728 187.121728 0 0 1 93.347741-161.97325L417.72694 25.148478a185.842992 185.842992 0 0 1 187.121728 0l281.321961 162.399495A186.269237 186.269237 0 0 1 980.797106 349.521223v324.798991a186.695483 186.695483 0 0 1-93.347741 161.973249l-281.32196 162.399495a187.974219 187.974219 0 0 1-188.400465 0z" fill="#00F0FF" p-id="4944"></path><path d="M417.72694 906.623953l-201.187826-116.364992a187.121728 187.121728 0 0 1-93.773986-161.97325V395.555726a186.695483 186.695483 0 0 1 93.773986-161.97325l201.187826-116.364993a187.974219 187.974219 0 0 1 187.121728 0l201.614072 116.364993a186.269237 186.269237 0 0 1 93.347741 161.97325v232.729985a186.695483 186.695483 0 0 1-93.347741 161.97325l-201.614072 116.364992a187.974219 187.974219 0 0 1-187.121728 0z" fill="#113E6B" p-id="4945"></path><path d="M717.377452 326.930217H300.935702a20.886024 20.886024 0 0 0-20.886024 20.886025v279.190733a20.459779 20.459779 0 0 0 20.886024 20.459779h416.44175a20.459779 20.459779 0 0 0 20.886025-20.459779V347.816242a20.886024 20.886024 0 0 0-20.886025-20.886025z m-295.814303 233.582476h-40.067067V596.743552l-24.722233 8.098662v-103.57763l24.722233 4.688699v31.968404h25.574724l7.672417-21.738515 28.558441 15.344834z m122.332428 6.819927l-7.672417 7.672417h-14.066098l-158.563287-96.331459 14.492344-14.918589 136.398526 90.364023a150.464624 150.464624 0 0 1 15.344834 8.098663l21.738515-14.918589z m-7.672417-22.591006h-13.213607l-158.563287-95.052723v-15.344834l28.558442-42.62454h20.886024l180.301802 118.49622zM597.176251 456.935063h-20.459779v18.754797l-12.787361 4.262454V426.245394l12.787361 2.557473v16.62357h13.213608l3.836208-11.08238 14.918589 7.672417z m63.510564 3.836208l-3.836208 3.836209h-7.672418l-80.560379-49.870712 7.246172-7.672417 70.756735 45.608258 7.672417 4.262454 11.508626-7.672418z m-3.836208-11.934871h-7.246172l-80.56038-49.01822v-8.098663l14.918589-23.017251h10.656135l93.347741 61.379337zM347.822696 701.599919h312.437874v20.886024H347.822696z" fill="#46D160" p-id="4946"></path></svg>