<?xml version="1.0" standalone="no"?><!DOCTYPE svg PUBLIC "-//W3C//DTD SVG 1.1//EN" "http://www.w3.org/Graphics/SVG/1.1/DTD/svg11.dtd"><svg t="1680767006600" class="icon" viewBox="0 0 1024 1024" version="1.1" xmlns="http://www.w3.org/2000/svg" p-id="5488" xmlns:xlink="http://www.w3.org/1999/xlink" width="200" height="200"><path d="M417.72694 998.692958l-281.32196-162.399495A187.547973 187.547973 0 0 1 43.057239 674.320214V349.521223a187.121728 187.121728 0 0 1 93.347741-161.97325L417.72694 25.148478a185.842992 185.842992 0 0 1 187.121728 0l281.321961 162.399495A186.269237 186.269237 0 0 1 980.797106 349.521223v324.798991a186.695483 186.695483 0 0 1-93.347741 161.973249l-281.32196 162.399495a187.974219 187.974219 0 0 1-188.400465 0z" fill="#00F0FF" p-id="5489"></path><path d="M417.72694 906.623953l-201.187826-116.364992a187.121728 187.121728 0 0 1-93.773986-161.97325V395.555726a186.695483 186.695483 0 0 1 93.773986-161.97325l201.187826-116.364993a187.974219 187.974219 0 0 1 187.121728 0l201.614072 116.364993a186.269237 186.269237 0 0 1 93.347741 161.97325v232.729985a186.695483 186.695483 0 0 1-93.347741 161.97325l-201.614072 116.364992a187.974219 187.974219 0 0 1-187.121728 0z" fill="#113E6B" p-id="5490"></path><path d="M528.124497 340.996315a130.857336 130.857336 0 0 0-130.43109 106.135103v271.092071h12.787362l69.904244-135.546035v-126.168637a50.296957 50.296957 0 0 1 50.723202-42.624539 47.739484 47.739484 0 0 1 48.591975 42.624539v124.889901l69.904245 135.546035h5.114945v-271.092071a125.316146 125.316146 0 0 0-127.873619-106.135103z" fill="#7A72E8" p-id="5491"></path><path d="M710.557526 426.245394a176.465593 176.465593 0 0 0-178.59682-149.612133A185.842992 185.842992 0 0 0 346.970205 426.245394v289.420623h20.033534v-279.190733a161.120759 161.120759 0 0 1 160.694513-130.431091A153.448342 153.448342 0 0 1 682.42533 436.475284v280.469469h27.279705z" fill="#7A72E8" p-id="5492"></path><path d="M511.500927 716.944753h40.067067l-5.967435-49.870711h-30.263423l-3.836209 49.870711zM534.944424 583.529945h-13.639853l-0.852491 15.344834h16.623571l-2.131227-15.344834zM518.747099 616.35084l-1.704982 27.279705h25.574724l-3.409963-27.279705h-20.459779z" fill="#7A72E8" p-id="5493"></path></svg>