<?xml version="1.0" standalone="no"?><!DOCTYPE svg PUBLIC "-//W3C//DTD SVG 1.1//EN" "http://www.w3.org/Graphics/SVG/1.1/DTD/svg11.dtd"><svg t="1680767019682" class="icon" viewBox="0 0 1024 1024" version="1.1" xmlns="http://www.w3.org/2000/svg" p-id="5900" xmlns:xlink="http://www.w3.org/1999/xlink" width="200" height="200"><path d="M417.72694 998.692958l-281.32196-162.399495A187.547973 187.547973 0 0 1 43.057239 674.320214V349.521223a187.121728 187.121728 0 0 1 93.347741-161.97325L417.72694 25.148478a185.842992 185.842992 0 0 1 187.121728 0l281.321961 162.399495A186.269237 186.269237 0 0 1 980.797106 349.521223v324.798991a186.695483 186.695483 0 0 1-93.347741 161.973249l-281.32196 162.399495a187.974219 187.974219 0 0 1-188.400465 0z" fill="#00F0FF" p-id="5901"></path><path d="M417.72694 906.623953l-201.187826-116.364992a187.121728 187.121728 0 0 1-93.773986-161.97325V395.555726a186.695483 186.695483 0 0 1 93.773986-161.97325l201.187826-116.364993a187.974219 187.974219 0 0 1 187.121728 0l201.614072 116.364993a186.269237 186.269237 0 0 1 93.347741 161.97325v232.729985a186.695483 186.695483 0 0 1-93.347741 161.97325l-201.614072 116.364992a187.974219 187.974219 0 0 1-187.121728 0z" fill="#113E6B" p-id="5902"></path><path d="M554.551712 278.764488a42.624539 42.624539 0 1 0 85.249079 0 42.624539 42.624539 0 0 0-42.62454-42.62454 42.624539 42.624539 0 0 0-42.624539 42.62454zM673.474177 676.025195a50.296957 50.296957 0 0 0-35.378368-13.639853 55.838147 55.838147 0 0 0-37.083349 15.344835l-21.738515 21.312269a15.77108 15.77108 0 0 1-11.934871 4.6887 16.197325 16.197325 0 0 1-12.787362-4.6887l-20.033534-21.312269a53.280674 53.280674 0 0 0-37.083349-15.344835 49.870711 49.870711 0 0 0-36.657104 15.344835l-23.443496 23.017251a16.197325 16.197325 0 0 1-23.017252 0l-23.017251-23.017251a53.280674 53.280674 0 0 0-37.083349-15.344835 45.182012 45.182012 0 0 0-35.378368 15.344835l-35.378368 30.689668a17.476061 17.476061 0 1 0 23.443497 26.000969l36.657104-31.968404a16.197325 16.197325 0 0 1 23.017251 0l23.017251 21.312269a54.133165 54.133165 0 0 0 37.08335 15.344834 50.723202 50.723202 0 0 0 37.509594-14.492343l23.017252-23.017251a17.049816 17.049816 0 0 1 23.017251 0l21.738515 21.738515a54.133165 54.133165 0 0 0 36.657104 15.344834 57.969374 57.969374 0 0 0 37.083349-14.066098l21.31227-21.738515a17.049816 17.049816 0 0 1 23.017251 0l37.08335 32.39465a17.049816 17.049816 0 0 0 10.656134 4.688699 19.181043 19.181043 0 0 0 14.066098-6.393681 15.77108 15.77108 0 0 0 0-23.017251zM458.646498 404.506879l164.530722-66.920527a35.804613 35.804613 0 0 1 50.296957 20.459779l36.657104 106.987594a48.591975 48.591975 0 0 1-29.837178 57.969374h-70.756735a10.656135 10.656135 0 0 0-10.656135 10.656134v96.757705a22.591006 22.591006 0 1 1-45.182012 0v-127.873618a25.574724 25.574724 0 0 1 25.574724-25.574724h31.115914a8.524908 8.524908 0 0 0 8.098662-8.098662l-24.722233-72.035472a11.08238 11.08238 0 0 0-14.918589-6.819926l-108.26633 42.624539c-12.361116 4.262454-23.017251-20.886024-11.934871-29.410932z" fill="#D0D82B" p-id="5903"></path><path d="M296.247003 471.001161V511.494473h201.614072v-38.362086s-2.557472-2.131227-6.393681-2.131226H302.640684c-3.836209-2.131227-6.393681-2.131227-6.393681 0z" fill="#D0D82B" p-id="5904"></path><path d="M495.729848 468.869934h-38.362086v166.661949h38.362086s2.131227-2.557472 2.131227-5.114945v-156.43206c0-2.557472-0.852491-5.114945-2.131227-5.114944z" fill="#D0D82B" p-id="5905"></path></svg>