<?xml version="1.0" standalone="no"?><!DOCTYPE svg PUBLIC "-//W3C//DTD SVG 1.1//EN" "http://www.w3.org/Graphics/SVG/1.1/DTD/svg11.dtd"><svg t="1680767030175" class="icon" viewBox="0 0 1024 1024" version="1.1" xmlns="http://www.w3.org/2000/svg" p-id="6312" xmlns:xlink="http://www.w3.org/1999/xlink" width="200" height="200"><path d="M417.72694 998.692958l-281.32196-162.399495A187.547973 187.547973 0 0 1 43.057239 674.320214V349.521223a187.121728 187.121728 0 0 1 93.347741-161.97325L417.72694 25.148478a185.842992 185.842992 0 0 1 187.121728 0l281.321961 162.399495A186.269237 186.269237 0 0 1 980.797106 349.521223v324.798991a186.695483 186.695483 0 0 1-93.347741 161.973249l-281.32196 162.399495a187.974219 187.974219 0 0 1-188.400465 0z" fill="#00F0FF" p-id="6313"></path><path d="M417.72694 906.623953l-201.187826-116.364992a187.121728 187.121728 0 0 1-93.773986-161.97325V395.555726a186.695483 186.695483 0 0 1 93.773986-161.97325l201.187826-116.364993a187.974219 187.974219 0 0 1 187.121728 0l201.614072 116.364993a186.269237 186.269237 0 0 1 93.347741 161.97325v232.729985a186.695483 186.695483 0 0 1-93.347741 161.97325l-201.614072 116.364992a187.974219 187.974219 0 0 1-187.121728 0z" fill="#113E6B" p-id="6314"></path><path d="M464.187688 559.233957A32.820895 32.820895 0 0 0 435.203002 554.119012c-21.738515 9.377399-42.624539 17.902307-66.068037 26.000969-8.098662 2.983718-14.492343 7.672417-10.656134 16.197325s11.508626 6.819926 19.181042 3.409964l40.067067-15.77108 42.62454-17.476061c4.262454 0 9.803644-4.688699 0-8.098663M330.77288 484.641013a374.243456 374.243456 0 0 1 42.624539-15.771079 42.624539 42.624539 0 0 0 32.39465-35.804614l-81.839115 32.39465c-7.246172 2.557472-13.639853 6.393681-10.22989 14.918589s10.656135 7.246172 18.328552 4.262454M348.675187 543.889123l26.000969-10.22989c7.672417-2.983718 15.77108-5.54119 23.443496-9.377398s11.508626 0 8.524908-9.377399-6.393681-11.508626-13.213607-9.377399a227.188795 227.188795 0 0 0-54.133165 21.31227 8.951153 8.951153 0 0 0-3.836209 13.213607 9.803644 9.803644 0 0 0 13.213608 3.836209M696.065183 356.767395c-12.787362-12.361116-23.017251 0-32.39465 5.114945s-21.31227 15.344834-32.820896 11.08238-14.492343-11.08238-21.738515-19.181043a170.498158 170.498158 0 0 0-26.427214-23.017251l-20.886024-5.54119s-40.493312-4.262454-61.379337-4.262454a38.788331 38.788331 0 0 0-27.279705 5.54119c-18.328552 17.476061-36.657104 35.378368-53.70692 54.133165-10.656135 11.508626-9.803644 21.738515 0 29.410932a22.16476 22.16476 0 0 0 29.410932-4.688699 321.389027 321.389027 0 0 0 23.443497-24.722233 42.624539 42.624539 0 0 1 45.182012-15.344834c12.787362 2.983718 12.787362 7.672417 8.524908 17.476061a466.312461 466.312461 0 0 0-28.984687 66.920527 28.558441 28.558441 0 0 0 17.902306 37.509594c20.459779 8.524908 34.952122 12.787362 55.838147 20.459779 6.393681 2.557472 11.934871 5.114945 0 11.508626s-26.427214 18.328552-40.067067 27.279705a22.16476 22.16476 0 0 0-9.377399 27.705951 23.443497 23.443497 0 0 0 31.542159 4.262454c26.427214-18.328552 52.854429-36.657104 79.707889-54.559411a20.033534 20.033534 0 0 0 0-34.952122l-29.837178-20.033533c-29.410932-19.181043-29.410932-19.181043-14.492343-52.001939 8.098662-18.328552 8.098662-18.328552 25.148478-5.114944 7.246172 5.54119 14.492343 12.787362 25.148479 7.672417A369.981002 369.981002 0 0 0 696.917674 383.620855c7.246172-5.114945 5.54119-18.328552 0-24.722233M639.800791 534.511724c-21.31227 11.508626-24.722233 11.508626-34.099632 23.017252a17.049816 17.049816 0 0 0-2.983718 6.819926c-3.836209 19.607288-7.672417 36.657104-11.934871 56.690637a17.049816 17.049816 0 0 0 13.213608 21.31227 18.328552 18.328552 0 0 0 23.443496-12.361116c8.524908-32.39465 16.62357-61.379337 24.722233-93.773987 0.852491-8.951153-5.54119-5.967436-12.361116-1.704982zM691.376483 676.025195a49.01822 49.01822 0 0 0-35.378367-13.639853 55.411901 55.411901 0 0 0-36.657104 15.344835l-21.738515 21.312269a16.197325 16.197325 0 0 1-12.361117 4.6887 16.62357 16.62357 0 0 1-12.361116-4.6887l-18.328552-21.312269a52.428183 52.428183 0 0 0-36.657104-15.344835 50.296957 50.296957 0 0 0-37.083349 15.344835l-23.017252 23.017251a16.197325 16.197325 0 0 1-23.017251 0l-23.017251-23.017251a53.280674 53.280674 0 0 0-37.083349-15.344835 45.182012 45.182012 0 0 0-35.378368 15.344835l-35.378368 30.689668a17.476061 17.476061 0 0 0 0 24.722233 17.049816 17.049816 0 0 0 24.722233 0l37.083349-31.968405a16.197325 16.197325 0 0 1 23.017252 0l23.017251 21.31227a53.280674 53.280674 0 0 0 37.083349 15.344834 49.870711 49.870711 0 0 0 33.247141-13.213607l23.443497-23.017251a17.049816 17.049816 0 0 1 23.017251 0l21.31227 21.738515a55.411901 55.411901 0 0 0 37.083349 15.344834 57.543128 57.543128 0 0 0 36.657104-15.344834l21.738515-21.738515a17.049816 17.049816 0 0 1 23.017251 0l37.083349 32.39465a17.049816 17.049816 0 0 0 10.656135 4.688699 17.902307 17.902307 0 0 0 13.639853-6.393681 15.344834 15.344834 0 0 0 0-23.017251zM556.682939 278.764488a42.624539 42.624539 0 1 0 42.624539-42.62454 42.624539 42.624539 0 0 0-42.624539 42.62454z" fill="#E05A20" p-id="6315"></path></svg>