<?xml version="1.0" standalone="no"?><!DOCTYPE svg PUBLIC "-//W3C//DTD SVG 1.1//EN" "http://www.w3.org/Graphics/SVG/1.1/DTD/svg11.dtd"><svg t="1680767002444" class="icon" viewBox="0 0 1024 1024" version="1.1" xmlns="http://www.w3.org/2000/svg" p-id="5351" xmlns:xlink="http://www.w3.org/1999/xlink" width="200" height="200"><path d="M417.72694 998.692958l-281.32196-162.399495A187.547973 187.547973 0 0 1 43.057239 674.320214V349.521223a187.121728 187.121728 0 0 1 93.347741-161.97325L417.72694 25.148478a185.842992 185.842992 0 0 1 187.121728 0l281.321961 162.399495A186.269237 186.269237 0 0 1 980.797106 349.521223v324.798991a186.695483 186.695483 0 0 1-93.347741 161.973249l-281.32196 162.399495a187.974219 187.974219 0 0 1-188.400465 0z" fill="#00F0FF" p-id="5352"></path><path d="M417.72694 906.623953l-201.187826-116.364992a187.121728 187.121728 0 0 1-93.773986-161.97325V395.555726a186.695483 186.695483 0 0 1 93.773986-161.97325l201.187826-116.364993a187.974219 187.974219 0 0 1 187.121728 0l201.614072 116.364993a186.269237 186.269237 0 0 1 93.347741 161.97325v232.729985a186.695483 186.695483 0 0 1-93.347741 161.97325l-201.614072 116.364992a187.974219 187.974219 0 0 1-187.121728 0z" fill="#113E6B" p-id="5353"></path><path d="M673.047931 388.735799l85.249079-2.983717c2.557472 0 4.688699-4.262454 4.262454-9.377399s-2.557472-9.377399-5.114944-8.951153l-85.249079 2.983718c-2.557472 0-4.688699 4.262454-4.6887 9.377398s2.557472 9.377399 5.54119 8.951153zM755.739538 436.049038l-85.249079 2.983718c-2.557472 0-4.688699 4.688699-4.688699 9.377399s2.557472 9.377399 5.54119 9.377398l85.249079-3.409963c2.557472 0 4.688699-4.262454 4.262454-9.377399s-2.557472-8.951153-5.114945-8.951153zM755.739538 504.674547l-85.249079 3.409963c-2.557472 0-4.688699 4.262454-4.688699 9.377398s2.557472 8.951153 5.54119 8.951154l85.249079-2.983718c2.557472 0 4.688699-4.262454 4.262454-9.377399s-2.557472-9.377399-5.114945-9.377398zM755.739538 573.726301l-85.249079 2.983717c-2.557472 0-4.688699 4.262454-4.688699 9.377399s2.557472 9.377399 5.54119 8.951153l85.249079-2.983718c2.557472 0 4.688699-4.262454 4.262454-9.377398s-2.557472-8.951153-5.114945-8.951153zM496.582338 377.227174L315.0018 383.620855a26.85346 26.85346 0 0 0-26.853459 26.85346l4.688699 170.498157a32.820895 32.820895 0 0 0 35.804613 30.263423l64.7893-5.967435a5.114945 5.114945 0 0 0 5.54119-8.524908c0-7.672417 0-21.738515-3.409963-37.93584 0-31.968405 0-60.953091 37.509595-62.231828 0 0 34.099632-3.836209 37.083349 39.640822l6.819926 61.805582a5.114945 5.114945 0 0 0 5.967436 4.688699h23.869742A6.393681 6.393681 0 0 0 511.927173 596.743552l-9.803645-213.122697a5.967436 5.967436 0 0 0-5.54119-6.393681zM585.24138 325.651481l-50.296956 49.01822 12.361116 225.910059 45.182012 37.509595a42.624539 42.624539 0 0 0 47.313239-26.427214l-8.951154-255.747237s-3.836209-30.689668-45.608257-30.263423z" fill="#FFFFFF" p-id="5354"></path><path d="M430.514302 507.232019a26.427214 26.427214 0 0 0-25.574723 27.279705l14.918588 185.416747a26.427214 26.427214 0 0 0 29.410933 23.443496 26.000969 26.000969 0 0 0 25.148478-27.279705l-14.492344-185.416746a26.85346 26.85346 0 0 0-29.410932-23.443497z" fill="#FFFFFF" p-id="5355"></path></svg>