<?xml version="1.0" standalone="no"?><!DOCTYPE svg PUBLIC "-//W3C//DTD SVG 1.1//EN" "http://www.w3.org/Graphics/SVG/1.1/DTD/svg11.dtd"><svg t="1680767022973" class="icon" viewBox="0 0 1024 1024" version="1.1" xmlns="http://www.w3.org/2000/svg" p-id="6038" xmlns:xlink="http://www.w3.org/1999/xlink" width="200" height="200"><path d="M417.72694 998.692958l-281.32196-162.399495A187.547973 187.547973 0 0 1 43.057239 674.320214V349.521223a187.121728 187.121728 0 0 1 93.347741-161.97325L417.72694 25.148478a185.842992 185.842992 0 0 1 187.121728 0l281.321961 162.399495A186.269237 186.269237 0 0 1 980.797106 349.521223v324.798991a186.695483 186.695483 0 0 1-93.347741 161.973249l-281.32196 162.399495a187.974219 187.974219 0 0 1-188.400465 0z" fill="#00F0FF" p-id="6039"></path><path d="M417.72694 906.623953l-201.187826-116.364992a187.121728 187.121728 0 0 1-93.773986-161.97325V395.555726a186.695483 186.695483 0 0 1 93.773986-161.97325l201.187826-116.364993a187.974219 187.974219 0 0 1 187.121728 0l201.614072 116.364993a186.269237 186.269237 0 0 1 93.347741 161.97325v232.729985a186.695483 186.695483 0 0 1-93.347741 161.97325l-201.614072 116.364992a187.974219 187.974219 0 0 1-187.121728 0z" fill="#113E6B" p-id="6040"></path><path d="M740.820949 474.411124l-213.122697-213.122697a25.148478 25.148478 0 0 0-35.378368 0l-213.122697 213.122697a14.918589 14.918589 0 0 0 21.31227 21.312269l27.705951-26.853459v186.269237a25.574724 25.574724 0 0 0 24.722233 26.427214h320.962781a19.181043 19.181043 0 0 0 20.459779-20.033533V468.869934l25.148478 25.148478a14.918589 14.918589 0 1 0 21.31227-21.31227z m-127.873618 50.296956A156.858305 156.858305 0 0 1 511.927173 636.810619a156.005814 156.005814 0 0 1-99.741423-112.102539 201.187826 201.187826 0 0 1-3.836208-67.773017 50.296957 50.296957 0 0 0 40.067067-37.509595L511.927173 397.260707l63.084318 22.164761a51.575693 51.575693 0 0 0 40.493312 37.93584 199.482844 199.482844 0 0 1-3.836208 67.346772z" fill="#00F0FF" p-id="6041"></path><path d="M560.519147 494.870903l-26.000969-3.836209a14.492343 14.492343 0 0 1-11.508625-8.098662l-11.08238-23.869743-11.934872 23.869743a14.492343 14.492343 0 0 1-11.508625 8.098662l-26.000969 3.836209 19.181043 18.754797a15.344834 15.344834 0 0 1 4.262453 13.213607l-4.688699 26.000969 23.443497-12.361116a16.197325 16.197325 0 0 1 14.066098 0l23.443497 12.361116-4.262454-26.000969a15.344834 15.344834 0 0 1 4.262454-13.639852z" fill="#00F0FF" p-id="6042"></path></svg>