<?xml version="1.0" standalone="no"?><!DOCTYPE svg PUBLIC "-//W3C//DTD SVG 1.1//EN" "http://www.w3.org/Graphics/SVG/1.1/DTD/svg11.dtd"><svg t="1680766997523" class="icon" viewBox="0 0 1024 1024" version="1.1" xmlns="http://www.w3.org/2000/svg" p-id="5215" xmlns:xlink="http://www.w3.org/1999/xlink" width="200" height="200"><path d="M417.72694 998.692958l-281.32196-162.399495A187.547973 187.547973 0 0 1 43.057239 674.320214V349.521223a187.121728 187.121728 0 0 1 93.347741-161.97325L417.72694 25.148478a185.842992 185.842992 0 0 1 187.121728 0l281.321961 162.399495A186.269237 186.269237 0 0 1 980.797106 349.521223v324.798991a186.695483 186.695483 0 0 1-93.347741 161.973249l-281.32196 162.399495a187.974219 187.974219 0 0 1-188.400465 0z" fill="#00F0FF" p-id="5216"></path><path d="M417.72694 906.623953l-201.187826-116.364992a187.121728 187.121728 0 0 1-93.773986-161.97325V395.555726a186.695483 186.695483 0 0 1 93.773986-161.97325l201.187826-116.364993a187.974219 187.974219 0 0 1 187.121728 0l201.614072 116.364993a186.269237 186.269237 0 0 1 93.347741 161.97325v232.729985a186.695483 186.695483 0 0 1-93.347741 161.97325l-201.614072 116.364992a187.974219 187.974219 0 0 1-187.121728 0z" fill="#113E6B" p-id="5217"></path><path d="M759.149501 398.965689L518.320853 260.00969a20.033534 20.033534 0 0 0-17.902306 0L256.179936 399.81818a16.197325 16.197325 0 0 0 16.197325 28.132196l14.918589-8.524908v291.978095a16.197325 16.197325 0 0 0 15.771079 15.771079h409.195579a15.77108 15.77108 0 0 0 15.771079-15.771079V418.572977l14.918589 8.524908a16.197325 16.197325 0 0 0 16.197325-28.132196z m-93.773987 131.709827h-37.083349l23.017251 23.443496a17.049816 17.049816 0 0 1-24.295987 24.295988l-47.313239-47.739484h-51.149447v51.149447l47.739484 47.313239a17.049816 17.049816 0 0 1 4.688699 16.62357 17.902307 17.902307 0 0 1-12.361116 12.361117 19.181043 19.181043 0 0 1-17.049816-4.6887l-23.017251-23.017251v37.083349a16.62357 16.62357 0 0 1-17.049816 17.049816 17.049816 17.049816 0 0 1-17.476061-17.049816v-35.378367l-21.31227 21.312269a17.049816 17.049816 0 0 1-24.295987-24.295987l45.608257-45.182012v-53.280674h-42.624539l-47.313239 47.739484a17.902307 17.902307 0 0 1-24.295988 0 17.476061 17.476061 0 0 1 0-24.295988l23.443497-23.443496H357.200094a16.62357 16.62357 0 0 1-17.049815-17.049816 17.476061 17.476061 0 0 1 17.049815-17.476061h42.62454l-20.886024-20.886025a17.049816 17.049816 0 0 1-4.6887-16.62357 16.62357 16.62357 0 0 1 12.361117-12.361116 17.049816 17.049816 0 0 1 16.62357 4.262454l45.182012 45.608257h44.755766v-44.755767L448.416609 406.211861a17.476061 17.476061 0 0 1 0-24.295988 16.62357 16.62357 0 0 1 23.869742 0l21.31227 21.31227v-42.62454a17.476061 17.476061 0 0 1 34.525876 0V404.933124l23.443497-21.312269a17.476061 17.476061 0 0 1 29.410932 7.672417 17.049816 17.049816 0 0 1-4.688699 16.62357l-47.739484 47.313239v42.624539h53.280674l45.182012-45.608257a17.049816 17.049816 0 0 1 16.62357-4.262454 15.344834 15.344834 0 0 1 11.934871 12.361117 16.197325 16.197325 0 0 1-4.688699 16.62357l-20.886024 20.886024h35.378367a17.476061 17.476061 0 0 1 17.476062 17.476062 17.049816 17.049816 0 0 1-17.476062 15.344834z" fill="#00F0FF" p-id="5218"></path></svg>