<?xml version="1.0" standalone="no"?><!DOCTYPE svg PUBLIC "-//W3C//DTD SVG 1.1//EN" "http://www.w3.org/Graphics/SVG/1.1/DTD/svg11.dtd"><svg t="1680766993905" class="icon" viewBox="0 0 1024 1024" version="1.1" xmlns="http://www.w3.org/2000/svg" p-id="5079" xmlns:xlink="http://www.w3.org/1999/xlink" width="200" height="200"><path d="M417.72694 998.692958l-281.32196-162.399495A187.547973 187.547973 0 0 1 43.057239 674.320214V349.521223a187.121728 187.121728 0 0 1 93.347741-161.97325L417.72694 25.148478a185.842992 185.842992 0 0 1 187.121728 0l281.321961 162.399495A186.269237 186.269237 0 0 1 980.797106 349.521223v324.798991a186.695483 186.695483 0 0 1-93.347741 161.973249l-281.32196 162.399495a187.974219 187.974219 0 0 1-188.400465 0z" fill="#00F0FF" p-id="5080"></path><path d="M417.72694 906.623953l-201.187826-116.364992a187.121728 187.121728 0 0 1-93.773986-161.97325V395.555726a186.695483 186.695483 0 0 1 93.773986-161.97325l201.187826-116.364993a187.974219 187.974219 0 0 1 187.121728 0l201.614072 116.364993a186.269237 186.269237 0 0 1 93.347741 161.97325v232.729985a186.695483 186.695483 0 0 1-93.347741 161.97325l-201.614072 116.364992a187.974219 187.974219 0 0 1-187.121728 0z" fill="#113E6B" p-id="5081"></path><path d="M628.292165 526.413062h-102.298894v102.298894a102.298895 102.298895 0 1 0 102.298894-102.298894zM394.709689 292.830586a102.298895 102.298895 0 1 0 0 204.171544h101.872649V395.12948a104.003876 104.003876 0 0 0-101.872649-102.298894zM292.410795 628.285711a102.298895 102.298895 0 1 0 204.171543 0v-101.872649H394.709689a103.577631 103.577631 0 0 0-102.298894 101.872649zM730.164814 395.12948a102.298895 102.298895 0 1 0-204.171543 0v101.87265h102.298894a103.577631 103.577631 0 0 0 101.872649-101.87265z" fill="#00F0FF" p-id="5082"></path></svg>