<svg xmlns="http://www.w3.org/2000/svg" viewBox="0 0 22.05 16"><defs><style>.cls-1{fill:#fff;}.cls-2{stroke:#fff;stroke-linecap:round;stroke-linejoin:round;stroke-width:0.5px;}</style></defs><g id="图层_2" data-name="图层 2"><g id="图层_1-2" data-name="图层 1"><path class="cls-1" d="M6.69,2.34A8,8,0,1,0,18,2.34,8,8,0,0,0,6.69,2.34ZM17.46,13.11a7.23,7.23,0,1,1,0-10.22A7.25,7.25,0,0,1,17.46,13.11Z"/><path class="cls-2" d="M21.8,11.17h-.69l-.45,1.57-16.61.2C3.23,11.26.25,11.36.25,8h3l.6-2.54h1L5.5,3H6.87L6.55,1.58H6.21v-1H8.56v1h5.15v.4h-.2V2l.16,1,6.74-.05.24,1.76h.77V6.6h-.76l.15,1.58,1,.07ZM16,4.72h2V6.18H16Zm-4.61,0h2V6.18h-2ZM7,4.72H9V6.18H7Zm9,2.39h2V8.57H16Zm-4.61,0h2V8.57h-2ZM7,7.11H9V8.57H7Z"/><path class="cls-1" d="M19.71,9.64a2.11,2.11,0,0,1-1.11-.3,1.78,1.78,0,0,0-1-.28,1.82,1.82,0,0,0-1,.28,2.2,2.2,0,0,1-2.22,0,1.82,1.82,0,0,0-1-.28,1.78,1.78,0,0,0-1,.28,2.11,2.11,0,0,1-1.11.3,2.05,2.05,0,0,1-1.11-.3,2,2,0,0,0-2,0A2.08,2.08,0,0,1,7,9.64a2.11,2.11,0,0,1-1.11-.3,1.81,1.81,0,0,0-1-.28,1.82,1.82,0,0,0-1,.28,2.11,2.11,0,0,1-1.11.3,2.08,2.08,0,0,1-1.11-.3,1.82,1.82,0,0,0-1-.28C.58,9.06.5,8.94.5,8.8s.08-.26.16-.26a2.08,2.08,0,0,1,1.11.3,1.81,1.81,0,0,0,1,.29,1.84,1.84,0,0,0,1-.29,2.05,2.05,0,0,1,1.11-.3,2,2,0,0,1,1.1.3,1.84,1.84,0,0,0,1,.29,1.81,1.81,0,0,0,1-.29,2.08,2.08,0,0,1,1.11-.3,2.11,2.11,0,0,1,1.11.3,1.81,1.81,0,0,0,1,.29,1.77,1.77,0,0,0,1-.29,2.11,2.11,0,0,1,1.11-.3,2.08,2.08,0,0,1,1.11.3,1.9,1.9,0,0,0,2,0,2.08,2.08,0,0,1,1.11-.3,2.11,2.11,0,0,1,1.11.3,1.77,1.77,0,0,0,1,.29,1.81,1.81,0,0,0,1-.29,2.11,2.11,0,0,1,1.11-.3c.09,0,.16.12.16.26s-.07.26-.16.26a1.84,1.84,0,0,0-1,.28,2.05,2.05,0,0,1-1.11.3Z"/><path class="cls-1" d="M19.25,12.09a1.72,1.72,0,0,1-1-.3,1.56,1.56,0,0,0-.91-.29,1.51,1.51,0,0,0-.91.29,1.77,1.77,0,0,1-1,.3,1.74,1.74,0,0,1-1-.3,1.56,1.56,0,0,0-.91-.29,1.53,1.53,0,0,0-.91.29,1.82,1.82,0,0,1-2,0,1.51,1.51,0,0,0-.91-.29,1.56,1.56,0,0,0-.91.29,1.72,1.72,0,0,1-1,.3,1.77,1.77,0,0,1-1-.3,1.56,1.56,0,0,0-1.81,0,1.77,1.77,0,0,1-1,.3,1.72,1.72,0,0,1-1-.3,1.56,1.56,0,0,0-.91-.29c-.08,0-.15-.11-.15-.25S2,11,2.07,11a1.77,1.77,0,0,1,1,.3,1.56,1.56,0,0,0,1.81,0,1.77,1.77,0,0,1,1-.3,1.72,1.72,0,0,1,1,.3,1.56,1.56,0,0,0,.91.29,1.51,1.51,0,0,0,.91-.29,1.77,1.77,0,0,1,1-.3,1.72,1.72,0,0,1,1,.3,1.56,1.56,0,0,0,.91.29,1.51,1.51,0,0,0,.91-.29,1.82,1.82,0,0,1,2,0,1.51,1.51,0,0,0,.91.29,1.56,1.56,0,0,0,.91-.29,1.72,1.72,0,0,1,1-.3,1.77,1.77,0,0,1,1,.3,1.56,1.56,0,0,0,1.81,0,1.77,1.77,0,0,1,1-.3c.08,0,.15.11.15.26s-.07.25-.15.25a1.5,1.5,0,0,0-.9.29,1.63,1.63,0,0,1-1,.3Z"/></g></g></svg>