<svg xmlns="http://www.w3.org/2000/svg" viewBox="0 0 22.05 12.87"><defs><style>.cls-1{fill:#46ccff;stroke:#000;stroke-linecap:round;stroke-linejoin:round;stroke-width:0.5px;}</style></defs><g id="图层_2" data-name="图层 2"><g id="图层_1-2" data-name="图层 1"><path class="cls-1" d="M21.8,10.85h-.69l-.45,1.57-16.61.2C3.23,10.94.25,11,.25,7.71h3l.6-2.54h1l.6-2.54H6.87L6.55,1.26H6.21v-1H8.56v1h5.15v.4h-.2v0l.16,1,6.74,0,.24,1.76h.77v2h-.76l.15,1.58,1,.08ZM16,4.4h2V5.86H16Zm-4.61,0h2V5.86h-2ZM7,4.4H9V5.86H7Zm9,2.39h2V8.25H16Zm-4.61,0h2V8.25h-2ZM7,6.79H9V8.25H7Z"/></g></g></svg>