<svg xmlns="http://www.w3.org/2000/svg" viewBox="0 0 22.05 12.87"><defs><style>.cls-1{fill:#28e29a;stroke:#000;stroke-linecap:round;stroke-linejoin:round;stroke-width:0.5px;}</style></defs><g id="图层_2" data-name="图层 2"><g id="图层_1-2" data-name="图层 1"><path class="cls-1" d="M21.8,10.85h-.69l-.45,1.57-16.61.2C3.23,10.94.25,11,.25,7.71h3l.6-2.54h1l.6-2.54H6.87L6.55,1.26H6.21v-1H8.56v1h5.15v.4h-.2v0l.16,1,6.74,0,.24,1.76h.77v2h-.76l.15,1.58,1,.08ZM16,4.4h2V5.86H16Zm-4.61,0h2V5.86h-2ZM7,4.4H9V5.86H7Zm9,2.39h2V8.25H16Zm-4.61,0h2V8.25h-2ZM7,6.79H9V8.25H7Z"/><path d="M19.49,9.25a2.1,2.1,0,0,1-1.11-.31,1.94,1.94,0,0,0-2,0,2.1,2.1,0,0,1-1.11.31,2.07,2.07,0,0,1-1.11-.31,2,2,0,0,0-2,0,2.12,2.12,0,0,1-2.21,0,1.84,1.84,0,0,0-1-.28,1.82,1.82,0,0,0-1,.28,2.14,2.14,0,0,1-2.22,0,1.82,1.82,0,0,0-1-.28,1.78,1.78,0,0,0-1,.28,2.1,2.1,0,0,1-1.11.31,2,2,0,0,1-1.11-.31,1.84,1.84,0,0,0-1-.28c-.09,0-.16-.12-.16-.26s.07-.26.16-.26a2.11,2.11,0,0,1,1.11.3,1.73,1.73,0,0,0,1,.29,1.7,1.7,0,0,0,1-.29,2.11,2.11,0,0,1,1.11-.3,2.08,2.08,0,0,1,1.11.3,1.76,1.76,0,0,0,1,.29,1.76,1.76,0,0,0,1-.29,2.08,2.08,0,0,1,1.11-.3,2.11,2.11,0,0,1,1.11.3,1.89,1.89,0,0,0,2,0,2.11,2.11,0,0,1,1.11-.3,2.08,2.08,0,0,1,1.11.3,1.73,1.73,0,0,0,1,.29,1.76,1.76,0,0,0,1-.29,2.19,2.19,0,0,1,2.21,0,1.76,1.76,0,0,0,1,.29,1.73,1.73,0,0,0,1-.29,2.08,2.08,0,0,1,1.11-.3c.08,0,.16.12.16.26s-.08.26-.16.26a1.82,1.82,0,0,0-1,.28,2.07,2.07,0,0,1-1.11.31Z"/><path d="M19,11.69a1.77,1.77,0,0,1-1-.3,1.6,1.6,0,0,0-1.81,0,1.77,1.77,0,0,1-1,.3,1.72,1.72,0,0,1-1-.3,1.56,1.56,0,0,0-.91-.28,1.51,1.51,0,0,0-.91.28,1.77,1.77,0,0,1-1,.3,1.74,1.74,0,0,1-1-.3,1.62,1.62,0,0,0-1.82,0,1.82,1.82,0,0,1-2,0,1.51,1.51,0,0,0-.91-.28,1.56,1.56,0,0,0-.91.28,1.72,1.72,0,0,1-1,.3,1.77,1.77,0,0,1-1-.3,1.51,1.51,0,0,0-.91-.28c-.07,0-.14-.12-.14-.26s.07-.26.14-.26a1.72,1.72,0,0,1,1,.3,1.49,1.49,0,0,0,.91.29,1.44,1.44,0,0,0,.91-.29,1.77,1.77,0,0,1,1-.3,1.72,1.72,0,0,1,1,.3,1.49,1.49,0,0,0,.91.29,1.44,1.44,0,0,0,.91-.29,1.82,1.82,0,0,1,2,0,1.44,1.44,0,0,0,.91.29,1.49,1.49,0,0,0,.91-.29,1.72,1.72,0,0,1,1-.3,1.77,1.77,0,0,1,1,.3,1.56,1.56,0,0,0,1.81,0,1.77,1.77,0,0,1,1-.3,1.72,1.72,0,0,1,1,.3,1.49,1.49,0,0,0,.91.29,1.44,1.44,0,0,0,.91-.29,1.77,1.77,0,0,1,1-.3c.08,0,.15.12.15.26s-.07.26-.15.26a1.56,1.56,0,0,0-.91.28,1.58,1.58,0,0,1-1,.3Z"/></g></g></svg>