<svg xmlns="http://www.w3.org/2000/svg" viewBox="0 0 22.05 16"><defs><style>.cls-1,.cls-2{fill:#28e29a;}.cls-2{stroke:#000;stroke-linecap:round;stroke-linejoin:round;stroke-width:0.5px;}</style></defs><g id="图层_2" data-name="图层 2"><g id="图层_1-2" data-name="图层 1"><path class="cls-1" d="M6.84,2.34a8,8,0,1,0,11.32,0A8,8,0,0,0,6.84,2.34ZM17.61,13.11a7.23,7.23,0,1,1,0-10.22A7.25,7.25,0,0,1,17.61,13.11Z"/><path class="cls-2" d="M21.8,11.18h-.69l-.45,1.57L4.05,13C3.23,11.26.25,11.36.25,8h3l.6-2.54h1L5.5,3H6.87L6.55,1.59H6.21v-1H8.56v1h5.15v.4h-.2V2l.16,1,6.74,0,.24,1.76h.77v2h-.76l.15,1.58,1,.07ZM16,4.73h2V6.19H16Zm-4.61,0h2V6.19h-2ZM7,4.73H9V6.19H7Zm9,2.38h2V8.58H16Zm-4.61,0h2V8.58h-2ZM7,7.11H9V8.58H7Z"/></g></g></svg>