<svg xmlns="http://www.w3.org/2000/svg" viewBox="0 0 22.05 16"><defs><style>.cls-1,.cls-2{fill:#28e29a;}.cls-2{stroke:#000;stroke-linecap:round;stroke-linejoin:round;stroke-width:0.5px;}</style></defs><g id="图层_2" data-name="图层 2"><g id="图层_1-2" data-name="图层 1"><path class="cls-1" d="M6.69,2.34A8,8,0,1,0,18,2.34,8,8,0,0,0,6.69,2.34ZM17.46,13.11a7.23,7.23,0,1,1,0-10.22A7.25,7.25,0,0,1,17.46,13.11Z"/><path class="cls-2" d="M21.8,11.18h-.69l-.45,1.57L4.05,13C3.23,11.26.25,11.36.25,8h3l.6-2.54h1L5.5,3H6.87L6.55,1.59H6.21v-1H8.56v1h5.15v.4h-.2V2l.16,1,6.74,0,.24,1.76h.77v2h-.76l.15,1.58,1,.07ZM16,4.73h2V6.19H16Zm-4.61,0h2V6.19h-2ZM7,4.73H9V6.19H7Zm9,2.38h2V8.58H16Zm-4.61,0h2V8.58h-2ZM7,7.11H9V8.58H7Z"/><path d="M19.49,9.57a2.11,2.11,0,0,1-1.11-.3,1.89,1.89,0,0,0-2,0,2.11,2.11,0,0,1-1.11.3,2.08,2.08,0,0,1-1.11-.3,1.9,1.9,0,0,0-2,0,2.19,2.19,0,0,1-2.21,0,1.84,1.84,0,0,0-1-.29,1.81,1.81,0,0,0-1,.29,2.2,2.2,0,0,1-2.22,0,1.81,1.81,0,0,0-1-.29,1.77,1.77,0,0,0-1,.29,2.11,2.11,0,0,1-1.11.3,2.05,2.05,0,0,1-1.11-.3A1.84,1.84,0,0,0,.44,9C.35,9,.28,8.87.28,8.73s.07-.26.16-.26a2.11,2.11,0,0,1,1.11.3,1.82,1.82,0,0,0,1,.28,1.78,1.78,0,0,0,1-.28,2.11,2.11,0,0,1,1.11-.3,2.08,2.08,0,0,1,1.11.3,2,2,0,0,0,2,0,2.08,2.08,0,0,1,1.11-.3,2.11,2.11,0,0,1,1.11.3,1.94,1.94,0,0,0,2,0,2.11,2.11,0,0,1,1.11-.3,2.08,2.08,0,0,1,1.11.3,1.82,1.82,0,0,0,1,.28,1.84,1.84,0,0,0,1-.28,2.19,2.19,0,0,1,2.21,0,1.84,1.84,0,0,0,1,.28,1.82,1.82,0,0,0,1-.28,2.08,2.08,0,0,1,1.11-.3c.08,0,.16.11.16.26s-.08.25-.16.25a1.81,1.81,0,0,0-1,.29,2.08,2.08,0,0,1-1.11.3Z"/><path d="M19,12a1.77,1.77,0,0,1-1-.3,1.56,1.56,0,0,0-1.81,0,1.77,1.77,0,0,1-1,.3,1.72,1.72,0,0,1-1-.3,1.49,1.49,0,0,0-.91-.29,1.44,1.44,0,0,0-.91.29,1.77,1.77,0,0,1-1,.3,1.74,1.74,0,0,1-1-.3,1.57,1.57,0,0,0-1.82,0,1.82,1.82,0,0,1-2,0,1.44,1.44,0,0,0-.91-.29,1.49,1.49,0,0,0-.91.29,1.72,1.72,0,0,1-1,.3,1.77,1.77,0,0,1-1-.3,1.44,1.44,0,0,0-.91-.29c-.07,0-.14-.11-.14-.26s.07-.25.14-.25a1.72,1.72,0,0,1,1,.3,1.56,1.56,0,0,0,.91.28,1.51,1.51,0,0,0,.91-.28,1.77,1.77,0,0,1,1-.3,1.72,1.72,0,0,1,1,.3,1.56,1.56,0,0,0,.91.28,1.51,1.51,0,0,0,.91-.28,1.82,1.82,0,0,1,2,0,1.51,1.51,0,0,0,.91.28,1.56,1.56,0,0,0,.91-.28,1.72,1.72,0,0,1,1-.3,1.77,1.77,0,0,1,1,.3,1.6,1.6,0,0,0,1.81,0,1.77,1.77,0,0,1,1-.3,1.72,1.72,0,0,1,1,.3,1.56,1.56,0,0,0,.91.28,1.51,1.51,0,0,0,.91-.28,1.77,1.77,0,0,1,1-.3c.08,0,.15.11.15.25s-.07.26-.15.26a1.49,1.49,0,0,0-.91.29,1.58,1.58,0,0,1-1,.3Z"/></g></g></svg>