<svg xmlns="http://www.w3.org/2000/svg" viewBox="0 0 22.05 16"><defs><style>.cls-1,.cls-2{fill:#ff00ea;}.cls-2{stroke:#000;stroke-linecap:round;stroke-linejoin:round;stroke-width:0.5px;}</style></defs><g id="图层_2" data-name="图层 2"><g id="图层_1-2" data-name="图层 1"><path class="cls-1" d="M6.69,2.34A8,8,0,1,0,18,2.34,8,8,0,0,0,6.69,2.34ZM17.46,13.11a7.23,7.23,0,1,1,0-10.22A7.25,7.25,0,0,1,17.46,13.11Z"/><path class="cls-2" d="M21.8,11.45h-.69L20.66,13l-16.61.2C3.23,11.53.25,11.63.25,8.31h3l.6-2.54h1l.6-2.54H6.87L6.55,1.86H6.21v-1H8.56v1h5.15v.4h-.2v0l.16,1,6.74,0,.24,1.76h.77v2h-.76l.15,1.58,1,.07ZM16,5h2V6.46H16ZM11.35,5h2V6.46h-2ZM7,5H9V6.46H7Zm9,2.39h2V8.85H16Zm-4.61,0h2V8.85h-2ZM7,7.38H9V8.85H7Z"/><path d="M19.44,9.86a2.07,2.07,0,0,1-1.11-.31,2,2,0,0,0-2,0,2.07,2.07,0,0,1-1.11.31,2.1,2.1,0,0,1-1.11-.31,1.94,1.94,0,0,0-2,0A2.1,2.1,0,0,1,11,9.86a2.07,2.07,0,0,1-1.11-.31,1.82,1.82,0,0,0-1-.28,1.84,1.84,0,0,0-1,.28,2.12,2.12,0,0,1-2.21,0,1.84,1.84,0,0,0-1-.28,1.82,1.82,0,0,0-1,.28,2.07,2.07,0,0,1-1.11.31,2.1,2.1,0,0,1-1.11-.31,1.82,1.82,0,0,0-1-.28C.3,9.27.23,9.15.23,9s.07-.26.15-.26a2,2,0,0,1,1.11.31,1.84,1.84,0,0,0,1,.28,1.82,1.82,0,0,0,1-.28,2.07,2.07,0,0,1,1.11-.31,2.1,2.1,0,0,1,1.11.31,1.82,1.82,0,0,0,1,.28,1.81,1.81,0,0,0,1-.28,2.1,2.1,0,0,1,1.11-.31A2.07,2.07,0,0,1,10,9.06a2,2,0,0,0,2,0,2,2,0,0,1,1.11-.31,2.1,2.1,0,0,1,1.11.31,1.78,1.78,0,0,0,1,.28,1.82,1.82,0,0,0,1-.28,2.14,2.14,0,0,1,2.22,0,1.82,1.82,0,0,0,1,.28,1.78,1.78,0,0,0,1-.28,2.1,2.1,0,0,1,1.11-.31c.09,0,.16.12.16.26s-.07.26-.16.26a1.78,1.78,0,0,0-1,.28,2.1,2.1,0,0,1-1.11.31Z"/><path d="M19,12.31A1.74,1.74,0,0,1,18,12a1.62,1.62,0,0,0-1.82,0,1.77,1.77,0,0,1-2,0,1.51,1.51,0,0,0-.91-.28,1.56,1.56,0,0,0-.91.28,1.71,1.71,0,0,1-1,.31,1.76,1.76,0,0,1-1-.31,1.6,1.6,0,0,0-1.81,0,1.76,1.76,0,0,1-1,.31,1.71,1.71,0,0,1-1-.31,1.56,1.56,0,0,0-.91-.28A1.51,1.51,0,0,0,4.7,12a1.77,1.77,0,0,1-2,0,1.53,1.53,0,0,0-.91-.28c-.08,0-.14-.12-.14-.26s.06-.26.14-.26a1.74,1.74,0,0,1,1,.31,1.51,1.51,0,0,0,.91.28,1.56,1.56,0,0,0,.91-.28,1.71,1.71,0,0,1,1-.31,1.76,1.76,0,0,1,1,.31,1.51,1.51,0,0,0,.91.28,1.56,1.56,0,0,0,.91-.28,1.75,1.75,0,0,1,2,0,1.56,1.56,0,0,0,.91.28,1.51,1.51,0,0,0,.91-.28,1.76,1.76,0,0,1,1-.31,1.71,1.71,0,0,1,1,.31,1.56,1.56,0,0,0,.91.28,1.51,1.51,0,0,0,.91-.28,1.77,1.77,0,0,1,2,0,1.51,1.51,0,0,0,.91.28,1.56,1.56,0,0,0,.91-.28,1.71,1.71,0,0,1,1-.31c.08,0,.14.12.14.26s-.06.26-.14.26A1.51,1.51,0,0,0,20,12a1.54,1.54,0,0,1-1,.31Z"/></g></g></svg>