<svg xmlns="http://www.w3.org/2000/svg" viewBox="0 0 22.05 16"><defs><style>.cls-1,.cls-2{fill:#ff00ea;}.cls-2{stroke:#000;stroke-linecap:round;stroke-linejoin:round;stroke-width:0.5px;}</style></defs><g id="图层_2" data-name="图层 2"><g id="图层_1-2" data-name="图层 1"><path class="cls-1" d="M6.84,2.34a8,8,0,1,0,11.32,0A8,8,0,0,0,6.84,2.34ZM17.61,13.11a7.23,7.23,0,1,1,0-10.22A7.25,7.25,0,0,1,17.61,13.11Z"/><path class="cls-2" d="M21.8,11.45h-.69L20.66,13l-16.61.2C3.23,11.53.25,11.63.25,8.31h3l.6-2.54h1l.6-2.54H6.87L6.55,1.86H6.21v-1H8.56v1h5.15v.4h-.2v0l.16,1,6.74,0,.24,1.76h.77v2h-.76l.15,1.58,1,.07ZM16,5h2V6.46H16ZM11.35,5h2V6.46h-2ZM7,5H9V6.46H7Zm9,2.39h2V8.85H16Zm-4.61,0h2V8.85h-2ZM7,7.38H9V8.85H7Z"/></g></g></svg>