<svg xmlns="http://www.w3.org/2000/svg" viewBox="0 0 22.05 16"><defs><style>.cls-1,.cls-2{fill:#ff2f25;}.cls-2{stroke:#000;stroke-miterlimit:10;stroke-width:0.5px;}</style></defs><g id="图层_2" data-name="图层 2"><g id="图层_1-2" data-name="图层 1"><path class="cls-1" d="M6.84,2.34a8,8,0,1,0,11.32,0A8,8,0,0,0,6.84,2.34ZM17.61,13.11a7.23,7.23,0,1,1,0-10.22A7.25,7.25,0,0,1,17.61,13.11Z"/><path class="cls-2" d="M21.8,11h-.69l-.45,1.57-16.61.2c-.82-1.68-3.8-1.58-3.8-4.9h3l.6-2.54h1l.6-2.54H6.87L6.55,1.44H6.21v-1H8.56v1h5.15v.4h-.2v0l.16,1,6.74-.05.24,1.76h.77v2h-.76L20.82,8l1,.07ZM16,4.57h2V6H16Zm-4.61,0h2V6h-2ZM7,4.57H9V6H7ZM16,7h2V8.42H16ZM11.35,7h2V8.42h-2ZM7,7H9V8.42H7Z"/></g></g></svg>