<svg xmlns="http://www.w3.org/2000/svg" viewBox="0 0 22.05 16"><defs><style>.cls-1,.cls-2{fill:#f4fb34;}.cls-2{stroke:#000;stroke-linecap:round;stroke-linejoin:round;stroke-width:0.5px;}</style></defs><g id="图层_2" data-name="图层 2"><g id="图层_1-2" data-name="图层 1"><path class="cls-1" d="M6.84,2.34a8,8,0,1,0,11.32,0A8,8,0,0,0,6.84,2.34ZM17.61,13.11a7.23,7.23,0,1,1,0-10.22A7.25,7.25,0,0,1,17.61,13.11Z"/><path class="cls-2" d="M21.8,11.37h-.69l-.45,1.57-16.61.2C3.23,11.46.25,11.56.25,8.23h3l.6-2.54h1l.6-2.54H6.87L6.55,1.78H6.21v-1H8.56v1h5.15v.4h-.2v0l.16,1,6.74,0,.24,1.75h.77V6.81h-.76l.15,1.57,1,.08ZM16,4.92h2V6.38H16Zm-4.61,0h2V6.38h-2ZM7,4.92H9V6.38H7Zm9,2.39h2V8.77H16Zm-4.61,0h2V8.77h-2ZM7,7.31H9V8.77H7Z"/></g></g></svg>