<svg xmlns="http://www.w3.org/2000/svg" viewBox="0 0 22.19 14.35"><defs><style>.cls-1{fill:#ff2f25;fill-rule:evenodd;}.cls-2{fill:none;stroke:#000;stroke-miterlimit:10;stroke-width:0.5px;}</style></defs><g id="图层_2" data-name="图层 2"><g id="图层_1-2" data-name="图层 1"><path class="cls-1" d="M20.69,7.86H18.27l0-.59h0l-.1-4.22H16.31l.07,2.79H15L15,3.05H13.18l.06,2.79h-.38c-1.25,0-1.26-1.36-1.26-1.6,0,0-.24-1.19-1.25-1.19H9.82V1c0-.43-.26-.79-.57-.79H7.13c-.31,0-.57.36-.57.79v2H4.66c-.28,0-1.25.37-1.25,1.19V7.86H1.5A1.22,1.22,0,0,0,.25,9l2,3.88c.3,1,2.23,1.18,2.5,1.18H15.94a2.71,2.71,0,0,0,2.5-1.18L21.93,9A1.14,1.14,0,0,0,20.69,7.86Z"/><path class="cls-2" d="M20.69,7.86H18.27l0-.59h0l-.1-4.22H16.31l.07,2.79H15L15,3.05H13.18l.06,2.79h-.38c-1.25,0-1.26-1.36-1.26-1.6,0,0-.24-1.19-1.25-1.19H9.82V1c0-.43-.26-.79-.57-.79H7.13c-.31,0-.57.36-.57.79v2H4.66c-.28,0-1.25.37-1.25,1.19V7.86H1.5A1.22,1.22,0,0,0,.25,9l2,3.88c.3,1,2.23,1.18,2.5,1.18H15.94a2.71,2.71,0,0,0,2.5-1.18L21.93,9A1.14,1.14,0,0,0,20.69,7.86Z"/></g></g></svg>