<svg xmlns="http://www.w3.org/2000/svg" viewBox="0 0 22.39 16.44"><defs><style>.cls-1{fill:#f4fb34;}.cls-2{fill:none;stroke:#000;stroke-linecap:round;stroke-linejoin:round;stroke-width:0.5px;}</style></defs><g id="图层_2" data-name="图层 2"><g id="图层_1-2" data-name="图层 1"><path class="cls-1" d="M21.67,8.26,17.78,7.7V1.56A1.68,1.68,0,0,0,16.46.25h-4A1.29,1.29,0,0,0,11.2,1.56V6.3a4,4,0,0,1-.06.45L8.58,6.38V2.88A1.72,1.72,0,0,0,7.25,1.56H5.94A1.46,1.46,0,0,0,4.62,2.88V5.82L1,5.29a.6.6,0,0,0-.54.18A.56.56,0,0,0,.27,6L3.19,15.7a.61.61,0,0,0,.57.44l17.8.05a.59.59,0,0,0,.58-.59V9C22.14,8.7,22,8.31,21.67,8.26Z"/><path class="cls-2" d="M21.67,8.26,17.78,7.7V1.56A1.68,1.68,0,0,0,16.46.25h-4A1.29,1.29,0,0,0,11.2,1.56V6.3a4,4,0,0,1-.06.45L8.58,6.38V2.88A1.72,1.72,0,0,0,7.25,1.56H5.94A1.46,1.46,0,0,0,4.62,2.88V5.82L1,5.29a.6.6,0,0,0-.54.18A.56.56,0,0,0,.27,6L3.19,15.7a.61.61,0,0,0,.57.44l17.8.05a.59.59,0,0,0,.58-.59V9C22.14,8.7,22,8.31,21.67,8.26Z"/></g></g></svg>