<svg xmlns="http://www.w3.org/2000/svg" viewBox="0 0 21.88 15.62"><defs><style>.cls-1,.cls-3{fill:#f4fb34;}.cls-1{fill-rule:evenodd;}.cls-2{fill:none;stroke:#000;stroke-linecap:round;stroke-linejoin:round;stroke-width:0.5px;}</style></defs><g id="图层_2" data-name="图层 2"><g id="图层_1-2" data-name="图层 1"><path class="cls-1" d="M20.78,10h-5.6V5.65A.66.66,0,0,0,14.52,5H9.36a.66.66,0,0,0-.66.66V10H5.46V4.84L8.7,2.41,4.38.25V10H1.1a.85.85,0,0,0-.73,1.29L2.59,15a.85.85,0,0,0,.73.41H18.56a.85.85,0,0,0,.73-.41l2.22-3.7A.85.85,0,0,0,20.78,10Z"/><path class="cls-2" d="M20.78,10h-5.6V5.65A.66.66,0,0,0,14.52,5H9.36a.66.66,0,0,0-.66.66V10H5.46V4.84L8.7,2.41,4.38.25V10H1.1a.85.85,0,0,0-.73,1.29L2.59,15a.85.85,0,0,0,.73.41H18.56a.85.85,0,0,0,.73-.41l2.22-3.7A.85.85,0,0,0,20.78,10Z"/><rect class="cls-3" x="10.37" y="7.67" width="3.13" height="2.34" rx="0.25"/><path d="M13.26,7.92V9.76H10.62V7.92h2.64m0-.5H10.62a.51.51,0,0,0-.5.5V9.76a.5.5,0,0,0,.5.5h2.64a.5.5,0,0,0,.5-.5V7.92a.51.51,0,0,0-.5-.5Z"/></g></g></svg>