<svg xmlns="http://www.w3.org/2000/svg" viewBox="0 0 21.88 15.78"><defs><style>.cls-1,.cls-3{fill:#ff7300;}.cls-1{fill-rule:evenodd;}.cls-2{fill:none;stroke:#000;stroke-miterlimit:10;stroke-width:0.5px;}</style></defs><g id="图层_2" data-name="图层 2"><g id="图层_1-2" data-name="图层 1"><path class="cls-1" d="M20.78,10.13h-5.6V5.81a.65.65,0,0,0-.66-.66H9.36a.65.65,0,0,0-.66.66v4.32H5.46V5L8.7,2.57,4.38.4v9.73H1.1a.85.85,0,0,0-.73,1.29l2.22,3.7a.87.87,0,0,0,.73.41H18.56a.87.87,0,0,0,.73-.41l2.22-3.7A.85.85,0,0,0,20.78,10.13Z"/><path class="cls-2" d="M20.78,10.13h-5.6V5.81a.65.65,0,0,0-.66-.66H9.36a.65.65,0,0,0-.66.66v4.32H5.46V5L8.7,2.57,4.38.4v9.73H1.1a.85.85,0,0,0-.73,1.29l2.22,3.7a.87.87,0,0,0,.73.41H18.56a.87.87,0,0,0,.73-.41l2.22-3.7A.85.85,0,0,0,20.78,10.13Z"/><rect class="cls-3" x="10.37" y="7.84" width="3.13" height="2.34"/><path d="M13.26,8.09V9.93H10.62V8.09h2.64m.5-.5H10.12v2.84h3.64V7.59Z"/></g></g></svg>