<svg xmlns="http://www.w3.org/2000/svg" viewBox="0 0 22.42 14.52"><defs><style>.cls-1{fill:#f4fb34;}</style></defs><g id="图层_2" data-name="图层 2"><g id="图层_1-2" data-name="图层 1"><path class="cls-1" d="M1.76,14.27a.22.22,0,0,1-.21-.12A21.83,21.83,0,0,1,.26,10.94V7.19A.25.25,0,0,1,.5,6.94H3.57a.25.25,0,0,1,.25.25V9.83H6.63L7.28.48A.25.25,0,0,1,7.53.25h.72A.25.25,0,0,1,8.5.49l.06,1.27h4.32a.25.25,0,0,1,.25.25v.41a.25.25,0,0,1-.24.25l-.65,0v.4h.3a.25.25,0,0,1,.25.25v.36a.25.25,0,0,1-.25.25H10.28A.25.25,0,0,1,10,3.72V3.36a.25.25,0,0,1,.25-.25h.17v-.3l-1.88.11.24,6.91h1.9V7.19A.25.25,0,0,1,11,6.94h2.9a.25.25,0,0,1,.25.25l0,2.64h1.64l1.43-1a.23.23,0,0,1,.14,0h4.56a.26.26,0,0,1,.22.13.25.25,0,0,1,0,.25,13,13,0,0,1-2.57,2.87l-.58.53a.36.36,0,0,0,0,.27.18.18,0,0,0,.11.13l.73.12a.25.25,0,0,1,.19.17.69.69,0,0,1-.43,1,.15.15,0,0,1-.09,0Z"/><path d="M8.25.5,8.32,2h4.56v.41L12,2.47l0,.89h.56v.36H10.28V3.36h.41l0-.82-2.4.14.26,7.4H11V7.19h2.9l0,2.89h1.95l1.5-1h4.56a16.21,16.21,0,0,1-3.11,3.35c-.22.33-.17.66.14.81l.78.14c.15.43,0,.57-.28.66H1.76A22,22,0,0,1,.5,10.86V7.19H3.57v2.89H6.86L7.53.5h.72m0-.5H7.53A.5.5,0,0,0,7,.47L6.39,9.58H4.07V7.19a.5.5,0,0,0-.5-.5H.5a.5.5,0,0,0-.5.5v3.67A.78.78,0,0,0,0,11a24,24,0,0,0,1.31,3.27.52.52,0,0,0,.43.23H19.45a.63.63,0,0,0,.19,0,1,1,0,0,0,.57-1.29.51.51,0,0,0-.39-.33l-.63-.12v0l.53-.48a13,13,0,0,0,2.62-2.92.52.52,0,0,0,0-.51.49.49,0,0,0-.43-.25H17.36a.54.54,0,0,0-.28.08l-.75.52-.62.42H14.4l0-2.4a.51.51,0,0,0-.5-.49H11a.5.5,0,0,0-.5.5V9.58H9.07L8.84,3.15l1-.06a.6.6,0,0,0-.07.27v.36a.5.5,0,0,0,.5.5h2.25a.5.5,0,0,0,.5-.5V3.36a.52.52,0,0,0-.24-.43h.12a.5.5,0,0,0,.47-.5V2a.51.51,0,0,0-.5-.5H8.8l-.05-1A.51.51,0,0,0,8.25,0Z"/><circle class="cls-1" cx="18.2" cy="10.61" r="0.54"/><path d="M18.2,10.33a.29.29,0,0,1,0,.57.29.29,0,1,1,0-.57m0-.5a.78.78,0,0,0-.79.78.79.79,0,0,0,.79.79.78.78,0,0,0,.78-.79.77.77,0,0,0-.78-.78Z"/></g></g></svg>