<svg xmlns="http://www.w3.org/2000/svg" viewBox="0 0 22.81 14.52"><defs><style>.cls-1{fill:#ff2f25;}</style></defs><g id="图层_2" data-name="图层 2"><g id="图层_1-2" data-name="图层 1"><path class="cls-1" d="M1.62,14.27l-.07-.12A21.83,21.83,0,0,1,.26,10.94v-4H3.82V9.83H6.63L7.3.25H8.49l.07,1.51h4.57v.9l-.89,0v.4h.55V4H10V3.11h.42v-.3l-1.88.11.24,6.91h1.9V6.94h3.39l0,2.89h1.64l.69-.47.74-.51.06,0h5.08l-.23.38a13,13,0,0,1-2.57,2.87l-.58.53a.36.36,0,0,0,0,.27.18.18,0,0,0,.11.13l.87.15,0,.14a.69.69,0,0,1-.43,1l0,0Z"/><path d="M8.25.5,8.32,2h4.56v.41L12,2.47l0,.89h.56v.36H10.28V3.36h.41l0-.82-2.4.14.26,7.4H11V7.19h2.9l0,2.89h1.95l1.5-1h4.56a16.21,16.21,0,0,1-3.11,3.35c-.22.33-.17.66.14.81l.78.14c.15.43,0,.57-.28.66H1.76A22,22,0,0,1,.5,10.86V7.19H3.57v2.89H6.86L7.53.5h.72M8.72,0H7.06L7,.47,6.39,9.58H4.07V6.69H0v4.25L0,11a24,24,0,0,0,1.31,3.27l.15.23H19.55l.09,0a1,1,0,0,0,.57-1.29l-.1-.28-.29-.05-.63-.12v0l.53-.48a13,13,0,0,0,2.62-2.92l.46-.76h-5.6l-.13.08-.75.52-.62.42H14.4l0-2.4V6.69H10.47V9.58H9.07L8.84,3.15l.94,0V4.22H13V2.92l.35,0V1.51H8.8l-.05-1,0-.48Z"/><circle class="cls-1" cx="18.2" cy="10.61" r="0.54"/><path d="M18.2,10.33a.29.29,0,0,1,0,.57.29.29,0,1,1,0-.57m0-.5a.78.78,0,0,0-.79.78.79.79,0,0,0,.79.79.78.78,0,0,0,.78-.79.77.77,0,0,0-.78-.78Z"/></g></g></svg>