<svg xmlns="http://www.w3.org/2000/svg" viewBox="0 0 22.62 13.36"><defs><style>.cls-1{fill:#ff2f25;fill-rule:evenodd;}.cls-2{fill:none;stroke:#000;stroke-miterlimit:10;stroke-width:0.5px;}</style></defs><g id="图层_2" data-name="图层 2"><g id="图层_1-2" data-name="图层 1"><path class="cls-1" d="M19,8.69a.63.63,0,0,0,.1-.3V6a.67.67,0,0,0-.7-.64h-.5V4.5c0-.23-.05-.41-.1-.41H16.6c-.06,0-.1.18-.1.41v.89H14.16v0l.5-1.06c0-.31-.12-.56-.28-.56h-.16V.25H12.89V3.73H10.7c-.16,0-.28.25-.28.56l.85,1.06a.06.06,0,0,0,0,0H9.38A.67.67,0,0,0,8.69,6V8.38c-2.83-.3-6.43-.84-6.43-.84-.59,0-2-.1-2,.42a8.45,8.45,0,0,0,.83,1A13.12,13.12,0,0,1,2.6,11.41c.42.76,1.24,1.43,3.13,1.45l12.94.25,3.7,0V8.76Z"/><path class="cls-2" d="M19,8.69a.63.63,0,0,0,.1-.3V6a.67.67,0,0,0-.7-.64h-.5V4.5c0-.23-.05-.41-.1-.41H16.6c-.06,0-.1.18-.1.41v.89H14.16v0l.5-1.06c0-.31-.12-.56-.28-.56h-.16V.25H12.89V3.73H10.7c-.16,0-.28.25-.28.56l.85,1.06a.06.06,0,0,0,0,0H9.38A.67.67,0,0,0,8.69,6V8.38c-2.83-.3-6.43-.84-6.43-.84-.59,0-2-.1-2,.42a8.45,8.45,0,0,0,.83,1A13.12,13.12,0,0,1,2.6,11.41c.42.76,1.24,1.43,3.13,1.45l12.94.25,3.7,0V8.76Z"/></g></g></svg>