<svg xmlns="http://www.w3.org/2000/svg" viewBox="0 0 22.03 12.25"><defs><style>.cls-1,.cls-3{fill:#f4fb34;}.cls-2{fill:none;}.cls-2,.cls-3{stroke:#000;stroke-linecap:round;stroke-linejoin:round;stroke-width:0.5px;}</style></defs><g id="图层_2" data-name="图层 2"><g id="图层_1-2" data-name="图层 1"><path class="cls-1" d="M15.66,4.36,11.89.54l-4.07.91C6.53-.19,5.65.33,5.65.33L3.55.75,3.84,2.3l-.95.18.21,1.4,2.83-.46L4.8,6.31l-3,.54L.25,12c1.31-.11,16.29-1.25,18.37-2.72s3.16-6,3.16-6Z"/><path class="cls-2" d="M15.66,4.36,11.89.54l-4.07.91C6.53-.19,5.65.33,5.65.33L3.55.75,3.84,2.3l-.95.18.21,1.4,2.83-.46L4.8,6.31l-3,.54L.25,12c1.31-.11,16.29-1.25,18.37-2.72s3.16-6,3.16-6Z"/><path class="cls-3" d="M12.48,3.8l-.31-.72a.53.53,0,0,0-.58-.21l-1.34.24c-.25,0-.4.21-.33.37l.31.72a.56.56,0,0,0,.59.21l1.33-.24C12.4,4.13,12.55,4,12.48,3.8Z"/></g></g></svg>