<svg xmlns="http://www.w3.org/2000/svg" viewBox="0 0 22.21 12.28"><defs><style>.cls-1,.cls-3{fill:#ff7300;}.cls-2{fill:none;}.cls-2,.cls-3{stroke:#000;stroke-miterlimit:10;stroke-width:0.5px;}</style></defs><g id="图层_2" data-name="图层 2"><g id="图层_1-2" data-name="图层 1"><path class="cls-1" d="M15.76,4.36,12,.54l-4.07.91C6.63-.19,5.75.33,5.75.33L3.64.75,3.93,2.3,3,2.48l.2,1.4L6,3.42,4.9,6.31l-3,.54L.35,12c1.3-.11,16.29-1.25,18.37-2.72s3.16-6,3.16-6Z"/><path class="cls-2" d="M15.76,4.36,12,.54l-4.07.91C6.63-.19,5.75.33,5.75.33L3.64.75,3.93,2.3,3,2.48l.2,1.4L6,3.42,4.9,6.31l-3,.54L.35,12c1.3-.11,16.29-1.25,18.37-2.72s3.16-6,3.16-6Z"/><path class="cls-3" d="M12.58,3.8l-.31-.72a.54.54,0,0,0-.59-.21l-1.33.24c-.25,0-.4.21-.33.37l.31.72a.55.55,0,0,0,.58.21l1.34-.24C12.5,4.13,12.65,4,12.58,3.8Z"/></g></g></svg>