<svg xmlns="http://www.w3.org/2000/svg" viewBox="0 0 21.75 13.28"><defs><style>.cls-1{fill:#ff7300;stroke:#000;stroke-miterlimit:10;stroke-width:0.5px;}</style></defs><g id="图层_2" data-name="图层 2"><g id="图层_1-2" data-name="图层 1"><path class="cls-1" d="M21.38,6.6a.68.68,0,0,0-.56-.3l-3.24-.06a.8.8,0,0,0-.5.17l-.46,1H15.08V5.7A.66.66,0,0,0,14.42,5H12l0-.91a.65.65,0,0,0-.65-.64H9.92a.67.67,0,0,0-.66.66V5.83H8.38a.65.65,0,0,0-.64.56L1.18.35l-.83.9L7.1,7.46H1a.7.7,0,0,0-.55.28.72.72,0,0,0-.11.62L2.6,11.58c.25.33-.55,1.41,0,1.44S17,13,17.07,13c2,.13.29-1.71,1.36-2.51l3-3.25A.67.67,0,0,0,21.38,6.6Z"/></g></g></svg>