<svg xmlns="http://www.w3.org/2000/svg" viewBox="0 0 22.5 14.32"><defs><style>.cls-1,.cls-3{fill:#0310fc;}.cls-2{fill:none;}.cls-2,.cls-3{stroke:#000;}.cls-2,.cls-3,.cls-4{stroke-miterlimit:10;stroke-width:0.5px;}.cls-4{fill:#e81c1c;stroke:#fff;}</style></defs><g id="图层_2" data-name="图层 2"><g id="图层_1-2" data-name="图层 1"><path class="cls-1" d="M8.67,1.19,5.4.3a1.25,1.25,0,0,0-.7,0l-3.27.89a1.32,1.32,0,0,0-1,1.28v4a2.31,2.31,0,0,0,1.15,2L4,9.83a2.15,2.15,0,0,0,2.12,0L8.5,8.48h0a2.31,2.31,0,0,0,1.14-2v-4A1.33,1.33,0,0,0,8.67,1.19Z"/><path class="cls-2" d="M8.67,1.19,5.4.3a1.25,1.25,0,0,0-.7,0l-3.27.89a1.32,1.32,0,0,0-1,1.28v4a2.31,2.31,0,0,0,1.15,2L4,9.83a2.15,2.15,0,0,0,2.12,0L8.5,8.48h0a2.31,2.31,0,0,0,1.14-2v-4A1.33,1.33,0,0,0,8.67,1.19Z"/><path class="cls-3" d="M21.94,7.77c-1,0-2.6,0-4.59,0l-.09-2.57a.76.76,0,0,0-.82-.68H12.53a.72.72,0,0,0-.78.64V8.07A44,44,0,0,0,.45,10.2a.3.3,0,0,0-.17.42c.44.91,1.77,3.57,2.08,3.45L3.92,14c1-.07,9.13-.77,10.25-.83s2.19-.29,2.86-.36a31.56,31.56,0,0,0,2.82-2.39,25.42,25.42,0,0,1,2.27-2.07A.3.3,0,0,0,21.94,7.77Z"/><path class="cls-4" d="M8,4.39a.33.33,0,0,0,0-.45.37.37,0,0,0-.14-.07L6.32,3.54a.32.32,0,0,1-.21-.15L5.32,2.05a.3.3,0,0,0-.43-.12.34.34,0,0,0-.12.12L4,3.39a.32.32,0,0,1-.21.15l-1.53.33A.32.32,0,0,0,2,4.25a.37.37,0,0,0,.07.14l1,1.16a.32.32,0,0,1,.08.24L3.05,7.34a.31.31,0,0,0,.28.35.3.3,0,0,0,.16,0L4.92,7a.3.3,0,0,1,.26,0l1.43.63A.32.32,0,0,0,7,7.5a.29.29,0,0,0,0-.16L6.89,5.8A.38.38,0,0,1,7,5.55Z"/></g></g></svg>