<svg xmlns="http://www.w3.org/2000/svg" viewBox="0 0 23.06 16.29"><defs><style>.cls-1{fill:#f4fb34;}</style></defs><g id="图层_2" data-name="图层 2"><g id="图层_1-2" data-name="图层 1"><path class="cls-1" d="M4.7,16a2.47,2.47,0,0,1-1.77-.89,1.13,1.13,0,0,1-.16-1v0a3.84,3.84,0,0,1-2.37-3l-.05-.32-.1-.62A.25.25,0,0,1,.31,10a.24.24,0,0,1,.18-.09l1,0V3.33a.25.25,0,0,1,.25-.25H5.24a.25.25,0,0,1,.17.08.23.23,0,0,1,.08.17V7.61H9.88a.25.25,0,0,1,.25.25V9.9h8.43c-.88-.77-2.74-2.54-3.39-3.17a1,1,0,0,1-.67.22h-.24a3.45,3.45,0,0,1-3.52-3.34,3.51,3.51,0,0,1,.16-1L11,2.36a.26.26,0,0,1,.16-.15h.08a.23.23,0,0,1,.14,0L13.76,4l.76-1L12.31,1.19A.24.24,0,0,1,12.22,1a.26.26,0,0,1,.13-.2L12.6.65a3.66,3.66,0,0,1,1.66-.4A3.45,3.45,0,0,1,17.78,3.6v.16a4.35,4.35,0,0,1-.06.52l-.2.48L21.12,8a1.6,1.6,0,0,1,.57,1.11,1.33,1.33,0,0,1-.31.81h1.17a.25.25,0,0,1,.25.25V13c0,.88-.58,1-1.55,1.17l-.72.1-.32.06-.37.07c-.91.21-1.4.52-1.6,1l-.16.46a.24.24,0,0,1-.23.17l-13,0Z"/><path d="M14.27.5a3.19,3.19,0,0,1,3.26,3.1v.16a1.89,1.89,0,0,1-.06.47l-.24.6L21,8.15c.71.71.61,1.26-.12,2h0l0,0h1.74V13c0,.63-.33.77-1.33.92l-.12,0L20.5,14l-.32,0-.39.08A2.23,2.23,0,0,0,18,15.29l0,.1-.12.37-13,0H4.72C3.53,15.6,2.82,15,3,14.25l0-.09,0-.08,0-.06-.15,0A3.59,3.59,0,0,1,.65,11.11l0-.16,0-.15L.5,10.18l1.27,0V3.33H5.24V7.86H9.88v2.3h9.48a.42.42,0,0,0,.18,0,.33.33,0,0,0,.13,0h-.31a1.1,1.1,0,0,1-.25-.12c-.42-.26-4-3.67-4-3.67a.63.63,0,0,1-.65.34h-.25A3.19,3.19,0,0,1,11,3.61a2.92,2.92,0,0,1,.15-.93l.09-.23,2.44,1.81,0,0h0a.14.14,0,0,0,.1,0l.9-1.15,0,0a.13.13,0,0,0,0-.12l0,0L12.47,1l.25-.13A3.4,3.4,0,0,1,14.26.5h0m0-.5h0a3.86,3.86,0,0,0-1.77.43l-.25.13A.5.5,0,0,0,12,1a.52.52,0,0,0,.18.44l2,1.67-.46.6L11.53,2A.5.5,0,0,0,11.24,2a.39.39,0,0,0-.15,0,.47.47,0,0,0-.32.31l-.09.23a3.53,3.53,0,0,0-.18,1.11,3.69,3.69,0,0,0,3.76,3.59h.25a1.36,1.36,0,0,0,.65-.15c.7.68,1.9,1.82,2.75,2.6H10.39V7.85a.5.5,0,0,0-.5-.5H5.74v-4A.56.56,0,0,0,5.59,3a.53.53,0,0,0-.35-.15H1.76a.5.5,0,0,0-.5.5V9.66l-.79,0a.5.5,0,0,0-.36.18.45.45,0,0,0-.11.4l.09.61,0,.16,0,.17a4.11,4.11,0,0,0,2.33,3.12,1.4,1.4,0,0,0,.23,1,2.73,2.73,0,0,0,1.92,1h.13l13.09,0a.51.51,0,0,0,.47-.34l.12-.38,0-.08c.11-.26.38-.62,1.42-.86l.36-.07.32,0,.6-.09h.12c.83-.13,1.76-.27,1.76-1.42V10.13a.5.5,0,0,0-.5-.5h-.73a1.48,1.48,0,0,0,.12-.56,1.81,1.81,0,0,0-.63-1.28l-3.5-3.1.12-.28a.19.19,0,0,0,0-.08A3.31,3.31,0,0,0,18,3.78V3.61A3.7,3.7,0,0,0,14.27,0Z"/></g></g></svg>