<svg xmlns="http://www.w3.org/2000/svg" viewBox="0 0 23.14 16.29"><defs><style>.cls-1{fill:#ff7300;}</style></defs><g id="图层_2" data-name="图层 2"><g id="图层_1-2" data-name="图层 1"><path class="cls-1" d="M4.78,16A2.47,2.47,0,0,1,3,15.14a1.18,1.18,0,0,1-.17-1v0a3.82,3.82,0,0,1-2.37-3l-.06-.32-.13-.9,1.31,0V3.08h4V7.61h4.64V9.9h8.43c-.88-.77-2.74-2.54-3.39-3.17a1,1,0,0,1-.67.22h-.24a3.45,3.45,0,0,1-3.52-3.34,3.2,3.2,0,0,1,.16-1l.2-.56,2.64,2,.76-1L12.1,1l.58-.31a3.66,3.66,0,0,1,1.66-.4A3.45,3.45,0,0,1,17.86,3.6v.16a4.35,4.35,0,0,1-.06.52l-.2.48L21.2,8a1.6,1.6,0,0,1,.57,1.11,1.33,1.33,0,0,1-.31.81h1.42V13c0,.87-.58,1-1.55,1.17l-.72.1-.32.06-.37.07c-.91.21-1.4.52-1.61,1l-.2.63L4.88,16Z"/><path d="M14.34.5a3.19,3.19,0,0,1,3.27,3.1v.16a3.78,3.78,0,0,1-.06.47l-.25.6L21,8.15c.72.71.61,1.26-.11,2h0l0,0h1.74V13c0,.63-.33.77-1.33.92l-.12,0-.61.09-.33,0-.38.08c-1,.21-1.54.57-1.78,1.17l0,.1-.12.37-13.06,0H4.79C3.61,15.6,2.9,15,3.09,14.25l0-.09,0-.08,0-.06L3,14A3.59,3.59,0,0,1,.73,11.11L.7,11l0-.15-.09-.62,1.27,0V3.33H5.31V7.86H10v2.3h9.48a.42.42,0,0,0,.18,0,.33.33,0,0,0,.13,0h-.31A1.1,1.1,0,0,1,19.2,10c-.42-.26-4-3.67-4-3.67a.63.63,0,0,1-.65.34h-.25a3.19,3.19,0,0,1-3.26-3.1,2.92,2.92,0,0,1,.15-.93l.08-.23,2.45,1.81,0,0h0a.14.14,0,0,0,.1,0l.89-1.15,0,0a.1.1,0,0,0,0-.12l0,0L12.55,1l.24-.13A3.47,3.47,0,0,1,14.34.5h0m0-.5h0a3.92,3.92,0,0,0-1.77.43l-.24.13-.66.35.57.48,2,1.67-.45.6L11.61,2l-.54-.4-.23.64-.08.23a3.53,3.53,0,0,0-.18,1.11,3.69,3.69,0,0,0,3.76,3.59h.48v0a1.16,1.16,0,0,0,.41-.13c.71.68,1.91,1.82,2.76,2.6H10.47V7.35H5.82V2.82H1.33V9.66l-.79,0L0,9.7l.08.56.1.61L.2,11l0,.17a4.11,4.11,0,0,0,2.33,3.12,1.4,1.4,0,0,0,.23,1,2.73,2.73,0,0,0,1.92,1h.13l13.09,0h.36l.11-.34.12-.38,0-.08c.11-.26.37-.62,1.42-.86l.36-.07.32,0,.6-.09h.12c.83-.13,1.76-.27,1.76-1.42V9.63H21.9A1.48,1.48,0,0,0,22,9.07a1.81,1.81,0,0,0-.63-1.28l-3.5-3.1L18,4.41l0,0v0a3.31,3.31,0,0,0,.07-.55V3.61A3.7,3.7,0,0,0,14.34,0Z"/></g></g></svg>