<svg xmlns="http://www.w3.org/2000/svg" viewBox="0 0 19.65 21.73"><defs><style>.cls-1{fill:#00f0ff;}</style></defs><title>资源 291</title><g id="图层_2" data-name="图层 2"><g id="图层_1-2" data-name="图层 1"><path class="cls-1" d="M10,13.84v1.49a.45.45,0,0,0,.45.46h8.79a.38.38,0,0,0,.25-.67L15,11.06a.19.19,0,0,0-.33.14v2.19H10.45A.45.45,0,0,0,10,13.84Z"/><path class="cls-1" d="M8.92,18h-5a.45.45,0,0,1-.45-.45v-.14a.45.45,0,0,1,.45-.45H8.82a.7.7,0,0,1,.06-.19,1.81,1.81,0,0,1,.22-.41,2,2,0,0,1-.28-.61H3.9a.45.45,0,0,1-.45-.45v-.14a.45.45,0,0,1,.45-.45H8.77v-.79a1.69,1.69,0,0,1,1.68-1.68h3c0-.06,0-.1,0-.16V6.63a1.31,1.31,0,0,0-1.31-1.3H10.75V4a.87.87,0,0,0-.87-.88H9.41A.87.87,0,0,0,8.53,4V5.33H4.39V1.12a1.13,1.13,0,0,0-2.25,0V5.33H1.31A1.31,1.31,0,0,0,0,6.63V12A1.29,1.29,0,0,0,1.08,13.3v7.13a1.31,1.31,0,0,0,1.31,1.3H11A1.29,1.29,0,0,0,12.2,21L9.33,18.51A1.42,1.42,0,0,1,8.92,18ZM3.06,11.12V7.71a.28.28,0,0,1,.29-.28H10.1a.29.29,0,0,1,.29.28v3.41a.29.29,0,0,1-.29.29H3.35A.28.28,0,0,1,3.06,11.12ZM10,19.61v.14a.45.45,0,0,1-.45.45H3.9a.45.45,0,0,1-.45-.45v-.14a.45.45,0,0,1,.45-.45H9.55A.44.44,0,0,1,10,19.61Z"/><path class="cls-1" d="M19.16,16.9H10.39a.38.38,0,0,0-.25.67l4.65,4.06a.21.21,0,0,0,.35-.16V19.3H19.2a.45.45,0,0,0,.45-.44V17.37A.49.49,0,0,0,19.16,16.9Z"/></g></g></svg>