<svg xmlns="http://www.w3.org/2000/svg" viewBox="0 0 16 16"><defs><style>.cls-1{fill:#46ccff;stroke:#000;stroke-linecap:round;stroke-linejoin:round;stroke-width:0.5px;}.cls-2{fill:#0098ff;}</style></defs><g id="图层_2" data-name="图层 2"><g id="图层_1-2" data-name="图层 1"><path class="cls-1" d="M10.6,10.94l-.43-1.38-.11-.34L9.31,6.79,8,2.61,6.69,6.79,5.94,9.22l-.11.34L5.4,10.94l-.52,1.67h6.25ZM7.43,7H8.57L9,8.25H7.05ZM6.29,11l.37-1.21H9.34L9.71,11Z"/><polygon points="8.57 7.04 7.43 7.04 7.05 8.25 8.95 8.25 8.57 7.04"/><polygon points="6.67 9.78 6.29 10.99 9.71 10.99 9.34 9.78 6.67 9.78"/><path class="cls-2" d="M2.34,2.34a8,8,0,1,0,11.32,0A8,8,0,0,0,2.34,2.34ZM13.11,13.11a7.23,7.23,0,1,1,0-10.22A7.25,7.25,0,0,1,13.11,13.11Z"/></g></g></svg>