<?xml version="1.0" encoding="utf-8"?>
<!-- Generator: Adobe Illustrator 24.0.0, SVG Export Plug-In . SVG Version: 6.00 Build 0)  -->
<svg version="1.1" id="图层_1" xmlns="http://www.w3.org/2000/svg" xmlns:xlink="http://www.w3.org/1999/xlink" x="0px" y="0px"
	 viewBox="0 0 405.6 725" style="enable-background:new 0 0 405.6 725;" xml:space="preserve">
<style type="text/css">
	.st0{opacity:0.58;}
	.st1{fill:#072037;}
	.st2{fill:url(#SVGID_1_);}
	.st3{opacity:0.58;fill:#072037;stroke:#000000;stroke-miterlimit:10;enable-background:new    ;}
	.st4{opacity:0.58;fill:none;stroke:#1A5978;stroke-miterlimit:10;enable-background:new    ;}
	.st5{fill:#D3520C;}
	.st6{fill:#1A5978;}
</style>
<g class="st0">
	<path class="st1" d="M405.5,725h-93.4l-5.6-6.5h-216l-8.7,6.5H0V6.7C0,3,3,0,6.7,0h95.8l7.9,9.5l284.1,1c6,0,10.9,4.9,10.9,10.9
		L405.5,725L405.5,725z"/>
</g>
<g class="st0">
	
		<linearGradient id="SVGID_1_" gradientUnits="userSpaceOnUse" x1="202.85" y1="92" x2="202.85" y2="817" gradientTransform="matrix(1 0 0 -1 0 817)">
		<stop  offset="0" style="stop-color:#1A5978"/>
		<stop  offset="1" style="stop-color:#1A5978;stop-opacity:0"/>
	</linearGradient>
	<path class="st2" d="M102.1,1l7.6,9.1l0.3,0.4h0.5l284.1,1c5.4,0,9.9,4.5,9.9,9.9V724h-92l-5.3-6.1l-0.3-0.4h-0.5H90.5h-0.3
		l-0.3,0.2l-8.4,6.3H1V6.7C1,3.5,3.6,1,6.7,1H102.1 M102.6,0H6.8C3.1,0,0.1,3,0.1,6.7V725h81.8l8.7-6.5h216l5.6,6.5h93.4V21.4
		c0-6-4.9-10.9-10.9-10.9l-284.2-1L102.6,0L102.6,0z"/>
</g>
<polygon class="st3" points="87,724.5 92,720.5 244,720.5 247,724.5 "/>
<polygon class="st4" points="87,724.5 92,720.5 244,720.5 247,724.5 "/>
<g>
	<polygon class="st5" points="251,721 254,725 256,725 253,721 	"/>
	<polygon class="st5" points="257,721 260,725 262,725 259,721 	"/>
	<polygon class="st5" points="264,721 267,725 269,725 266,721 	"/>
	<polygon class="st5" points="270,721 273,725 275,725 272,721 	"/>
	<polygon class="st5" points="277,721 280,725 282,725 279,721 	"/>
	<polygon class="st5" points="283,721 286,725 288,725 285,721 	"/>
	<polygon class="st5" points="290,721 293,725 295,725 292,721 	"/>
	<polygon class="st5" points="296,721 299,725 301,725 298,721 	"/>
	<polygon class="st5" points="304,721 302,721 305,725 307,725 	"/>
</g>
<g>
	<g>
		<polygon class="st6" points="34.5,3.5 39.5,9.5 41.5,9.5 36.5,3.5 		"/>
	</g>
	<g>
		<polygon class="st6" points="38.5,3.5 43.5,9.5 45.5,9.5 40.5,3.5 		"/>
	</g>
	<g>
		<polygon class="st6" points="42.5,3.5 47.5,9.5 49.5,9.5 44.5,3.5 		"/>
	</g>
	<g>
		<polygon class="st6" points="46.5,3.5 51.5,9.5 53.5,9.5 48.5,3.5 		"/>
	</g>
	<g>
		<polygon class="st6" points="50.5,3.5 55.5,9.5 57.5,9.5 52.5,3.5 		"/>
	</g>
	<g>
		<polygon class="st6" points="54.5,3.5 59.5,9.5 61.5,9.5 56.5,3.5 		"/>
	</g>
	<g>
		<polygon class="st6" points="58.5,3.5 63.5,9.5 65.5,9.5 60.5,3.5 		"/>
	</g>
	<g>
		<polygon class="st6" points="62.5,3.5 67.5,9.5 69.5,9.5 64.5,3.5 		"/>
	</g>
	<g>
		<polygon class="st6" points="66.5,3.5 71.5,9.5 73.5,9.5 68.5,3.5 		"/>
	</g>
	<g>
		<polygon class="st6" points="70.5,3.5 75.5,9.5 77.5,9.5 72.5,3.5 		"/>
	</g>
	<g>
		<polygon class="st6" points="74.5,3.5 79.5,9.5 81.5,9.5 76.5,3.5 		"/>
	</g>
	<g>
		<polygon class="st6" points="78.5,3.5 83.5,9.5 85.5,9.5 80.5,3.5 		"/>
	</g>
	<g>
		<polygon class="st6" points="82.5,3.5 87.5,9.5 89.5,9.5 84.5,3.5 		"/>
	</g>
	<g>
		<polygon class="st6" points="86.5,3.5 91.5,9.5 93.5,9.5 88.5,3.5 		"/>
	</g>
	<g>
		<polygon class="st6" points="90.5,3.5 95.5,9.5 97.5,9.5 92.5,3.5 		"/>
	</g>
	<g>
		<polygon class="st6" points="94.5,3.5 99.5,9.5 101.5,9.5 96.5,3.5 		"/>
	</g>
	<g>
		<polygon class="st6" points="100.5,3.5 98.5,3.5 103.5,9.5 105.5,9.5 		"/>
	</g>
</g>
</svg>
