<svg xmlns="http://www.w3.org/2000/svg" viewBox="0 0 22.13 16"><defs><style>.cls-1{fill:#fff;}.cls-2{fill-rule:evenodd;}.cls-3{fill:none;}.cls-3,.cls-4{stroke:#fff;stroke-linecap:round;stroke-linejoin:round;stroke-width:0.5px;}</style></defs><g id="图层_2" data-name="图层 2"><g id="图层_1-2" data-name="图层 1"><path class="cls-1" d="M4.9,2.34a8,8,0,1,0,11.31,0A8,8,0,0,0,4.9,2.34ZM15.66,13.11a7.22,7.22,0,1,1,0-10.22A7.24,7.24,0,0,1,15.66,13.11Z"/><path class="cls-2" d="M21,8.93H17.55V2.86a.66.66,0,0,0-.66-.65H11.72a.66.66,0,0,0-.66.65V8.93H3.36V7.41L6.88,4.77,3.36,3v-.8H2.26V8.93H1.11a.85.85,0,0,0-.74,1.29l2.25,3.7a.86.86,0,0,0,.74.41H18.77a.86.86,0,0,0,.74-.41l2.24-3.7A.85.85,0,0,0,21,8.93Z"/><path class="cls-3" d="M21,8.93H17.55V2.86a.66.66,0,0,0-.66-.65H11.72a.66.66,0,0,0-.66.65V8.93H3.36V7.41L6.88,4.77,3.36,3v-.8H2.26V8.93H1.11a.85.85,0,0,0-.74,1.29l2.25,3.7a.86.86,0,0,0,.74.41H18.77a.86.86,0,0,0,.74-.41l2.24-3.7A.85.85,0,0,0,21,8.93Z"/><rect class="cls-4" x="13.06" y="5.35" width="2.63" height="3.58"/></g></g></svg>