<svg xmlns="http://www.w3.org/2000/svg" viewBox="0 0 22.13 12.63"><defs><style>.cls-1{fill-rule:evenodd;}.cls-2{fill:none;}.cls-2,.cls-3{stroke:#fff;stroke-linecap:round;stroke-linejoin:round;stroke-width:0.5px;}.cls-4{fill:#fff;}</style></defs><g id="图层_2" data-name="图层 2"><g id="图层_1-2" data-name="图层 1"><path class="cls-1" d="M21,7H17.55V.91a.66.66,0,0,0-.66-.66H11.72a.66.66,0,0,0-.66.66V7H3.36V5.46L6.88,2.82,3.36,1.05V.25H2.26V7H1.11A.85.85,0,0,0,.37,8.26L2.62,12a.87.87,0,0,0,.74.42H18.77a.87.87,0,0,0,.74-.42l2.24-3.7A.84.84,0,0,0,21,7Z"/><path class="cls-2" d="M21,7H17.55V.91a.66.66,0,0,0-.66-.66H11.72a.66.66,0,0,0-.66.66V7H3.36V5.46L6.88,2.82,3.36,1.05V.25H2.26V7H1.11A.85.85,0,0,0,.37,8.26L2.62,12a.87.87,0,0,0,.74.42H18.77a.87.87,0,0,0,.74-.42l2.24-3.7A.84.84,0,0,0,21,7Z"/><rect class="cls-3" x="13.06" y="3.39" width="2.63" height="3.58"/><path class="cls-4" d="M19.5,9.11a2,2,0,0,1-1.1-.31,1.93,1.93,0,0,0-2,0,2.09,2.09,0,0,1-2.19,0,1.93,1.93,0,0,0-2,0A2.09,2.09,0,0,1,10,8.8a1.93,1.93,0,0,0-2,0,2,2,0,0,1-1.1.31,2.06,2.06,0,0,1-1.1-.31,1.77,1.77,0,0,0-1-.28,1.78,1.78,0,0,0-1,.28,2,2,0,0,1-1.1.31,2,2,0,0,1-1.1-.31,1.81,1.81,0,0,0-1-.28c-.08,0-.15-.12-.15-.26S.55,8,.63,8a2,2,0,0,1,1.1.31,1.81,1.81,0,0,0,1,.28,1.81,1.81,0,0,0,1-.28A2,2,0,0,1,4.83,8a1.94,1.94,0,0,1,1.09.31,1.93,1.93,0,0,0,2,0A2,2,0,0,1,9,8a2,2,0,0,1,1.1.31,1.74,1.74,0,0,0,1,.28,1.81,1.81,0,0,0,1-.28,2.11,2.11,0,0,1,2.2,0,1.91,1.91,0,0,0,2,0A2,2,0,0,1,17.4,8a2,2,0,0,1,1.1.31,1.93,1.93,0,0,0,2,0A1.94,1.94,0,0,1,21.59,8c.09,0,.16.12.16.26s-.07.26-.16.26a1.74,1.74,0,0,0-1,.28,2.09,2.09,0,0,1-1.1.31Z"/><path class="cls-4" d="M18.67,11.31a1.74,1.74,0,0,1-1-.31,1.59,1.59,0,0,0-1.8,0,1.75,1.75,0,0,1-2,0,1.59,1.59,0,0,0-1.8,0,1.74,1.74,0,0,1-1,.31,1.7,1.7,0,0,1-1-.31,1.5,1.5,0,0,0-.9-.28,1.56,1.56,0,0,0-.91.28,1.74,1.74,0,0,1-2,0,1.5,1.5,0,0,0-.9-.28,1.51,1.51,0,0,0-.91.28,1.74,1.74,0,0,1-2,0,1.53,1.53,0,0,0-.91-.28c-.07,0-.14-.12-.14-.26s.07-.26.14-.26a1.74,1.74,0,0,1,1,.31,1.5,1.5,0,0,0,.9.28,1.5,1.5,0,0,0,.9-.28,1.75,1.75,0,0,1,2,0,1.59,1.59,0,0,0,1.8,0,1.75,1.75,0,0,1,2,0,1.5,1.5,0,0,0,.9.28,1.56,1.56,0,0,0,.91-.28,1.74,1.74,0,0,1,2,0,1.5,1.5,0,0,0,.9.28,1.53,1.53,0,0,0,.91-.28,1.74,1.74,0,0,1,2,0,1.6,1.6,0,0,0,1.81,0,1.7,1.7,0,0,1,1-.31c.08,0,.14.12.14.26s-.06.26-.14.26a1.5,1.5,0,0,0-.9.28,1.73,1.73,0,0,1-1,.31Z"/></g></g></svg>