<svg xmlns="http://www.w3.org/2000/svg" viewBox="0 0 22.13 16"><defs><style>.cls-1{fill:#fff;}.cls-2{fill-rule:evenodd;}.cls-3{fill:none;}.cls-3,.cls-4{stroke:#fff;stroke-linecap:round;stroke-linejoin:round;stroke-width:0.5px;}</style></defs><g id="图层_2" data-name="图层 2"><g id="图层_1-2" data-name="图层 1"><path class="cls-1" d="M5.4,2.34a8,8,0,1,0,11.32,0A8,8,0,0,0,5.4,2.34ZM16.17,13.11a7.22,7.22,0,1,1,0-10.22A7.25,7.25,0,0,1,16.17,13.11Z"/><path class="cls-2" d="M21,8.93H17.54V2.86a.65.65,0,0,0-.65-.65H11.72a.66.66,0,0,0-.66.65V8.93H3.36V7.41L6.88,4.77,3.36,3v-.8H2.26V8.93H1.11a.85.85,0,0,0-.74,1.29l2.25,3.7a.86.86,0,0,0,.74.41H18.77a.86.86,0,0,0,.74-.41l2.24-3.7A.85.85,0,0,0,21,8.93Z"/><path class="cls-3" d="M21,8.93H17.54V2.86a.65.65,0,0,0-.65-.65H11.72a.66.66,0,0,0-.66.65V8.93H3.36V7.41L6.88,4.77,3.36,3v-.8H2.26V8.93H1.11a.85.85,0,0,0-.74,1.29l2.25,3.7a.86.86,0,0,0,.74.41H18.77a.86.86,0,0,0,.74-.41l2.24-3.7A.85.85,0,0,0,21,8.93Z"/><rect class="cls-4" x="13.06" y="5.35" width="2.63" height="3.58"/><path class="cls-1" d="M19.5,11.06a2,2,0,0,1-1.1-.3,1.87,1.87,0,0,0-2,0,2.15,2.15,0,0,1-2.19,0,1.87,1.87,0,0,0-2,0,2.15,2.15,0,0,1-2.19,0,1.87,1.87,0,0,0-2,0,2,2,0,0,1-1.1.3,2.07,2.07,0,0,1-1.1-.3,1.69,1.69,0,0,0-1-.29,1.7,1.7,0,0,0-1,.29,2,2,0,0,1-1.1.3,2,2,0,0,1-1.1-.3,1.72,1.72,0,0,0-1-.29c-.08,0-.15-.11-.15-.26S.55,10,.63,10a2,2,0,0,1,1.1.3,1.81,1.81,0,0,0,1,.28,1.81,1.81,0,0,0,1-.28,2,2,0,0,1,1.1-.3,2,2,0,0,1,1.09.3,1.93,1.93,0,0,0,2,0A2,2,0,0,1,9,10a2.1,2.1,0,0,1,1.1.3,1.74,1.74,0,0,0,1,.28,1.81,1.81,0,0,0,1-.28,2.17,2.17,0,0,1,2.2,0,1.91,1.91,0,0,0,2,0,2.07,2.07,0,0,1,1.1-.3,2,2,0,0,1,1.1.3,1.93,1.93,0,0,0,2,0,2,2,0,0,1,1.09-.3c.09,0,.16.11.16.25s-.07.26-.16.26a1.66,1.66,0,0,0-1,.29,2.1,2.1,0,0,1-1.1.3Z"/><path class="cls-1" d="M18.67,13.26a1.74,1.74,0,0,1-1-.3,1.59,1.59,0,0,0-1.8,0,1.8,1.8,0,0,1-2,0,1.59,1.59,0,0,0-1.8,0,1.74,1.74,0,0,1-1,.3,1.71,1.71,0,0,1-1-.3,1.5,1.5,0,0,0-.9-.28,1.56,1.56,0,0,0-.91.28,1.78,1.78,0,0,1-2,0,1.5,1.5,0,0,0-.9-.28,1.51,1.51,0,0,0-.91.28,1.71,1.71,0,0,1-1,.3,1.71,1.71,0,0,1-1-.3,1.56,1.56,0,0,0-.91-.28c-.07,0-.14-.12-.14-.26s.07-.26.14-.26a1.74,1.74,0,0,1,1,.3,1.43,1.43,0,0,0,.9.29,1.43,1.43,0,0,0,.9-.29,1.8,1.8,0,0,1,2,0,1.54,1.54,0,0,0,1.8,0,1.8,1.8,0,0,1,2,0,1.43,1.43,0,0,0,.9.29,1.49,1.49,0,0,0,.91-.29,1.78,1.78,0,0,1,2,0,1.43,1.43,0,0,0,.9.29,1.47,1.47,0,0,0,.91-.29,1.78,1.78,0,0,1,2,0,1.56,1.56,0,0,0,1.81,0,1.71,1.71,0,0,1,1-.3c.08,0,.14.12.14.26s-.06.26-.14.26a1.5,1.5,0,0,0-.9.28,1.73,1.73,0,0,1-1,.3Z"/></g></g></svg>