<svg xmlns="http://www.w3.org/2000/svg" viewBox="0 0 22.13 16"><defs><style>.cls-1,.cls-2,.cls-4{fill:#46ccff;}.cls-2{fill-rule:evenodd;}.cls-3{fill:none;}.cls-3,.cls-4{stroke:#000;stroke-linecap:round;stroke-linejoin:round;stroke-width:0.5px;}</style></defs><g id="图层_2" data-name="图层 2"><g id="图层_1-2" data-name="图层 1"><path class="cls-1" d="M4.9,2.34a8,8,0,1,0,11.31,0A8,8,0,0,0,4.9,2.34ZM15.66,13.11a7.22,7.22,0,1,1,0-10.22A7.24,7.24,0,0,1,15.66,13.11Z"/><path class="cls-2" d="M21,8.88H17.55V2.81a.67.67,0,0,0-.66-.66H11.72a.67.67,0,0,0-.66.66V8.88H3.36V7.36L6.88,4.72,3.36,3V2.15H2.26V8.88H1.11a.85.85,0,0,0-.74,1.28l2.25,3.71a.89.89,0,0,0,.74.41H18.77a.89.89,0,0,0,.74-.41l2.24-3.71A.84.84,0,0,0,21,8.88Z"/><path class="cls-3" d="M21,8.88H17.55V2.81a.67.67,0,0,0-.66-.66H11.72a.67.67,0,0,0-.66.66V8.88H3.36V7.36L6.88,4.72,3.36,3V2.15H2.26V8.88H1.11a.85.85,0,0,0-.74,1.28l2.25,3.71a.89.89,0,0,0,.74.41H18.77a.89.89,0,0,0,.74-.41l2.24-3.71A.84.84,0,0,0,21,8.88Z"/><rect class="cls-4" x="13.06" y="5.29" width="2.63" height="3.58"/></g></g></svg>