<svg xmlns="http://www.w3.org/2000/svg" viewBox="0 0 22.13 16"><defs><style>.cls-1,.cls-2,.cls-4{fill:#46ccff;}.cls-2{fill-rule:evenodd;}.cls-3{fill:none;}.cls-3,.cls-4{stroke:#000;stroke-linecap:round;stroke-linejoin:round;stroke-width:0.5px;}</style></defs><g id="图层_2" data-name="图层 2"><g id="图层_1-2" data-name="图层 1"><path class="cls-1" d="M5.4,2.34a8,8,0,1,0,11.32,0A8,8,0,0,0,5.4,2.34ZM16.17,13.11a7.22,7.22,0,1,1,0-10.22A7.25,7.25,0,0,1,16.17,13.11Z"/><path class="cls-2" d="M21,8.88H17.54V2.81a.66.66,0,0,0-.65-.66H11.72a.67.67,0,0,0-.66.66V8.88H3.36V7.36L6.88,4.72,3.36,3V2.15H2.26V8.88H1.11a.85.85,0,0,0-.74,1.28l2.25,3.71a.89.89,0,0,0,.74.41H18.77a.89.89,0,0,0,.74-.41l2.24-3.71A.84.84,0,0,0,21,8.88Z"/><path class="cls-3" d="M21,8.88H17.54V2.81a.66.66,0,0,0-.65-.66H11.72a.67.67,0,0,0-.66.66V8.88H3.36V7.36L6.88,4.72,3.36,3V2.15H2.26V8.88H1.11a.85.85,0,0,0-.74,1.28l2.25,3.71a.89.89,0,0,0,.74.41H18.77a.89.89,0,0,0,.74-.41l2.24-3.71A.84.84,0,0,0,21,8.88Z"/><rect class="cls-4" x="13.06" y="5.29" width="2.63" height="3.58"/><path d="M19.51,11a2.1,2.1,0,0,1-1.1-.3,1.66,1.66,0,0,0-1-.29,1.7,1.7,0,0,0-1,.29,2.07,2.07,0,0,1-1.1.3,2,2,0,0,1-1.1-.3,1.87,1.87,0,0,0-2,0,2,2,0,0,1-1.1.3,2.07,2.07,0,0,1-1.1-.3,1.7,1.7,0,0,0-1-.29,1.69,1.69,0,0,0-1,.29,2.1,2.1,0,0,1-1.1.3,2,2,0,0,1-1.1-.3,1.72,1.72,0,0,0-1-.29,1.72,1.72,0,0,0-1,.29,2,2,0,0,1-1.1.3,2,2,0,0,1-1.1-.3,1.7,1.7,0,0,0-1-.29c-.08,0-.15-.11-.15-.26s.07-.25.15-.25a2,2,0,0,1,1.1.3,1.81,1.81,0,0,0,1,.28,1.81,1.81,0,0,0,1-.28,2,2,0,0,1,1.1-.3,2,2,0,0,1,1.1.3,1.78,1.78,0,0,0,1,.28,1.81,1.81,0,0,0,1-.28,2.15,2.15,0,0,1,2.19,0,1.93,1.93,0,0,0,2,0,2.17,2.17,0,0,1,2.2,0,1.93,1.93,0,0,0,2,0,2.15,2.15,0,0,1,2.19,0,1.81,1.81,0,0,0,1,.28,1.78,1.78,0,0,0,1-.28,2,2,0,0,1,1.1-.3c.09,0,.16.11.16.25s-.07.26-.16.26a1.72,1.72,0,0,0-1,.29,2,2,0,0,1-1.1.3Z"/><path d="M18.64,13.16a1.73,1.73,0,0,1-1-.3,1.47,1.47,0,0,0-.89-.28,1.5,1.5,0,0,0-.9.28,1.67,1.67,0,0,1-1,.3,1.73,1.73,0,0,1-1-.3,1.47,1.47,0,0,0-.89-.28,1.5,1.5,0,0,0-.9.28,1.67,1.67,0,0,1-1,.3,1.73,1.73,0,0,1-1-.3,1.47,1.47,0,0,0-.89-.28,1.5,1.5,0,0,0-.9.28,1.67,1.67,0,0,1-1,.3,1.73,1.73,0,0,1-1-.3,1.47,1.47,0,0,0-.89-.28,1.5,1.5,0,0,0-.9.28,1.67,1.67,0,0,1-1,.3,1.67,1.67,0,0,1-1-.3,1.5,1.5,0,0,0-.9-.28c-.08,0-.14-.12-.14-.26s.06-.26.14-.26a1.67,1.67,0,0,1,1,.3,1.46,1.46,0,0,0,.9.29,1.46,1.46,0,0,0,.9-.29,1.75,1.75,0,0,1,2,0,1.43,1.43,0,0,0,.9.29,1.4,1.4,0,0,0,.89-.29,1.73,1.73,0,0,1,1-.3,1.67,1.67,0,0,1,1,.3,1.43,1.43,0,0,0,.9.29,1.4,1.4,0,0,0,.89-.29,1.73,1.73,0,0,1,1-.3,1.67,1.67,0,0,1,1,.3,1.43,1.43,0,0,0,.9.29,1.4,1.4,0,0,0,.89-.29,1.73,1.73,0,0,1,1-.3,1.67,1.67,0,0,1,1,.3,1.53,1.53,0,0,0,1.79,0,1.73,1.73,0,0,1,1-.3c.07,0,.14.12.14.26s-.07.26-.14.26a1.5,1.5,0,0,0-.9.28,1.67,1.67,0,0,1-1,.3Z"/></g></g></svg>