<svg xmlns="http://www.w3.org/2000/svg" viewBox="0 0 22.13 16"><defs><style>.cls-1,.cls-2,.cls-4{fill:#28e29a;}.cls-2{fill-rule:evenodd;}.cls-3{fill:none;}.cls-3,.cls-4{stroke:#000;stroke-linecap:round;stroke-linejoin:round;stroke-width:0.5px;}</style></defs><g id="图层_2" data-name="图层 2"><g id="图层_1-2" data-name="图层 1"><path class="cls-1" d="M5.4,2.34a8,8,0,1,0,11.32,0A8,8,0,0,0,5.4,2.34ZM16.17,13.11a7.22,7.22,0,1,1,0-10.22A7.25,7.25,0,0,1,16.17,13.11Z"/><path class="cls-2" d="M21,9H17.54V2.92a.66.66,0,0,0-.65-.66H11.72a.67.67,0,0,0-.66.66V9H3.36V7.47L6.88,4.83,3.36,3.07V2.26H2.26V9H1.11a.85.85,0,0,0-.74,1.28L2.62,14a.89.89,0,0,0,.74.41H18.77a.89.89,0,0,0,.74-.41l2.24-3.71A.84.84,0,0,0,21,9Z"/><path class="cls-3" d="M21,9H17.54V2.92a.66.66,0,0,0-.65-.66H11.72a.67.67,0,0,0-.66.66V9H3.36V7.47L6.88,4.83,3.36,3.07V2.26H2.26V9H1.11a.85.85,0,0,0-.74,1.28L2.62,14a.89.89,0,0,0,.74.41H18.77a.89.89,0,0,0,.74-.41l2.24-3.71A.84.84,0,0,0,21,9Z"/><rect class="cls-4" x="13.06" y="5.4" width="2.63" height="3.58"/><path d="M19.53,11.09a2,2,0,0,1-1.1-.3,1.93,1.93,0,0,0-2,0,2.17,2.17,0,0,1-2.2,0,1.93,1.93,0,0,0-2,0,2.17,2.17,0,0,1-2.2,0,1.93,1.93,0,0,0-2,0,2,2,0,0,1-1.1.3,2.07,2.07,0,0,1-1.1-.3,1.78,1.78,0,0,0-1-.28,1.81,1.81,0,0,0-1,.28,2,2,0,0,1-1.1.3,2.07,2.07,0,0,1-1.1-.3,1.78,1.78,0,0,0-1-.28c-.08,0-.15-.12-.15-.26S.55,10,.63,10a2,2,0,0,1,1.1.3,1.8,1.8,0,0,0,1,.29,1.77,1.77,0,0,0,1-.29,2.07,2.07,0,0,1,1.1-.3,2,2,0,0,1,1.1.3,1.8,1.8,0,0,0,1,.29,1.77,1.77,0,0,0,1-.29A2.07,2.07,0,0,1,9,10a2,2,0,0,1,1.1.3,1.87,1.87,0,0,0,2,0,2.17,2.17,0,0,1,2.2,0,1.87,1.87,0,0,0,2,0,2.17,2.17,0,0,1,2.2,0,1.87,1.87,0,0,0,2,0,2,2,0,0,1,1.1-.3c.09,0,.16.12.16.26s-.07.26-.16.26a1.81,1.81,0,0,0-1,.28,2,2,0,0,1-1.1.3Z"/><path d="M18.58,13.3a1.67,1.67,0,0,1-1-.31,1.49,1.49,0,0,0-.89-.28,1.47,1.47,0,0,0-.89.28,1.69,1.69,0,0,1-1,.31,1.67,1.67,0,0,1-1-.31,1.47,1.47,0,0,0-.89-.28,1.49,1.49,0,0,0-.89.28,1.67,1.67,0,0,1-1,.31,1.69,1.69,0,0,1-1-.31,1.47,1.47,0,0,0-.89-.28,1.49,1.49,0,0,0-.89.28,1.69,1.69,0,0,1-1.95,0,1.49,1.49,0,0,0-.89-.28,1.47,1.47,0,0,0-.89.28,1.69,1.69,0,0,1-1,.31,1.67,1.67,0,0,1-1-.31,1.47,1.47,0,0,0-.89-.28c-.08,0-.14-.12-.14-.26s.06-.26.14-.26a1.6,1.6,0,0,1,1,.31,1.47,1.47,0,0,0,.89.28,1.49,1.49,0,0,0,.89-.28,1.6,1.6,0,0,1,1-.31,1.65,1.65,0,0,1,1,.31,1.54,1.54,0,0,0,1.77,0,1.65,1.65,0,0,1,1-.31,1.6,1.6,0,0,1,1,.31,1.49,1.49,0,0,0,.89.28A1.47,1.47,0,0,0,12,12.5a1.7,1.7,0,0,1,2,0,1.47,1.47,0,0,0,.89.28,1.49,1.49,0,0,0,.89-.28,1.6,1.6,0,0,1,1-.31,1.65,1.65,0,0,1,1,.31,1.54,1.54,0,0,0,1.77,0,1.65,1.65,0,0,1,1-.31c.08,0,.14.12.14.26s-.06.26-.14.26a1.49,1.49,0,0,0-.89.28,1.66,1.66,0,0,1-1,.31Z"/></g></g></svg>