<svg xmlns="http://www.w3.org/2000/svg" viewBox="0 0 22.13 12.63"><defs><style>.cls-1,.cls-3{fill:#28e29a;}.cls-1{fill-rule:evenodd;}.cls-2{fill:none;}.cls-2,.cls-3{stroke:#000;stroke-linecap:round;stroke-linejoin:round;stroke-width:0.5px;}</style></defs><g id="图层_2" data-name="图层 2"><g id="图层_1-2" data-name="图层 1"><path class="cls-1" d="M21,7H17.55V.91a.66.66,0,0,0-.66-.66H11.72a.66.66,0,0,0-.66.66V7H3.36V5.46L6.88,2.81,3.36,1.05V.25H2.26V7H1.11A.85.85,0,0,0,.37,8.26L2.62,12a.87.87,0,0,0,.74.42H18.77a.87.87,0,0,0,.74-.42l2.24-3.7A.84.84,0,0,0,21,7Z"/><path class="cls-2" d="M21,7H17.55V.91a.66.66,0,0,0-.66-.66H11.72a.66.66,0,0,0-.66.66V7H3.36V5.46L6.88,2.81,3.36,1.05V.25H2.26V7H1.11A.85.85,0,0,0,.37,8.26L2.62,12a.87.87,0,0,0,.74.42H18.77a.87.87,0,0,0,.74-.42l2.24-3.7A.84.84,0,0,0,21,7Z"/><rect class="cls-3" x="13.06" y="3.39" width="2.63" height="3.58"/><path d="M19.53,9.08a2,2,0,0,1-1.1-.3,1.87,1.87,0,0,0-2,0,2.17,2.17,0,0,1-2.2,0,1.87,1.87,0,0,0-2,0,2.17,2.17,0,0,1-2.2,0,1.87,1.87,0,0,0-2,0,2,2,0,0,1-1.1.3,2.07,2.07,0,0,1-1.1-.3,1.77,1.77,0,0,0-1-.29,1.8,1.8,0,0,0-1,.29,2,2,0,0,1-1.1.3,2.1,2.1,0,0,1-1.1-.3,1.77,1.77,0,0,0-1-.29c-.08,0-.15-.11-.15-.25S.55,8,.63,8a2,2,0,0,1,1.1.3,1.8,1.8,0,0,0,1,.29,1.77,1.77,0,0,0,1-.29A2.07,2.07,0,0,1,4.83,8a2,2,0,0,1,1.1.3,1.8,1.8,0,0,0,1,.29,1.77,1.77,0,0,0,1-.29A2.07,2.07,0,0,1,9,8a2,2,0,0,1,1.1.3,1.87,1.87,0,0,0,2,0,2.17,2.17,0,0,1,2.2,0,1.87,1.87,0,0,0,2,0,2.17,2.17,0,0,1,2.2,0,1.87,1.87,0,0,0,2,0,2,2,0,0,1,1.1-.3c.09,0,.16.11.16.26s-.07.25-.16.25a1.8,1.8,0,0,0-1,.29,2,2,0,0,1-1.1.3Z"/><path d="M18.58,11.29a1.67,1.67,0,0,1-1-.31,1.49,1.49,0,0,0-.89-.28,1.47,1.47,0,0,0-.89.28,1.69,1.69,0,0,1-1,.31,1.67,1.67,0,0,1-1-.31A1.47,1.47,0,0,0,13,10.7a1.49,1.49,0,0,0-.89.28,1.67,1.67,0,0,1-1,.31,1.69,1.69,0,0,1-1-.31,1.47,1.47,0,0,0-.89-.28,1.49,1.49,0,0,0-.89.28,1.69,1.69,0,0,1-1.95,0,1.49,1.49,0,0,0-.89-.28,1.47,1.47,0,0,0-.89.28,1.69,1.69,0,0,1-1,.31,1.67,1.67,0,0,1-1-.31,1.47,1.47,0,0,0-.89-.28c-.08,0-.14-.12-.14-.26s.06-.26.14-.26a1.6,1.6,0,0,1,1,.31,1.47,1.47,0,0,0,.89.28,1.49,1.49,0,0,0,.89-.28,1.6,1.6,0,0,1,1-.31,1.65,1.65,0,0,1,1,.31,1.54,1.54,0,0,0,1.77,0,1.65,1.65,0,0,1,1-.31,1.6,1.6,0,0,1,1,.31,1.49,1.49,0,0,0,.89.28,1.47,1.47,0,0,0,.89-.28,1.7,1.7,0,0,1,2,0,1.47,1.47,0,0,0,.89.28,1.49,1.49,0,0,0,.89-.28,1.6,1.6,0,0,1,1-.31,1.65,1.65,0,0,1,1,.31,1.54,1.54,0,0,0,1.77,0,1.65,1.65,0,0,1,1-.31c.08,0,.14.12.14.26s-.06.26-.14.26a1.49,1.49,0,0,0-.89.28,1.66,1.66,0,0,1-1,.31Z"/></g></g></svg>