<svg xmlns="http://www.w3.org/2000/svg" viewBox="0 0 22.13 16"><defs><style>.cls-1,.cls-2,.cls-4{fill:#ff00ea;}.cls-2{fill-rule:evenodd;}.cls-3{fill:none;}.cls-3,.cls-4{stroke:#000;stroke-linecap:round;stroke-linejoin:round;stroke-width:0.5px;}</style></defs><g id="图层_2" data-name="图层 2"><g id="图层_1-2" data-name="图层 1"><path class="cls-1" d="M5.4,2.34a8,8,0,1,0,11.32,0A8,8,0,0,0,5.4,2.34ZM16.17,13.11a7.22,7.22,0,1,1,0-10.22A7.25,7.25,0,0,1,16.17,13.11Z"/><path class="cls-2" d="M21,9H17.54V2.91a.65.65,0,0,0-.65-.66H11.72a.66.66,0,0,0-.66.66V9H3.36V7.45L6.88,4.81,3.36,3.05v-.8H2.26V9H1.11a.85.85,0,0,0-.74,1.29L2.62,14a.87.87,0,0,0,.74.42H18.77a.87.87,0,0,0,.74-.42l2.24-3.7A.85.85,0,0,0,21,9Z"/><path class="cls-3" d="M21,9H17.54V2.91a.65.65,0,0,0-.65-.66H11.72a.66.66,0,0,0-.66.66V9H3.36V7.45L6.88,4.81,3.36,3.05v-.8H2.26V9H1.11a.85.85,0,0,0-.74,1.29L2.62,14a.87.87,0,0,0,.74.42H18.77a.87.87,0,0,0,.74-.42l2.24-3.7A.85.85,0,0,0,21,9Z"/><rect class="cls-4" x="13.06" y="5.39" width="2.63" height="3.58"/><path d="M19.5,11a2,2,0,0,1-1.1-.3,1.87,1.87,0,0,0-2,0,2.15,2.15,0,0,1-2.19,0,1.87,1.87,0,0,0-2,0,2.15,2.15,0,0,1-2.19,0,1.87,1.87,0,0,0-2,0,2,2,0,0,1-1.1.3,2.07,2.07,0,0,1-1.1-.3,1.76,1.76,0,0,0-1-.29,1.77,1.77,0,0,0-1,.29,2,2,0,0,1-1.1.3,2,2,0,0,1-1.1-.3,1.77,1.77,0,0,0-1-.29c-.08,0-.15-.11-.15-.25s.07-.26.15-.26a2,2,0,0,1,1.1.3,1.81,1.81,0,0,0,1,.28,1.81,1.81,0,0,0,1-.28,2,2,0,0,1,1.1-.3,2,2,0,0,1,1.09.3,1.93,1.93,0,0,0,2,0A2,2,0,0,1,9,9.88a2.07,2.07,0,0,1,1.1.3,1.91,1.91,0,0,0,2,0,2.17,2.17,0,0,1,2.2,0,1.81,1.81,0,0,0,1,.28,1.74,1.74,0,0,0,1-.28,2.1,2.1,0,0,1,1.1-.3,2,2,0,0,1,1.1.3,1.93,1.93,0,0,0,2,0,2,2,0,0,1,1.09-.3c.09,0,.16.11.16.26s-.07.25-.16.25a1.76,1.76,0,0,0-1,.29,2.07,2.07,0,0,1-1.1.3Z"/><path d="M18.66,13.19a1.74,1.74,0,0,1-1-.31,1.59,1.59,0,0,0-1.8,0,1.75,1.75,0,0,1-2,0,1.59,1.59,0,0,0-1.8,0,1.75,1.75,0,0,1-2,0,1.59,1.59,0,0,0-1.8,0,1.74,1.74,0,0,1-1,.31,1.7,1.7,0,0,1-1-.31,1.5,1.5,0,0,0-.9-.28,1.53,1.53,0,0,0-.91.28,1.74,1.74,0,0,1-2,0,1.51,1.51,0,0,0-.91-.28c-.07,0-.14-.12-.14-.26s.07-.26.14-.26a1.67,1.67,0,0,1,1,.31,1.5,1.5,0,0,0,.9.28,1.5,1.5,0,0,0,.9-.28,1.67,1.67,0,0,1,1-.31,1.66,1.66,0,0,1,1,.31,1.59,1.59,0,0,0,1.8,0,1.67,1.67,0,0,1,1-.31,1.63,1.63,0,0,1,1,.31,1.5,1.5,0,0,0,.9.28,1.53,1.53,0,0,0,.91-.28,1.74,1.74,0,0,1,2,0,1.6,1.6,0,0,0,1.81,0,1.74,1.74,0,0,1,2,0,1.56,1.56,0,0,0,.91.28,1.5,1.5,0,0,0,.9-.28,1.63,1.63,0,0,1,1-.31c.08,0,.14.12.14.26s-.06.26-.14.26a1.5,1.5,0,0,0-.9.28,1.73,1.73,0,0,1-1,.31Z"/></g></g></svg>