<svg xmlns="http://www.w3.org/2000/svg" viewBox="0 0 22.13 12.63"><defs><style>.cls-1,.cls-3{fill:#ff2f25;}.cls-1{fill-rule:evenodd;}.cls-2{fill:none;stroke:#000;stroke-miterlimit:10;stroke-width:0.5px;}</style></defs><g id="图层_2" data-name="图层 2"><g id="图层_1-2" data-name="图层 1"><path class="cls-1" d="M21,7H17.54V.91a.65.65,0,0,0-.65-.66H11.72a.66.66,0,0,0-.66.66V7H3.36V5.46L6.88,2.81,3.36,1.05V.25H2.26V7H1.11A.85.85,0,0,0,.37,8.26L2.62,12a.87.87,0,0,0,.74.42H18.77a.87.87,0,0,0,.74-.42l2.24-3.7A.84.84,0,0,0,21,7Z"/><path class="cls-2" d="M21,7H17.54V.91a.65.65,0,0,0-.65-.66H11.72a.66.66,0,0,0-.66.66V7H3.36V5.46L6.88,2.81,3.36,1.05V.25H2.26V7H1.11A.85.85,0,0,0,.37,8.26L2.62,12a.87.87,0,0,0,.74.42H18.77a.87.87,0,0,0,.74-.42l2.24-3.7A.84.84,0,0,0,21,7Z"/><rect class="cls-3" x="12.81" y="3.14" width="3.13" height="4.08"/><path d="M15.7,3.39V7H13.06V3.39H15.7m.5-.5H12.56V7.48H16.2V2.89Z"/></g></g></svg>