<svg xmlns="http://www.w3.org/2000/svg" viewBox="0 0 22.13 16"><defs><style>.cls-1,.cls-2{fill:#ff2f25;}.cls-2{fill-rule:evenodd;}.cls-3{fill:none;stroke:#000;stroke-miterlimit:10;stroke-width:0.5px;}</style></defs><g id="图层_2" data-name="图层 2"><g id="图层_1-2" data-name="图层 1"><path class="cls-1" d="M4.9,2.34a8,8,0,1,0,11.31,0A8,8,0,0,0,4.9,2.34ZM15.66,13.11a7.22,7.22,0,1,1,0-10.22A7.24,7.24,0,0,1,15.66,13.11Z"/><path class="cls-2" d="M21,8.73H17.55V2.66A.66.66,0,0,0,16.89,2H11.72a.66.66,0,0,0-.66.66V8.73H3.36V7.2L6.88,4.56,3.36,2.8V2H2.26V8.73H1.11A.85.85,0,0,0,.37,10l2.25,3.7a.87.87,0,0,0,.74.42H18.77a.87.87,0,0,0,.74-.42L21.75,10A.84.84,0,0,0,21,8.73Z"/><path class="cls-3" d="M21,8.73H17.55V2.66A.66.66,0,0,0,16.89,2H11.72a.66.66,0,0,0-.66.66V8.73H3.36V7.2L6.88,4.56,3.36,2.8V2H2.26V8.73H1.11A.85.85,0,0,0,.37,10l2.25,3.7a.87.87,0,0,0,.74.42H18.77a.87.87,0,0,0,.74-.42L21.75,10A.84.84,0,0,0,21,8.73Z"/><rect class="cls-1" x="12.81" y="4.89" width="3.13" height="4.08"/><path d="M15.7,5.14V8.73H13.06V5.14H15.7m.5-.5H12.56V9.23H16.2V4.64Z"/></g></g></svg>