<svg xmlns="http://www.w3.org/2000/svg" viewBox="0 0 22.13 16"><defs><style>.cls-1,.cls-2,.cls-4{fill:#f4fb34;}.cls-2{fill-rule:evenodd;}.cls-3{fill:none;}.cls-3,.cls-4{stroke:#000;stroke-linecap:round;stroke-linejoin:round;stroke-width:0.5px;}</style></defs><g id="图层_2" data-name="图层 2"><g id="图层_1-2" data-name="图层 1"><path class="cls-1" d="M4.9,2.34a8,8,0,1,0,11.31,0A8,8,0,0,0,4.9,2.34ZM15.66,13.11a7.22,7.22,0,1,1,0-10.22A7.24,7.24,0,0,1,15.66,13.11Z"/><path class="cls-2" d="M21,8.91H17.55V2.85a.66.66,0,0,0-.66-.66H11.72a.66.66,0,0,0-.66.66V8.91H3.36V7.39L6.88,4.75,3.36,3v-.8H2.26V8.91H1.11A.85.85,0,0,0,.37,10.2l2.25,3.7a.87.87,0,0,0,.74.42H18.77a.87.87,0,0,0,.74-.42l2.24-3.7A.85.85,0,0,0,21,8.91Z"/><path class="cls-3" d="M21,8.91H17.55V2.85a.66.66,0,0,0-.66-.66H11.72a.66.66,0,0,0-.66.66V8.91H3.36V7.39L6.88,4.75,3.36,3v-.8H2.26V8.91H1.11A.85.85,0,0,0,.37,10.2l2.25,3.7a.87.87,0,0,0,.74.42H18.77a.87.87,0,0,0,.74-.42l2.24-3.7A.85.85,0,0,0,21,8.91Z"/><rect class="cls-4" x="13.06" y="5.33" width="2.63" height="3.58"/></g></g></svg>