<svg xmlns="http://www.w3.org/2000/svg" viewBox="0 0 18.16 15.7"><defs><style>.cls-1{fill:#00f0ff;}</style></defs><g id="图层_2" data-name="图层 2"><g id="图层_1-2" data-name="图层 1"><path class="cls-1" d="M5.32,2.8,5.55,1A1.13,1.13,0,0,1,6.68,0h4.81a1.12,1.12,0,0,1,1.12,1l.23,1.82H17a1.13,1.13,0,0,1,1.13,1.13h0V14.58A1.12,1.12,0,0,1,17,15.7H1.14A1.13,1.13,0,0,1,0,14.58H0V3.93A1.14,1.14,0,0,1,1.14,2.8H5.32ZM9.08,14.2a4.95,4.95,0,1,0,0-9.89h0a4.95,4.95,0,1,0,0,9.89Zm0-2.14a2.81,2.81,0,1,1,0-5.61h0a2.81,2.81,0,1,1,0,5.61ZM2.38,2.34a.56.56,0,1,1,0-1.12H3.52a.56.56,0,1,1,0,1.12Z"/></g></g></svg>