<svg xmlns="http://www.w3.org/2000/svg" viewBox="0 0 21.84 19.67"><defs><style>.cls-1{fill:#00f0ff;}</style></defs><title>资源 201</title><g id="图层_2" data-name="图层 2"><g id="图层_1-2" data-name="图层 1"><polygon class="cls-1" points="14.29 3.58 11.06 0 7.41 0 10.63 3.58 14.29 3.58"/><polygon class="cls-1" points="9.54 3.58 6.31 0 2.66 0 5.89 3.58 9.54 3.58"/><polygon class="cls-1" points="19.04 3.58 15.81 0 12.15 0 15.38 3.58 19.04 3.58"/><path class="cls-1" d="M1.57,0H1.42A1.36,1.36,0,0,0,0,1.34V3.58H4.79Z"/><path class="cls-1" d="M20.41,0H16.9l3.23,3.58h1.71V1.34A1.36,1.36,0,0,0,20.41,0Z"/><path class="cls-1" d="M0,18.33a1.36,1.36,0,0,0,1.42,1.34h19a1.36,1.36,0,0,0,1.43-1.34V4.47H0ZM7.6,8.49c0-.76.66-1.12,1.42-1.12a1.63,1.63,0,0,1,.76.18l5.41,3a1.24,1.24,0,0,1,0,2.24L9.78,15.69a1.52,1.52,0,0,1-.76.18c-.76,0-1.42-.36-1.42-1.12Z"/></g></g></svg>