<svg xmlns="http://www.w3.org/2000/svg" viewBox="0 0 21.65 16.27"><defs><style>.cls-1{fill:#fff;}.cls-2{stroke:#fff;stroke-linecap:round;stroke-linejoin:round;stroke-width:0.5px;}</style></defs><g id="图层_2" data-name="图层 2"><g id="图层_1-2" data-name="图层 1"><path class="cls-1" d="M4.56,2.61a8,8,0,1,0,11.32,0A8,8,0,0,0,4.56,2.61ZM15.32,13.38a7.22,7.22,0,1,1,0-10.22A7.23,7.23,0,0,1,15.32,13.38Z"/><path class="cls-2" d="M21.28,6.5a.69.69,0,0,0-.57-.31l-3.23-.05a.79.79,0,0,0-.5.16l-.46,1.06H15V5.6a.67.67,0,0,0-.66-.66h-2.4l0-.9a.66.66,0,0,0-.66-.64H9.82a.66.66,0,0,0-.66.66V5.73H8.27a.64.64,0,0,0-.63.55L1.08.25l-.83.9L7,7.36H.94a.72.72,0,0,0-.56.28.72.72,0,0,0-.1.62L2.5,11.48c.25.32-.55,1.41,0,1.44s14.41,0,14.45,0c2,.14.3-1.71,1.37-2.51l3-3.24A.69.69,0,0,0,21.28,6.5Z"/></g></g></svg>