<svg xmlns="http://www.w3.org/2000/svg" viewBox="0 0 21.65 13.18"><defs><style>.cls-1{stroke:#fff;stroke-linecap:round;stroke-linejoin:round;stroke-width:0.5px;}.cls-2{fill:#fff;}</style></defs><g id="图层_2" data-name="图层 2"><g id="图层_1-2" data-name="图层 1"><path class="cls-1" d="M21.28,6.5a.69.69,0,0,0-.57-.31l-3.23-.05a.79.79,0,0,0-.5.16l-.46,1.06H15V5.6a.67.67,0,0,0-.66-.66h-2.4l0-.9a.66.66,0,0,0-.66-.64H9.82a.66.66,0,0,0-.66.66V5.73H8.27a.64.64,0,0,0-.63.55L1.08.25l-.83.9L7,7.36H.94a.72.72,0,0,0-.56.28.72.72,0,0,0-.1.62L2.5,11.48c.25.32-.55,1.41,0,1.44s14.41,0,14.45,0c2,.14.3-1.71,1.37-2.51l3-3.24A.69.69,0,0,0,21.28,6.5Z"/><path class="cls-2" d="M17.75,9.45a1.73,1.73,0,0,1-1-.3,1.5,1.5,0,0,0-.9-.28,1.47,1.47,0,0,0-.89.28,1.73,1.73,0,0,1-1,.3,1.71,1.71,0,0,1-1-.3,1.59,1.59,0,0,0-1.8,0,1.71,1.71,0,0,1-1,.3,1.67,1.67,0,0,1-1-.3,1.52,1.52,0,0,0-.9-.28,1.5,1.5,0,0,0-.9.28,1.71,1.71,0,0,1-1,.3,1.73,1.73,0,0,1-1-.3,1.5,1.5,0,0,0-.9-.28,1.49,1.49,0,0,0-.89.28,1.73,1.73,0,0,1-1,.3,1.71,1.71,0,0,1-1-.3,1.5,1.5,0,0,0-.9-.28c-.08,0-.14-.12-.14-.26s.06-.26.14-.26a1.71,1.71,0,0,1,1,.3,1.43,1.43,0,0,0,.9.29,1.43,1.43,0,0,0,.9-.29,1.67,1.67,0,0,1,1-.3,1.71,1.71,0,0,1,1,.3,1.43,1.43,0,0,0,.9.29,1.43,1.43,0,0,0,.9-.29,1.71,1.71,0,0,1,1-.3,1.73,1.73,0,0,1,1,.3,1.4,1.4,0,0,0,.89.29,1.43,1.43,0,0,0,.9-.29,1.73,1.73,0,0,1,1-.3,1.71,1.71,0,0,1,1,.3,1.43,1.43,0,0,0,.9.29,1.46,1.46,0,0,0,.9-.29,1.67,1.67,0,0,1,1-.3,1.71,1.71,0,0,1,1,.3,1.54,1.54,0,0,0,1.8,0,1.71,1.71,0,0,1,1-.3c.07,0,.14.12.14.26s-.07.26-.14.26a1.5,1.5,0,0,0-.9.28,1.73,1.73,0,0,1-1,.3Z"/><path class="cls-2" d="M16.29,11.9a1.24,1.24,0,0,1-.82-.3,1.12,1.12,0,0,0-1.48,0,1.26,1.26,0,0,1-1.63,0,1.13,1.13,0,0,0-1.49,0,1.24,1.24,0,0,1-.81.3,1.27,1.27,0,0,1-.82-.3,1.12,1.12,0,0,0-1.48,0,1.26,1.26,0,0,1-1.63,0,1.1,1.1,0,0,0-.74-.28,1.15,1.15,0,0,0-.75.28,1.24,1.24,0,0,1-.81.3A1.27,1.27,0,0,1,3,11.6a1.1,1.1,0,0,0-.74-.28c-.06,0-.12-.12-.12-.26s.06-.26.12-.26a1.27,1.27,0,0,1,.82.3,1.09,1.09,0,0,0,1.48,0,1.26,1.26,0,0,1,1.63,0,1.1,1.1,0,0,0,.74.29,1.15,1.15,0,0,0,.75-.29,1.24,1.24,0,0,1,.81-.3,1.27,1.27,0,0,1,.82.3,1.09,1.09,0,0,0,1.48,0,1.26,1.26,0,0,1,1.63,0,1.09,1.09,0,0,0,1.48,0,1.27,1.27,0,0,1,1.64,0,1.09,1.09,0,0,0,1.48,0,1.24,1.24,0,0,1,.82-.3c.06,0,.11.12.11.26s-.05.26-.11.26a1.1,1.1,0,0,0-.75.28,1.14,1.14,0,0,1-.81.3Z"/></g></g></svg>