<svg xmlns="http://www.w3.org/2000/svg" viewBox="0 0 21.65 13.18"><defs><style>.cls-1{fill:#46ccff;stroke:#000;stroke-linecap:round;stroke-linejoin:round;stroke-width:0.5px;}</style></defs><g id="图层_2" data-name="图层 2"><g id="图层_1-2" data-name="图层 1"><path class="cls-1" d="M21.28,6.5a.69.69,0,0,0-.57-.31l-3.23-.05a.79.79,0,0,0-.5.16l-.46,1.06H15V5.6a.67.67,0,0,0-.66-.66h-2.4l0-.9a.66.66,0,0,0-.66-.64H9.82a.66.66,0,0,0-.66.66V5.73H8.27a.64.64,0,0,0-.63.55L1.08.25l-.83.9L7,7.36H.94a.72.72,0,0,0-.56.28.72.72,0,0,0-.1.62L2.5,11.48c.25.32-.55,1.41,0,1.44s14.41,0,14.45,0c2,.14.3-1.71,1.37-2.51l3-3.24A.69.69,0,0,0,21.28,6.5Z"/><path d="M17.79,9.59a1.73,1.73,0,0,1-1-.3A1.5,1.5,0,0,0,15.9,9a1.52,1.52,0,0,0-.9.28,1.67,1.67,0,0,1-1,.3,1.71,1.71,0,0,1-1-.3,1.59,1.59,0,0,0-1.8,0,1.71,1.71,0,0,1-1,.3,1.67,1.67,0,0,1-1-.3A1.52,1.52,0,0,0,8.36,9a1.5,1.5,0,0,0-.9.28,1.78,1.78,0,0,1-2,0A1.5,1.5,0,0,0,4.58,9a1.47,1.47,0,0,0-.89.28,1.73,1.73,0,0,1-1,.3,1.71,1.71,0,0,1-1-.3A1.5,1.5,0,0,0,.81,9C.73,9,.67,8.89.67,8.75s.06-.26.14-.26a1.73,1.73,0,0,1,1,.3,1.5,1.5,0,0,0,.9.29,1.52,1.52,0,0,0,.9-.29,1.67,1.67,0,0,1,1-.3,1.71,1.71,0,0,1,1,.3,1.54,1.54,0,0,0,1.8,0,1.71,1.71,0,0,1,1-.3,1.73,1.73,0,0,1,1,.3,1.46,1.46,0,0,0,.89.29,1.5,1.5,0,0,0,.9-.29,1.78,1.78,0,0,1,2,0,1.5,1.5,0,0,0,.9.29,1.46,1.46,0,0,0,.89-.29,1.73,1.73,0,0,1,1-.3,1.71,1.71,0,0,1,1,.3,1.54,1.54,0,0,0,1.8,0,1.71,1.71,0,0,1,1-.3c.07,0,.14.12.14.26s-.07.26-.14.26a1.5,1.5,0,0,0-.9.28,1.73,1.73,0,0,1-1,.3Z"/><path d="M16.33,12a1.24,1.24,0,0,1-.82-.3,1.09,1.09,0,0,0-1.48,0,1.26,1.26,0,0,1-1.63,0,1.1,1.1,0,0,0-1.49,0,1.26,1.26,0,0,1-1.63,0,1.09,1.09,0,0,0-1.48,0,1.26,1.26,0,0,1-1.63,0,1.1,1.1,0,0,0-1.49,0,1.26,1.26,0,0,1-1.63,0,1.1,1.1,0,0,0-.74-.29c-.06,0-.12-.11-.12-.25s.06-.26.12-.26a1.27,1.27,0,0,1,.82.3,1.09,1.09,0,0,0,1.48,0,1.26,1.26,0,0,1,1.63,0,1.09,1.09,0,0,0,1.48,0,1.27,1.27,0,0,1,1.64,0,1.09,1.09,0,0,0,1.48,0,1.26,1.26,0,0,1,1.63,0,1.09,1.09,0,0,0,1.48,0,1.27,1.27,0,0,1,1.64,0,1.09,1.09,0,0,0,1.48,0,1.24,1.24,0,0,1,.81-.3c.07,0,.12.11.12.26s-.05.25-.12.25a1.1,1.1,0,0,0-.74.29,1.14,1.14,0,0,1-.81.3Z"/></g></g></svg>