<svg xmlns="http://www.w3.org/2000/svg" viewBox="0 0 21.75 16"><defs><style>.cls-1,.cls-2{fill:#ff7300;}.cls-2{stroke:#000;stroke-miterlimit:10;stroke-width:0.5px;}</style></defs><g id="图层_2" data-name="图层 2"><g id="图层_1-2" data-name="图层 1"><path class="cls-1" d="M4.66,2.34A8,8,0,1,0,16,2.34,8,8,0,0,0,4.66,2.34ZM15.43,13.11a7.23,7.23,0,1,1,0-10.22A7.25,7.25,0,0,1,15.43,13.11Z"/><path class="cls-2" d="M21.38,6.78a.68.68,0,0,0-.56-.3l-3.24-.06a.8.8,0,0,0-.5.17l-.46,1.06H15.08V5.88a.65.65,0,0,0-.66-.65H12l0-.91a.65.65,0,0,0-.65-.64H9.92a.67.67,0,0,0-.66.66V6H8.38a.65.65,0,0,0-.64.55L1.18.54l-.83.9L7.1,7.65H1a.67.67,0,0,0-.55.28.7.7,0,0,0-.11.61L2.6,11.76c.25.33-.55,1.42,0,1.45s14.41,0,14.46,0c2,.14.29-1.71,1.36-2.51l3-3.24A.68.68,0,0,0,21.38,6.78Z"/></g></g></svg>