<svg xmlns="http://www.w3.org/2000/svg" viewBox="0 0 21.65 16"><defs><style>.cls-1,.cls-2{fill:#f4fb34;}.cls-2{stroke:#000;stroke-linecap:round;stroke-linejoin:round;stroke-width:0.5px;}</style></defs><g id="图层_2" data-name="图层 2"><g id="图层_1-2" data-name="图层 1"><path class="cls-1" d="M4.56,2.34a8,8,0,1,0,11.32,0A8,8,0,0,0,4.56,2.34ZM15.32,13.11a7.22,7.22,0,1,1,0-10.22A7.24,7.24,0,0,1,15.32,13.11Z"/><path class="cls-2" d="M21.28,6.51a.71.71,0,0,0-.57-.3l-3.23,0a.73.73,0,0,0-.5.16l-.46,1.06H15V5.62A.66.66,0,0,0,14.32,5h-2.4l0-.91a.65.65,0,0,0-.66-.63H9.82a.66.66,0,0,0-.66.65V5.75H8.27a.64.64,0,0,0-.63.55L1.08.27l-.83.9L7,7.38H.94a.68.68,0,0,0-.66.89L2.5,11.5c.25.32-.55,1.41,0,1.44s14.41,0,14.45,0c2,.14.3-1.71,1.37-2.51l3-3.24A.71.71,0,0,0,21.28,6.51Z"/></g></g></svg>