<svg xmlns="http://www.w3.org/2000/svg" viewBox="0 0 10 16"><defs><style>.cls-1,.cls-4{fill-rule:evenodd;}.cls-2,.cls-4{fill:#fff;}.cls-3{opacity:0.8;}</style></defs><g id="图层_2" data-name="图层 2"><g id="图层_1-2" data-name="图层 1"><polygon class="cls-1" points="0.34 15.75 5 0.84 9.66 15.75 0.34 15.75"/><path class="cls-2" d="M5,1.68,6.61,6.84l1.22,3.88.17.55.69,2.2.63,2H.68l.63-2L2,11.27l.18-.55L3.39,6.84,5,1.68M5,0,2.91,6.69,1.7,10.57l-.18.56-.68,2.2L0,16H10l-.84-2.67-.68-2.2-.18-.56L7.09,6.69,5,0Z"/><g class="cls-3"><polygon class="cls-4" points="5.48 7.06 4.52 7.06 3.91 9.02 6.09 9.02 5.48 7.06"/><polygon class="cls-4" points="6.71 11.67 3.29 11.67 2.68 13.62 7.32 13.62 6.71 11.67"/></g></g></g></svg>