<svg xmlns="http://www.w3.org/2000/svg" viewBox="0 0 22.03 16"><defs><style>.cls-1{fill:#fff;}.cls-2{fill:none;}.cls-2,.cls-3{stroke:#fff;stroke-linecap:round;stroke-linejoin:round;stroke-width:0.5px;}</style></defs><g id="图层_2" data-name="图层 2"><g id="图层_1-2" data-name="图层 1"><path class="cls-1" d="M4.25,2.34a8,8,0,1,0,11.32,0A8,8,0,0,0,4.25,2.34ZM15,13.11A7.22,7.22,0,1,1,15,2.89,7.24,7.24,0,0,1,15,13.11Z"/><path d="M15.66,6.2,11.89,2,7.82,3C6.53,1.25,5.65,1.81,5.65,1.81l-2.1.46L3.84,4l-.95.19L3.1,5.68l2.83-.5L4.8,8.33l-3,.59L.25,14.52c1.31-.11,16.29-1.35,18.37-3S21.78,5,21.78,5Z"/><path class="cls-2" d="M15.66,6.2,11.89,2,7.82,3C6.53,1.25,5.65,1.81,5.65,1.81l-2.1.46L3.84,4l-.95.19L3.1,5.68l2.83-.5L4.8,8.33l-3,.59L.25,14.52c1.31-.11,16.29-1.35,18.37-3S21.78,5,21.78,5Z"/><path class="cls-3" d="M12.48,5.59l-.31-.78a.51.51,0,0,0-.58-.23l-1.34.26c-.25,0-.4.23-.33.41l.31.78a.53.53,0,0,0,.59.23L12.15,6C12.4,6,12.55,5.77,12.48,5.59Z"/><path class="cls-1" d="M17.78,11.31a1.59,1.59,0,0,1-1-.31,1.45,1.45,0,0,0-.87-.28,1.39,1.39,0,0,0-.86.28,1.62,1.62,0,0,1-1,.31,1.59,1.59,0,0,1-1-.31,1.48,1.48,0,0,0-1.73,0,1.63,1.63,0,0,1-1.91,0,1.48,1.48,0,0,0-1.73,0,1.63,1.63,0,0,1-1.91,0,1.39,1.39,0,0,0-.86-.28,1.4,1.4,0,0,0-.87.28,1.61,1.61,0,0,1-1.9,0,1.45,1.45,0,0,0-.87-.28c-.07,0-.14-.12-.14-.26s.07-.26.14-.26a1.59,1.59,0,0,1,1,.31,1.45,1.45,0,0,0,.87.28,1.39,1.39,0,0,0,.86-.28,1.65,1.65,0,0,1,1-.31,1.59,1.59,0,0,1,1,.31,1.48,1.48,0,0,0,1.73,0,1.63,1.63,0,0,1,1.91,0,1.48,1.48,0,0,0,1.73,0,1.63,1.63,0,0,1,1.91,0,1.48,1.48,0,0,0,1.73,0,1.61,1.61,0,0,1,1.9,0,1.49,1.49,0,0,0,1.74,0,1.59,1.59,0,0,1,1-.31c.07,0,.14.12.14.26s-.07.26-.14.26a1.45,1.45,0,0,0-.87.28,1.59,1.59,0,0,1-.95.31Z"/><path class="cls-1" d="M19.29,9a1.23,1.23,0,0,1-.84-.31,1.18,1.18,0,0,0-.77-.28,1.16,1.16,0,0,0-.77.28,1.31,1.31,0,0,1-1.69,0,1.16,1.16,0,0,0-.77-.28,1.18,1.18,0,0,0-.77.28,1.25,1.25,0,0,1-.84.31A1.28,1.28,0,0,1,12,8.66a1.19,1.19,0,0,0-1.53,0A1.28,1.28,0,0,1,9.61,9a1.23,1.23,0,0,1-.84-.31A1.18,1.18,0,0,0,8,8.38a1.16,1.16,0,0,0-.77.28,1.31,1.31,0,0,1-1.69,0,1.16,1.16,0,0,0-.77-.28c-.06,0-.12-.12-.12-.26s.06-.26.12-.26a1.34,1.34,0,0,1,.85.31,1.19,1.19,0,0,0,1.53,0A1.34,1.34,0,0,1,8,7.86a1.31,1.31,0,0,1,.84.31,1.18,1.18,0,0,0,.77.28,1.16,1.16,0,0,0,.77-.28,1.31,1.31,0,0,1,1.69,0,1.16,1.16,0,0,0,.77.28,1.18,1.18,0,0,0,.77-.28,1.28,1.28,0,0,1,.84-.31,1.34,1.34,0,0,1,.85.31,1.19,1.19,0,0,0,1.53,0,1.34,1.34,0,0,1,.85-.31,1.31,1.31,0,0,1,.84.31,1.18,1.18,0,0,0,.77.28,1.16,1.16,0,0,0,.77-.28,1.33,1.33,0,0,1,.84-.31c.07,0,.12.12.12.26s-.05.26-.12.26a1.13,1.13,0,0,0-.76.28,1.19,1.19,0,0,1-.85.31Z"/></g></g></svg>