<svg xmlns="http://www.w3.org/2000/svg" viewBox="0 0 22.03 13.3"><defs><style>.cls-1{fill:none;}.cls-1,.cls-2{stroke:#fff;stroke-linecap:round;stroke-linejoin:round;stroke-width:0.5px;}.cls-3{fill:#fff;}</style></defs><g id="图层_2" data-name="图层 2"><g id="图层_1-2" data-name="图层 1"><path d="M15.66,4.72,11.89.56l-4.07,1C6.53-.23,5.65.33,5.65.33L3.55.79l.29,1.69-.95.2L3.1,4.2l2.83-.5L4.8,6.85l-3,.59L.25,13.05c1.31-.12,16.29-1.36,18.37-3s3.16-6.57,3.16-6.57Z"/><path class="cls-1" d="M15.66,4.72,11.89.56l-4.07,1C6.53-.23,5.65.33,5.65.33L3.55.79l.29,1.69-.95.2L3.1,4.2l2.83-.5L4.8,6.85l-3,.59L.25,13.05c1.31-.12,16.29-1.36,18.37-3s3.16-6.57,3.16-6.57Z"/><path class="cls-2" d="M12.48,4.11l-.31-.78a.53.53,0,0,0-.58-.23l-1.34.26c-.25.05-.4.23-.33.41l.31.78a.52.52,0,0,0,.59.23l1.33-.26C12.4,4.47,12.55,4.29,12.48,4.11Z"/><path class="cls-3" d="M17.78,9.83a1.59,1.59,0,0,1-1-.3A1.38,1.38,0,0,0,16,9.24a1.33,1.33,0,0,0-.86.29,1.63,1.63,0,0,1-1,.3,1.59,1.59,0,0,1-1-.3,1.44,1.44,0,0,0-1.73,0,1.67,1.67,0,0,1-1.91,0,1.44,1.44,0,0,0-1.73,0,1.67,1.67,0,0,1-1.91,0,1.33,1.33,0,0,0-.86-.29,1.34,1.34,0,0,0-.87.29,1.59,1.59,0,0,1-.95.3,1.59,1.59,0,0,1-1-.3,1.38,1.38,0,0,0-.87-.29c-.07,0-.14-.11-.14-.26s.07-.25.14-.25a1.59,1.59,0,0,1,1,.3,1.45,1.45,0,0,0,.87.28A1.39,1.39,0,0,0,4.09,9a1.65,1.65,0,0,1,1-.3A1.59,1.59,0,0,1,6,9,1.48,1.48,0,0,0,7.73,9,1.67,1.67,0,0,1,9.64,9a1.48,1.48,0,0,0,1.73,0,1.67,1.67,0,0,1,1.91,0A1.48,1.48,0,0,0,15,9a1.65,1.65,0,0,1,1.9,0,1.49,1.49,0,0,0,1.74,0,1.59,1.59,0,0,1,1-.3c.07,0,.14.11.14.25s-.07.26-.14.26a1.38,1.38,0,0,0-.87.29,1.59,1.59,0,0,1-.95.3Z"/><path class="cls-3" d="M19.29,7.49a1.28,1.28,0,0,1-.84-.3,1.18,1.18,0,0,0-.77-.29,1.16,1.16,0,0,0-.77.29,1.34,1.34,0,0,1-1.69,0,1.16,1.16,0,0,0-.77-.29,1.18,1.18,0,0,0-.77.29,1.31,1.31,0,0,1-.84.3,1.34,1.34,0,0,1-.85-.3,1.16,1.16,0,0,0-.77-.29,1.13,1.13,0,0,0-.76.29,1.34,1.34,0,0,1-.85.3,1.28,1.28,0,0,1-.84-.3A1.18,1.18,0,0,0,8,6.9a1.16,1.16,0,0,0-.77.29,1.34,1.34,0,0,1-1.69,0,1.16,1.16,0,0,0-.77-.29c-.06,0-.12-.11-.12-.25s.06-.26.12-.26a1.34,1.34,0,0,1,.85.3,1.15,1.15,0,0,0,1.53,0A1.34,1.34,0,0,1,8,6.39a1.31,1.31,0,0,1,.84.3A1.18,1.18,0,0,0,9.61,7a1.16,1.16,0,0,0,.77-.29,1.34,1.34,0,0,1,1.69,0,1.16,1.16,0,0,0,.77.29,1.18,1.18,0,0,0,.77-.29,1.28,1.28,0,0,1,.84-.3,1.34,1.34,0,0,1,.85.3,1.13,1.13,0,0,0,.76.29,1.16,1.16,0,0,0,.77-.29,1.34,1.34,0,0,1,.85-.3,1.31,1.31,0,0,1,.84.3,1.17,1.17,0,0,0,1.54,0,1.33,1.33,0,0,1,.84-.3c.07,0,.12.11.12.26s-.05.25-.12.25a1.13,1.13,0,0,0-.76.29,1.23,1.23,0,0,1-.85.3Z"/></g></g></svg>