<svg xmlns="http://www.w3.org/2000/svg" viewBox="0 0 22.03 16"><defs><style>.cls-1{fill:#46ccff;}.cls-2{fill:none;}.cls-2,.cls-3{stroke:#000;stroke-linecap:round;stroke-linejoin:round;stroke-width:0.5px;}.cls-3{fill:#0782ad;}</style></defs><g id="图层_2" data-name="图层 2"><g id="图层_1-2" data-name="图层 1"><path class="cls-1" d="M4.42,2.34a8,8,0,1,0,11.32,0A8,8,0,0,0,4.42,2.34ZM15.18,13.11a7.22,7.22,0,1,1,0-10.22A7.24,7.24,0,0,1,15.18,13.11Z"/><path class="cls-1" d="M15.66,6.24,11.89,2.08l-4.07,1C6.53,1.29,5.65,1.85,5.65,1.85l-2.1.46L3.84,4l-.95.19L3.1,5.72l2.83-.5L4.8,8.37,1.81,9,.25,14.56c1.31-.11,16.29-1.35,18.37-3S21.78,5,21.78,5Z"/><path class="cls-2" d="M15.66,6.24,11.89,2.08l-4.07,1C6.53,1.29,5.65,1.85,5.65,1.85l-2.1.46L3.84,4l-.95.19L3.1,5.72l2.83-.5L4.8,8.37,1.81,9,.25,14.56c1.31-.11,16.29-1.35,18.37-3S21.78,5,21.78,5Z"/><path class="cls-3" d="M12.48,5.63l-.31-.78a.51.51,0,0,0-.58-.23l-1.34.26c-.25,0-.4.23-.33.41l.31.78a.53.53,0,0,0,.59.23L12.15,6C12.4,6,12.55,5.81,12.48,5.63Z"/></g></g></svg>