<svg xmlns="http://www.w3.org/2000/svg" viewBox="0 0 22.03 13.3"><defs><style>.cls-1{fill:#46ccff;}.cls-2{fill:none;}.cls-2,.cls-3{stroke:#000;stroke-linecap:round;stroke-linejoin:round;stroke-width:0.5px;}.cls-3{fill:#0782ad;}</style></defs><g id="图层_2" data-name="图层 2"><g id="图层_1-2" data-name="图层 1"><path class="cls-1" d="M15.66,4.72,11.89.56l-4.07,1C6.53-.23,5.65.33,5.65.33L3.55.79l.29,1.69-.95.2L3.1,4.2l2.83-.5L4.8,6.85l-3,.59L.25,13.05c1.31-.12,16.29-1.36,18.37-3s3.16-6.57,3.16-6.57Z"/><path class="cls-2" d="M15.66,4.72,11.89.56l-4.07,1C6.53-.23,5.65.33,5.65.33L3.55.79l.29,1.69-.95.2L3.1,4.2l2.83-.5L4.8,6.85l-3,.59L.25,13.05c1.31-.12,16.29-1.36,18.37-3s3.16-6.57,3.16-6.57Z"/><path class="cls-3" d="M12.48,4.11l-.31-.78a.53.53,0,0,0-.58-.23l-1.34.26c-.25.05-.4.23-.33.41l.31.78a.52.52,0,0,0,.59.23l1.33-.26C12.4,4.47,12.55,4.29,12.48,4.11Z"/></g></g></svg>