<svg xmlns="http://www.w3.org/2000/svg" viewBox="0 0 22.03 13.3"><defs><style>.cls-1,.cls-3{fill:#28e29a;}.cls-2{fill:none;}.cls-2,.cls-3{stroke:#000;stroke-linecap:round;stroke-linejoin:round;stroke-width:0.5px;}</style></defs><g id="图层_2" data-name="图层 2"><g id="图层_1-2" data-name="图层 1"><path class="cls-1" d="M15.66,4.72,11.89.56l-4.07,1C6.53-.23,5.65.33,5.65.33L3.55.79l.29,1.69-.95.2L3.1,4.2l2.83-.5L4.8,6.85l-3,.59L.25,13.05c1.31-.12,16.29-1.36,18.37-3s3.16-6.57,3.16-6.57Z"/><path class="cls-2" d="M15.66,4.72,11.89.56l-4.07,1C6.53-.23,5.65.33,5.65.33L3.55.79l.29,1.69-.95.2L3.1,4.2l2.83-.5L4.8,6.85l-3,.59L.25,13.05c1.31-.12,16.29-1.36,18.37-3s3.16-6.57,3.16-6.57Z"/><path class="cls-3" d="M12.48,4.11l-.31-.78a.53.53,0,0,0-.58-.23l-1.34.26c-.25.05-.4.23-.33.41l.31.78a.52.52,0,0,0,.59.23l1.33-.26C12.4,4.47,12.55,4.29,12.48,4.11Z"/><path d="M17.65,10a1.59,1.59,0,0,1-.95-.31A1.49,1.49,0,0,0,15,9.7a1.61,1.61,0,0,1-1.9,0,1.49,1.49,0,0,0-1.74,0,1.61,1.61,0,0,1-1.9,0,1.48,1.48,0,0,0-1.73,0,1.63,1.63,0,0,1-1.91,0,1.39,1.39,0,0,0-.86-.28,1.4,1.4,0,0,0-.87.28,1.63,1.63,0,0,1-1.91,0,1.39,1.39,0,0,0-.86-.28c-.08,0-.14-.12-.14-.26s.06-.26.14-.26a1.61,1.61,0,0,1,1,.31,1.4,1.4,0,0,0,.87.28A1.39,1.39,0,0,0,4,9.21a1.63,1.63,0,0,1,1.91,0,1.48,1.48,0,0,0,1.73,0,1.63,1.63,0,0,1,1.91,0,1.48,1.48,0,0,0,1.73,0,1.61,1.61,0,0,1,1.9,0,1.49,1.49,0,0,0,1.74,0,1.61,1.61,0,0,1,1.9,0,1.48,1.48,0,0,0,1.73,0,1.62,1.62,0,0,1,1-.31c.07,0,.13.12.13.26s-.06.26-.13.26a1.4,1.4,0,0,0-.87.28,1.59,1.59,0,0,1-1,.31Z"/><path d="M19.16,7.67a1.34,1.34,0,0,1-.85-.31,1.19,1.19,0,0,0-1.53,0,1.34,1.34,0,0,1-.85.31,1.31,1.31,0,0,1-.84-.31,1.18,1.18,0,0,0-.77-.28,1.16,1.16,0,0,0-.77.28,1.31,1.31,0,0,1-1.69,0,1.16,1.16,0,0,0-.77-.28,1.18,1.18,0,0,0-.77.28,1.28,1.28,0,0,1-.84.31,1.34,1.34,0,0,1-.85-.31,1.19,1.19,0,0,0-1.53,0,1.34,1.34,0,0,1-.85.31,1.31,1.31,0,0,1-.84-.31,1.18,1.18,0,0,0-.77-.28c-.07,0-.12-.12-.12-.26s.05-.26.12-.26a1.28,1.28,0,0,1,.84.31,1.18,1.18,0,0,0,.77.28A1.16,1.16,0,0,0,7,6.87a1.31,1.31,0,0,1,1.69,0,1.16,1.16,0,0,0,.77.28,1.18,1.18,0,0,0,.77-.28,1.31,1.31,0,0,1,.84-.31,1.34,1.34,0,0,1,.85.31,1.19,1.19,0,0,0,1.53,0,1.34,1.34,0,0,1,.85-.31,1.31,1.31,0,0,1,.84.31,1.18,1.18,0,0,0,.77.28,1.16,1.16,0,0,0,.77-.28,1.31,1.31,0,0,1,1.69,0,1.16,1.16,0,0,0,.77.28,1.18,1.18,0,0,0,.77-.28,1.31,1.31,0,0,1,.84-.31c.07,0,.12.12.12.26s-.05.26-.12.26a1.18,1.18,0,0,0-.77.28,1.16,1.16,0,0,1-.84.31Z"/></g></g></svg>