<svg xmlns="http://www.w3.org/2000/svg" viewBox="0 0 22.03 16"><defs><style>.cls-1,.cls-3{fill:#ff00ea;}.cls-2{fill:none;}.cls-2,.cls-3{stroke:#000;stroke-linecap:round;stroke-linejoin:round;stroke-width:0.5px;}</style></defs><g id="图层_2" data-name="图层 2"><g id="图层_1-2" data-name="图层 1"><path class="cls-1" d="M4.25,2.34a8,8,0,1,0,11.32,0A8,8,0,0,0,4.25,2.34ZM15,13.11A7.22,7.22,0,1,1,15,2.89,7.24,7.24,0,0,1,15,13.11Z"/><path class="cls-1" d="M15.66,5.89,11.89,1.73l-4.07,1C6.53.94,5.65,1.51,5.65,1.51L3.55,2l.29,1.7-.95.19L3.1,5.37l2.83-.5L4.8,8l-3,.59L.25,14.22c1.31-.12,16.29-1.36,18.37-3s3.16-6.57,3.16-6.57Z"/><path class="cls-2" d="M15.66,5.89,11.89,1.73l-4.07,1C6.53.94,5.65,1.51,5.65,1.51L3.55,2l.29,1.7-.95.19L3.1,5.37l2.83-.5L4.8,8l-3,.59L.25,14.22c1.31-.12,16.29-1.36,18.37-3s3.16-6.57,3.16-6.57Z"/><path class="cls-3" d="M12.48,5.28l-.31-.77a.52.52,0,0,0-.58-.24l-1.34.26c-.25,0-.4.23-.33.41l.31.78a.52.52,0,0,0,.59.23l1.33-.26C12.4,5.64,12.55,5.46,12.48,5.28Z"/><path d="M17.65,11a1.59,1.59,0,0,1-.95-.3,1.45,1.45,0,0,0-1.74,0,1.65,1.65,0,0,1-1.9,0,1.45,1.45,0,0,0-1.74,0,1.65,1.65,0,0,1-1.9,0,1.44,1.44,0,0,0-1.73,0,1.67,1.67,0,0,1-1.91,0,1.44,1.44,0,0,0-1.73,0,1.62,1.62,0,0,1-.95.3,1.63,1.63,0,0,1-1-.3,1.39,1.39,0,0,0-.86-.29c-.08,0-.14-.11-.14-.25s.06-.26.14-.26a1.62,1.62,0,0,1,1,.3,1.4,1.4,0,0,0,.87.28A1.39,1.39,0,0,0,4,10.19a1.67,1.67,0,0,1,1.91,0,1.48,1.48,0,0,0,1.73,0,1.67,1.67,0,0,1,1.91,0,1.48,1.48,0,0,0,1.73,0,1.65,1.65,0,0,1,1.9,0,1.49,1.49,0,0,0,1.74,0,1.65,1.65,0,0,1,1.9,0,1.48,1.48,0,0,0,1.73,0,1.63,1.63,0,0,1,1-.3c.07,0,.13.11.13.26s-.06.25-.13.25a1.4,1.4,0,0,0-.87.29,1.59,1.59,0,0,1-1,.3Z"/><path d="M19.16,8.65a1.34,1.34,0,0,1-.85-.3,1.19,1.19,0,0,0-1.53,0,1.34,1.34,0,0,1-.85.3,1.31,1.31,0,0,1-.84-.3,1.18,1.18,0,0,0-.77-.28,1.16,1.16,0,0,0-.77.28,1.34,1.34,0,0,1-1.69,0,1.16,1.16,0,0,0-.77-.28,1.18,1.18,0,0,0-.77.28,1.28,1.28,0,0,1-.84.3,1.34,1.34,0,0,1-.85-.3,1.19,1.19,0,0,0-1.53,0,1.34,1.34,0,0,1-.85.3,1.31,1.31,0,0,1-.84-.3,1.18,1.18,0,0,0-.77-.28c-.07,0-.12-.12-.12-.26s.05-.26.12-.26a1.28,1.28,0,0,1,.84.3,1.13,1.13,0,0,0,.77.29A1.11,1.11,0,0,0,7,7.85a1.34,1.34,0,0,1,1.69,0,1.11,1.11,0,0,0,.77.29,1.13,1.13,0,0,0,.77-.29,1.31,1.31,0,0,1,.84-.3,1.34,1.34,0,0,1,.85.3,1.15,1.15,0,0,0,1.53,0,1.34,1.34,0,0,1,.85-.3,1.28,1.28,0,0,1,.84.3,1.13,1.13,0,0,0,.77.29,1.11,1.11,0,0,0,.77-.29,1.34,1.34,0,0,1,1.69,0,1.11,1.11,0,0,0,.77.29,1.13,1.13,0,0,0,.77-.29,1.31,1.31,0,0,1,.84-.3c.07,0,.12.12.12.26s-.05.26-.12.26a1.18,1.18,0,0,0-.77.28,1.2,1.2,0,0,1-.84.3Z"/></g></g></svg>