<svg xmlns="http://www.w3.org/2000/svg" viewBox="0 0 22.03 16"><defs><style>.cls-1,.cls-3{fill:#ff00ea;}.cls-2{fill:none;}.cls-2,.cls-3{stroke:#000;stroke-linecap:round;stroke-linejoin:round;stroke-width:0.5px;}</style></defs><g id="图层_2" data-name="图层 2"><g id="图层_1-2" data-name="图层 1"><path class="cls-1" d="M4.42,2.34a8,8,0,1,0,11.32,0A8,8,0,0,0,4.42,2.34ZM15.18,13.11a7.22,7.22,0,1,1,0-10.22A7.24,7.24,0,0,1,15.18,13.11Z"/><path class="cls-1" d="M15.66,5.89,11.89,1.73l-4.07,1C6.53.94,5.65,1.51,5.65,1.51L3.55,2l.29,1.7-.95.19L3.1,5.37l2.83-.5L4.8,8l-3,.59L.25,14.22c1.31-.12,16.29-1.36,18.37-3s3.16-6.57,3.16-6.57Z"/><path class="cls-2" d="M15.66,5.89,11.89,1.73l-4.07,1C6.53.94,5.65,1.51,5.65,1.51L3.55,2l.29,1.7-.95.19L3.1,5.37l2.83-.5L4.8,8l-3,.59L.25,14.22c1.31-.12,16.29-1.36,18.37-3s3.16-6.57,3.16-6.57Z"/><path class="cls-3" d="M12.48,5.28l-.31-.77a.52.52,0,0,0-.58-.24l-1.34.26c-.25,0-.4.23-.33.41l.31.78a.52.52,0,0,0,.59.23l1.33-.26C12.4,5.64,12.55,5.46,12.48,5.28Z"/></g></g></svg>