<svg xmlns="http://www.w3.org/2000/svg" viewBox="0 0 22.2 13.33"><defs><style>.cls-1,.cls-3{fill:#ff2f25;}.cls-2{fill:none;}.cls-2,.cls-3{stroke:#000;stroke-miterlimit:10;stroke-width:0.5px;}</style></defs><g id="图层_2" data-name="图层 2"><g id="图层_1-2" data-name="图层 1"><path class="cls-1" d="M15.75,4.72,12,.56l-4.06,1C6.62-.23,5.74.33,5.74.33L3.64.79l.29,1.69-1,.2L3.19,4.2,6,3.7,4.89,6.85l-3,.59L.34,13.05c1.3-.12,16.29-1.36,18.37-3s3.16-6.57,3.16-6.57Z"/><path class="cls-2" d="M15.75,4.72,12,.56l-4.06,1C6.62-.23,5.74.33,5.74.33L3.64.79l.29,1.69-1,.2L3.19,4.2,6,3.7,4.89,6.85l-3,.59L.34,13.05c1.3-.12,16.29-1.36,18.37-3s3.16-6.57,3.16-6.57Z"/><path class="cls-3" d="M12.57,4.11l-.31-.78a.53.53,0,0,0-.59-.23l-1.33.26c-.25.05-.4.23-.33.41l.31.78a.51.51,0,0,0,.58.23l1.34-.26C12.49,4.47,12.64,4.29,12.57,4.11Z"/></g></g></svg>