<svg xmlns="http://www.w3.org/2000/svg" viewBox="0 0 22.2 16"><defs><style>.cls-1,.cls-3{fill:#ff2f25;}.cls-2{fill:none;}.cls-2,.cls-3{stroke:#000;stroke-miterlimit:10;stroke-width:0.5px;}</style></defs><g id="图层_2" data-name="图层 2"><g id="图层_1-2" data-name="图层 1"><path class="cls-1" d="M4.51,2.34a8,8,0,1,0,11.31,0A8,8,0,0,0,4.51,2.34ZM15.27,13.11a7.22,7.22,0,1,1,0-10.22A7.24,7.24,0,0,1,15.27,13.11Z"/><path class="cls-1" d="M15.75,6.15,12,2,7.91,3C6.62,1.2,5.74,1.76,5.74,1.76l-2.1.46.29,1.69-1,.2.21,1.52L6,5.13,4.89,8.28l-3,.59L.34,14.48c1.3-.12,16.29-1.36,18.37-3S21.87,5,21.87,5Z"/><path class="cls-2" d="M15.75,6.15,12,2,7.91,3C6.62,1.2,5.74,1.76,5.74,1.76l-2.1.46.29,1.69-1,.2.21,1.52L6,5.13,4.89,8.28l-3,.59L.34,14.48c1.3-.12,16.29-1.36,18.37-3S21.87,5,21.87,5Z"/><path class="cls-3" d="M12.57,5.54l-.31-.78a.53.53,0,0,0-.59-.23l-1.33.26c-.25,0-.4.23-.33.41l.31.78a.51.51,0,0,0,.58.23L12.24,6C12.49,5.9,12.64,5.72,12.57,5.54Z"/></g></g></svg>