<svg xmlns="http://www.w3.org/2000/svg" viewBox="0 0 22.03 16"><defs><style>.cls-1,.cls-3{fill:#f4fb34;}.cls-2{fill:none;}.cls-2,.cls-3{stroke:#000;stroke-linecap:round;stroke-linejoin:round;stroke-width:0.5px;}</style></defs><g id="图层_2" data-name="图层 2"><g id="图层_1-2" data-name="图层 1"><path class="cls-1" d="M4.42,2.34a8,8,0,1,0,11.32,0A8,8,0,0,0,4.42,2.34ZM15.18,13.11a7.22,7.22,0,1,1,0-10.22A7.24,7.24,0,0,1,15.18,13.11Z"/><path class="cls-1" d="M15.66,6.08,11.89,1.92l-4.07,1C6.53,1.13,5.65,1.69,5.65,1.69l-2.1.46.29,1.69L2.89,4,3.1,5.56l2.83-.51L4.8,8.21l-3,.59L.25,14.4c1.31-.11,16.29-1.35,18.37-3s3.16-6.56,3.16-6.56Z"/><path class="cls-2" d="M15.66,6.08,11.89,1.92l-4.07,1C6.53,1.13,5.65,1.69,5.65,1.69l-2.1.46.29,1.69L2.89,4,3.1,5.56l2.83-.51L4.8,8.21l-3,.59L.25,14.4c1.31-.11,16.29-1.35,18.37-3s3.16-6.56,3.16-6.56Z"/><path class="cls-3" d="M12.48,5.47l-.31-.78a.51.51,0,0,0-.58-.23l-1.34.26c-.25,0-.4.23-.33.41l.31.77a.52.52,0,0,0,.59.24l1.33-.26C12.4,5.83,12.55,5.65,12.48,5.47Z"/></g></g></svg>