<svg xmlns="http://www.w3.org/2000/svg" viewBox="0 0 61.81 14.47"><defs><style>.cls-1{fill:#1d7dcc;}.cls-2{fill:#7a8a9c;stroke:#000611;stroke-miterlimit:10;stroke-width:0.5px;}.cls-3{fill:#d3c9ce;}</style></defs><g id="图层_2" data-name="图层 2"><g id="图层_1-2" data-name="图层 1"><rect class="cls-1" x="13.18" y="1.19" width="34.88" height="4.04"/><rect class="cls-1" x="13.18" y="6.02" width="34.88" height="4.04"/><polygon class="cls-1" points="0 9.6 0 11.25 1.78 11.25 2.7 14.47 58.18 14.47 59.3 11.25 61.81 11.25 61.81 9.6 0 9.6"/><rect class="cls-2" x="15.73" y="1.81" width="1.83" height="2.81"/><rect class="cls-2" x="20.37" y="1.81" width="1.83" height="2.81"/><rect class="cls-2" x="25.02" y="1.81" width="1.83" height="2.81"/><rect class="cls-2" x="29.66" y="1.81" width="1.83" height="2.81"/><rect class="cls-2" x="34.3" y="1.81" width="1.83" height="2.81"/><rect class="cls-2" x="38.94" y="1.81" width="1.83" height="2.81"/><rect class="cls-2" x="43.58" y="1.81" width="1.83" height="2.81"/><rect class="cls-2" x="15.73" y="7.23" width="1.83" height="2.81"/><rect class="cls-2" x="20.37" y="7.23" width="1.83" height="2.81"/><rect class="cls-2" x="25.02" y="7.23" width="1.83" height="2.81"/><rect class="cls-2" x="29.66" y="7.23" width="1.83" height="2.81"/><rect class="cls-2" x="34.3" y="7.23" width="1.83" height="2.81"/><rect class="cls-2" x="38.94" y="7.23" width="1.83" height="2.81"/><rect class="cls-2" x="43.58" y="7.23" width="1.83" height="2.81"/><polygon class="cls-3" points="0 9.6 0 11.25 1.78 11.25 61.81 11.25 61.81 9.6 0 9.6"/><rect class="cls-3" x="11.86" width="38.07" height="1.66"/><rect class="cls-3" x="11.87" y="4.8" width="38.07" height="1.66"/><rect class="cls-1" x="6.82" y="9.6" width="1.83" height="1.66"/><rect class="cls-1" x="51.62" y="9.6" width="1.83" height="1.66"/></g></g></svg>