<svg xmlns="http://www.w3.org/2000/svg" viewBox="0 0 22.39 13.24"><defs><style>.cls-1{fill:none;stroke:#fff;stroke-linecap:round;stroke-linejoin:round;stroke-width:0.5px;}.cls-2{fill:#fff;}</style></defs><g id="图层_2" data-name="图层 2"><g id="图层_1-2" data-name="图层 1"><path d="M21.67,6.65,17.78,6.2V1.3a1.59,1.59,0,0,0-1.31-1h-4c-.32,0-1.33.19-1.31,1.05V5.08a2.4,2.4,0,0,1-.06.36L8.58,5.15V2.35c-.07-.62-1-1-1.32-1H5.94c-.32,0-1.24.27-1.32,1.05V4.7L1,4.28a.71.71,0,0,0-.54.14.39.39,0,0,0-.14.43L3.19,12.6a.6.6,0,0,0,.57.35l17.8,0a.53.53,0,0,0,.58-.47V7.22A.61.61,0,0,0,21.67,6.65Z"/><path class="cls-1" d="M21.67,6.65,17.78,6.2V1.3a1.59,1.59,0,0,0-1.31-1h-4c-.32,0-1.33.19-1.31,1.05V5.08a2.4,2.4,0,0,1-.06.36L8.58,5.15V2.35c-.07-.62-1-1-1.32-1H5.94c-.32,0-1.24.27-1.32,1.05V4.7L1,4.28a.71.71,0,0,0-.54.14.39.39,0,0,0-.14.43L3.19,12.6a.6.6,0,0,0,.57.35l17.8,0a.53.53,0,0,0,.58-.47V7.22A.61.61,0,0,0,21.67,6.65Z"/><path class="cls-2" d="M20,8.79a1.9,1.9,0,0,1-1.06-.31,1.68,1.68,0,0,0-1-.28,1.72,1.72,0,0,0-1,.28,2,2,0,0,1-2.11,0,1.8,1.8,0,0,0-1.93,0,1.9,1.9,0,0,1-1.06.31,1.93,1.93,0,0,1-1.06-.31,1.79,1.79,0,0,0-1.92,0,1.93,1.93,0,0,1-1.06.31,1.9,1.9,0,0,1-1.06-.31,1.68,1.68,0,0,0-1-.28,1.72,1.72,0,0,0-1,.28,2,2,0,0,1-2.11,0,1.72,1.72,0,0,0-1-.28c-.08,0-.15-.12-.15-.26s.07-.26.15-.26A1.9,1.9,0,0,1,2.83,8a1.68,1.68,0,0,0,1,.28,1.69,1.69,0,0,0,1-.28,1.9,1.9,0,0,1,1.06-.31A2,2,0,0,1,6.88,8a1.66,1.66,0,0,0,1,.28A1.68,1.68,0,0,0,8.8,8a2,2,0,0,1,2.12,0,1.68,1.68,0,0,0,1,.28,1.66,1.66,0,0,0,1-.28,2,2,0,0,1,1.06-.31A1.9,1.9,0,0,1,15,8a1.8,1.8,0,0,0,1.93,0A1.9,1.9,0,0,1,18,7.68,2,2,0,0,1,19,8a1.66,1.66,0,0,0,1,.28,1.68,1.68,0,0,0,1-.28A1.9,1.9,0,0,1,22,7.68c.08,0,.15.12.15.26s-.07.26-.15.26a1.68,1.68,0,0,0-1,.28A1.9,1.9,0,0,1,20,8.79Z"/><path class="cls-2" d="M20.06,11a1.79,1.79,0,0,1-1-.3,1.5,1.5,0,0,0-.92-.29,1.53,1.53,0,0,0-.93.29,1.87,1.87,0,0,1-2,0,1.5,1.5,0,0,0-.92-.29,1.53,1.53,0,0,0-.93.29,1.87,1.87,0,0,1-2,0,1.6,1.6,0,0,0-1.84,0,1.84,1.84,0,0,1-1,.3,1.79,1.79,0,0,1-1-.3,1.48,1.48,0,0,0-.92-.29,1.48,1.48,0,0,0-.92.29,1.88,1.88,0,0,1-2,0,1.48,1.48,0,0,0-.92-.29c-.08,0-.14-.11-.14-.26s.06-.25.14-.25a1.82,1.82,0,0,1,1,.3,1.54,1.54,0,0,0,.92.28,1.54,1.54,0,0,0,.92-.28,1.82,1.82,0,0,1,1-.3,1.84,1.84,0,0,1,1,.3,1.65,1.65,0,0,0,1.84,0,1.87,1.87,0,0,1,2,0,1.6,1.6,0,0,0,.93.28,1.57,1.57,0,0,0,.92-.28,1.87,1.87,0,0,1,2,0,1.6,1.6,0,0,0,.93.28,1.57,1.57,0,0,0,.92-.28,1.87,1.87,0,0,1,2,0,1.6,1.6,0,0,0,.93.28,1.57,1.57,0,0,0,.92-.28,1.79,1.79,0,0,1,1-.3c.08,0,.14.11.14.25s-.06.26-.14.26a1.51,1.51,0,0,0-.93.29,1.78,1.78,0,0,1-1,.3Z"/></g></g></svg>