<svg xmlns="http://www.w3.org/2000/svg" viewBox="0 0 22.39 16"><defs><style>.cls-1{fill:#46ccff;}.cls-2{fill:none;stroke:#000;stroke-linecap:round;stroke-linejoin:round;stroke-width:0.5px;}</style></defs><g id="图层_2" data-name="图层 2"><g id="图层_1-2" data-name="图层 1"><path class="cls-1" d="M6.34,2.34a8,8,0,1,0,11.32,0A8,8,0,0,0,6.34,2.34ZM17.11,13.11a7.23,7.23,0,1,1,0-10.22A7.25,7.25,0,0,1,17.11,13.11Z"/><path class="cls-1" d="M21.67,7.94,17.78,7.5V2.59a1.59,1.59,0,0,0-1.31-1h-4c-.32,0-1.33.19-1.31,1V6.38a2.62,2.62,0,0,1-.06.36l-2.57-.3V3.64C8.5,3,7.57,2.59,7.25,2.59H5.94c-.32,0-1.24.27-1.32,1.05V6L1,5.57a.75.75,0,0,0-.54.14.39.39,0,0,0-.14.43l2.92,7.75a.6.6,0,0,0,.57.35l17.8,0a.53.53,0,0,0,.58-.47V8.52A.62.62,0,0,0,21.67,7.94Z"/><path class="cls-2" d="M21.67,7.94,17.78,7.5V2.59a1.59,1.59,0,0,0-1.31-1h-4c-.32,0-1.33.19-1.31,1V6.38a2.62,2.62,0,0,1-.06.36l-2.57-.3V3.64C8.5,3,7.57,2.59,7.25,2.59H5.94c-.32,0-1.24.27-1.32,1.05V6L1,5.57a.75.75,0,0,0-.54.14.39.39,0,0,0-.14.43l2.92,7.75a.6.6,0,0,0,.57.35l17.8,0a.53.53,0,0,0,.58-.47V8.52A.62.62,0,0,0,21.67,7.94Z"/><path d="M20,10.12a1.9,1.9,0,0,1-1.06-.31,1.68,1.68,0,0,0-1-.28,1.72,1.72,0,0,0-1,.28,2,2,0,0,1-2.11,0,1.72,1.72,0,0,0-1-.28,1.68,1.68,0,0,0-1,.28,1.9,1.9,0,0,1-1.06.31,1.93,1.93,0,0,1-1.06-.31,1.79,1.79,0,0,0-1.92,0,1.93,1.93,0,0,1-1.06.31,1.9,1.9,0,0,1-1.06-.31,1.68,1.68,0,0,0-1-.28,1.72,1.72,0,0,0-1,.28,2,2,0,0,1-2.11,0,1.72,1.72,0,0,0-1-.28c-.08,0-.15-.12-.15-.26S1.69,9,1.77,9a1.83,1.83,0,0,1,1.06.31,1.68,1.68,0,0,0,1,.28,1.69,1.69,0,0,0,1-.28A1.83,1.83,0,0,1,5.82,9a1.88,1.88,0,0,1,1.06.31,1.66,1.66,0,0,0,1,.28,1.68,1.68,0,0,0,1-.28,2,2,0,0,1,2.12,0,1.68,1.68,0,0,0,1,.28,1.66,1.66,0,0,0,1-.28A1.88,1.88,0,0,1,13.9,9,1.83,1.83,0,0,1,15,9.32a1.8,1.8,0,0,0,1.93,0A1.83,1.83,0,0,1,18,9,1.88,1.88,0,0,1,19,9.32a1.66,1.66,0,0,0,1,.28,1.68,1.68,0,0,0,1-.28A1.83,1.83,0,0,1,22,9c.08,0,.15.12.15.26s-.07.26-.15.26a1.68,1.68,0,0,0-1,.28,1.9,1.9,0,0,1-1.06.31Z"/><path d="M20.06,12.32A1.78,1.78,0,0,1,19,12a1.57,1.57,0,0,0-.92-.28,1.6,1.6,0,0,0-.93.28,1.82,1.82,0,0,1-2,0,1.57,1.57,0,0,0-.92-.28,1.6,1.6,0,0,0-.93.28,1.82,1.82,0,0,1-2,0,1.57,1.57,0,0,0-.92-.28,1.54,1.54,0,0,0-.92.28,1.84,1.84,0,0,1-1,.31,1.78,1.78,0,0,1-1-.31,1.54,1.54,0,0,0-.92-.28,1.54,1.54,0,0,0-.92.28,1.83,1.83,0,0,1-2,0,1.54,1.54,0,0,0-.92-.28c-.08,0-.14-.12-.14-.26s.06-.26.14-.26a1.81,1.81,0,0,1,1,.31,1.54,1.54,0,0,0,.92.28,1.54,1.54,0,0,0,.92-.28,1.78,1.78,0,0,1,1-.31,1.84,1.84,0,0,1,1,.31,1.65,1.65,0,0,0,1.84,0,1.82,1.82,0,0,1,2,0,1.6,1.6,0,0,0,.93.28,1.57,1.57,0,0,0,.92-.28,1.82,1.82,0,0,1,2,0,1.6,1.6,0,0,0,.93.28,1.57,1.57,0,0,0,.92-.28,1.82,1.82,0,0,1,2,0,1.6,1.6,0,0,0,.93.28,1.57,1.57,0,0,0,.92-.28,1.78,1.78,0,0,1,1-.31c.08,0,.14.12.14.26s-.06.26-.14.26a1.58,1.58,0,0,0-.93.28,1.77,1.77,0,0,1-1,.31Z"/></g></g></svg>