<svg xmlns="http://www.w3.org/2000/svg" viewBox="0 0 22.39 13.24"><defs><style>.cls-1{fill:#28e29a;}.cls-2{fill:none;stroke:#000;stroke-linecap:round;stroke-linejoin:round;stroke-width:0.5px;}</style></defs><g id="图层_2" data-name="图层 2"><g id="图层_1-2" data-name="图层 1"><path class="cls-1" d="M21.67,6.65,17.78,6.2V1.3a1.59,1.59,0,0,0-1.31-1h-4c-.32,0-1.33.19-1.31,1.05V5.08a2.4,2.4,0,0,1-.06.36L8.58,5.15V2.35c-.07-.62-1-1-1.32-1H5.94c-.32,0-1.24.27-1.32,1.05V4.7L1,4.28a.71.71,0,0,0-.54.14.39.39,0,0,0-.14.43L3.19,12.6a.6.6,0,0,0,.57.35l17.8,0a.53.53,0,0,0,.58-.47V7.22A.61.61,0,0,0,21.67,6.65Z"/><path class="cls-2" d="M21.67,6.65,17.78,6.2V1.3a1.59,1.59,0,0,0-1.31-1h-4c-.32,0-1.33.19-1.31,1.05V5.08a2.4,2.4,0,0,1-.06.36L8.58,5.15V2.35c-.07-.62-1-1-1.32-1H5.94c-.32,0-1.24.27-1.32,1.05V4.7L1,4.28a.71.71,0,0,0-.54.14.39.39,0,0,0-.14.43L3.19,12.6a.6.6,0,0,0,.57.35l17.8,0a.53.53,0,0,0,.58-.47V7.22A.61.61,0,0,0,21.67,6.65Z"/><path d="M20,8.82a1.91,1.91,0,0,1-1.06-.3,1.68,1.68,0,0,0-1-.29,1.72,1.72,0,0,0-1,.29,2,2,0,0,1-2.11,0,1.75,1.75,0,0,0-1.93,0,1.91,1.91,0,0,1-1.06.3,1.94,1.94,0,0,1-1.06-.3,1.73,1.73,0,0,0-1.92,0,1.94,1.94,0,0,1-1.06.3,1.91,1.91,0,0,1-1.06-.3,1.68,1.68,0,0,0-1-.29,1.72,1.72,0,0,0-1,.29,1.91,1.91,0,0,1-1.06.3,1.9,1.9,0,0,1-1-.3,1.72,1.72,0,0,0-1-.29c-.08,0-.15-.11-.15-.25s.07-.26.15-.26A1.91,1.91,0,0,1,2.83,8a1.68,1.68,0,0,0,1,.29,1.69,1.69,0,0,0,1-.29,1.91,1.91,0,0,1,1.06-.3A2,2,0,0,1,6.88,8a1.65,1.65,0,0,0,1,.29A1.68,1.68,0,0,0,8.8,8a2,2,0,0,1,2.12,0,1.68,1.68,0,0,0,1,.29,1.65,1.65,0,0,0,1-.29,2,2,0,0,1,1.06-.3A1.91,1.91,0,0,1,15,8a1.75,1.75,0,0,0,1.93,0A1.91,1.91,0,0,1,18,7.72,2,2,0,0,1,19,8a1.65,1.65,0,0,0,1,.29,1.68,1.68,0,0,0,1-.29A1.91,1.91,0,0,1,22,7.72c.08,0,.15.11.15.26s-.07.25-.15.25a1.68,1.68,0,0,0-1,.29,1.91,1.91,0,0,1-1.06.3Z"/><path d="M20.06,11a1.78,1.78,0,0,1-1-.31,1.57,1.57,0,0,0-.92-.28,1.6,1.6,0,0,0-.93.28,1.82,1.82,0,0,1-2,0,1.57,1.57,0,0,0-.92-.28,1.6,1.6,0,0,0-.93.28,1.82,1.82,0,0,1-2,0,1.65,1.65,0,0,0-1.84,0,1.84,1.84,0,0,1-1,.31,1.78,1.78,0,0,1-1-.31,1.54,1.54,0,0,0-.92-.28,1.54,1.54,0,0,0-.92.28,1.83,1.83,0,0,1-2,0,1.54,1.54,0,0,0-.92-.28c-.08,0-.14-.12-.14-.26s.06-.26.14-.26a1.74,1.74,0,0,1,1,.31,1.54,1.54,0,0,0,.92.28,1.54,1.54,0,0,0,.92-.28,1.74,1.74,0,0,1,1-.31,1.76,1.76,0,0,1,1,.31,1.65,1.65,0,0,0,1.84,0,1.82,1.82,0,0,1,2,0,1.6,1.6,0,0,0,.93.28,1.57,1.57,0,0,0,.92-.28,1.82,1.82,0,0,1,2,0,1.6,1.6,0,0,0,.93.28,1.57,1.57,0,0,0,.92-.28,1.82,1.82,0,0,1,2,0,1.6,1.6,0,0,0,.93.28,1.57,1.57,0,0,0,.92-.28,1.71,1.71,0,0,1,1-.31c.08,0,.14.12.14.26s-.06.26-.14.26a1.58,1.58,0,0,0-.93.28,1.77,1.77,0,0,1-1,.31Z"/></g></g></svg>