<svg xmlns="http://www.w3.org/2000/svg" viewBox="0 0 22.39 16"><defs><style>.cls-1{fill:#28e29a;}.cls-2{fill:none;stroke:#000;stroke-linecap:round;stroke-linejoin:round;stroke-width:0.5px;}</style></defs><g id="图层_2" data-name="图层 2"><g id="图层_1-2" data-name="图层 1"><path class="cls-1" d="M6.28,2.34a8,8,0,1,0,11.32,0A8,8,0,0,0,6.28,2.34ZM17.05,13.11a7.23,7.23,0,1,1,0-10.22A7.25,7.25,0,0,1,17.05,13.11Z"/><path class="cls-1" d="M21.67,8l-3.89-.45V2.67a1.59,1.59,0,0,0-1.31-1h-4c-.32,0-1.33.19-1.31,1V6.45a2.49,2.49,0,0,1-.06.37l-2.57-.3V3.72c-.07-.61-1-1.05-1.32-1.05H5.94c-.32,0-1.24.27-1.32,1.05V6.07L1,5.65a.71.71,0,0,0-.54.14.39.39,0,0,0-.14.43L3.19,14a.6.6,0,0,0,.57.35l17.8,0a.53.53,0,0,0,.58-.47V8.59A.62.62,0,0,0,21.67,8Z"/><path class="cls-2" d="M21.67,8l-3.89-.45V2.67a1.59,1.59,0,0,0-1.31-1h-4c-.32,0-1.33.19-1.31,1V6.45a2.49,2.49,0,0,1-.06.37l-2.57-.3V3.72c-.07-.61-1-1.05-1.32-1.05H5.94c-.32,0-1.24.27-1.32,1.05V6.07L1,5.65a.71.71,0,0,0-.54.14.39.39,0,0,0-.14.43L3.19,14a.6.6,0,0,0,.57.35l17.8,0a.53.53,0,0,0,.58-.47V8.59A.62.62,0,0,0,21.67,8Z"/><path d="M20,10.19a1.91,1.91,0,0,1-1.06-.3,1.68,1.68,0,0,0-1-.28,1.72,1.72,0,0,0-1,.28,2,2,0,0,1-2.11,0,1.72,1.72,0,0,0-1-.28,1.68,1.68,0,0,0-1,.28,1.91,1.91,0,0,1-1.06.3,1.94,1.94,0,0,1-1.06-.3,1.79,1.79,0,0,0-1.92,0,1.94,1.94,0,0,1-1.06.3,1.91,1.91,0,0,1-1.06-.3,1.68,1.68,0,0,0-1-.28,1.72,1.72,0,0,0-1,.28,1.91,1.91,0,0,1-1.06.3,1.9,1.9,0,0,1-1-.3,1.72,1.72,0,0,0-1-.28c-.08,0-.15-.12-.15-.26s.07-.26.15-.26a1.91,1.91,0,0,1,1.06.3,1.61,1.61,0,0,0,1,.29,1.62,1.62,0,0,0,1-.29,1.91,1.91,0,0,1,1.06-.3,2,2,0,0,1,1.06.3,1.58,1.58,0,0,0,1,.29,1.61,1.61,0,0,0,1-.29,2,2,0,0,1,2.12,0,1.61,1.61,0,0,0,1,.29,1.58,1.58,0,0,0,1-.29,2,2,0,0,1,1.06-.3,1.91,1.91,0,0,1,1.06.3,1.75,1.75,0,0,0,1.93,0A1.91,1.91,0,0,1,18,9.09a2,2,0,0,1,1.06.3,1.58,1.58,0,0,0,1,.29,1.61,1.61,0,0,0,1-.29A1.91,1.91,0,0,1,22,9.09c.08,0,.15.12.15.26s-.07.26-.15.26a1.68,1.68,0,0,0-1,.28,1.91,1.91,0,0,1-1.06.3Z"/><path d="M20.06,12.4a1.78,1.78,0,0,1-1-.31,1.57,1.57,0,0,0-.92-.28,1.6,1.6,0,0,0-.93.28,1.82,1.82,0,0,1-2,0,1.57,1.57,0,0,0-.92-.28,1.6,1.6,0,0,0-.93.28,1.82,1.82,0,0,1-2,0,1.57,1.57,0,0,0-.92-.28,1.54,1.54,0,0,0-.92.28,1.84,1.84,0,0,1-1,.31,1.78,1.78,0,0,1-1-.31,1.54,1.54,0,0,0-.92-.28,1.54,1.54,0,0,0-.92.28,1.83,1.83,0,0,1-2,0,1.54,1.54,0,0,0-.92-.28c-.08,0-.14-.12-.14-.26s.06-.26.14-.26a1.81,1.81,0,0,1,1,.31,1.54,1.54,0,0,0,.92.28,1.54,1.54,0,0,0,.92-.28,1.78,1.78,0,0,1,1-.31,1.84,1.84,0,0,1,1,.31,1.65,1.65,0,0,0,1.84,0,1.82,1.82,0,0,1,2,0,1.6,1.6,0,0,0,.93.28,1.57,1.57,0,0,0,.92-.28,1.82,1.82,0,0,1,2,0,1.6,1.6,0,0,0,.93.28,1.57,1.57,0,0,0,.92-.28,1.82,1.82,0,0,1,2,0,1.6,1.6,0,0,0,.93.28A1.57,1.57,0,0,0,21,11.6a1.78,1.78,0,0,1,1-.31c.08,0,.14.12.14.26s-.06.26-.14.26a1.58,1.58,0,0,0-.93.28,1.77,1.77,0,0,1-1,.31Z"/></g></g></svg>