<svg xmlns="http://www.w3.org/2000/svg" viewBox="0 0 22.39 16"><defs><style>.cls-1{fill:#28e29a;}.cls-2{fill:none;stroke:#000;stroke-linecap:round;stroke-linejoin:round;stroke-width:0.5px;}</style></defs><g id="图层_2" data-name="图层 2"><g id="图层_1-2" data-name="图层 1"><path class="cls-1" d="M5.6,2.34a8,8,0,1,0,11.32,0A8,8,0,0,0,5.6,2.34ZM16.37,13.11a7.22,7.22,0,1,1,0-10.22A7.25,7.25,0,0,1,16.37,13.11Z"/><path class="cls-1" d="M21.67,8l-3.89-.45V2.67a1.59,1.59,0,0,0-1.31-1h-4c-.32,0-1.33.19-1.31,1V6.45a2.49,2.49,0,0,1-.06.37l-2.57-.3V3.72c-.07-.61-1-1.05-1.32-1.05H5.94c-.32,0-1.24.27-1.32,1.05V6.07L1,5.65a.71.71,0,0,0-.54.14.39.39,0,0,0-.14.43L3.19,14a.6.6,0,0,0,.57.35l17.8,0a.53.53,0,0,0,.58-.47V8.59A.62.62,0,0,0,21.67,8Z"/><path class="cls-2" d="M21.67,8l-3.89-.45V2.67a1.59,1.59,0,0,0-1.31-1h-4c-.32,0-1.33.19-1.31,1V6.45a2.49,2.49,0,0,1-.06.37l-2.57-.3V3.72c-.07-.61-1-1.05-1.32-1.05H5.94c-.32,0-1.24.27-1.32,1.05V6.07L1,5.65a.71.71,0,0,0-.54.14.39.39,0,0,0-.14.43L3.19,14a.6.6,0,0,0,.57.35l17.8,0a.53.53,0,0,0,.58-.47V8.59A.62.62,0,0,0,21.67,8Z"/></g></g></svg>