<svg xmlns="http://www.w3.org/2000/svg" viewBox="0 0 22.39 16"><defs><style>.cls-1{fill:#ff7300;}.cls-2{fill:none;stroke:#000;stroke-miterlimit:10;stroke-width:0.5px;}</style></defs><g id="图层_2" data-name="图层 2"><g id="图层_1-2" data-name="图层 1"><path class="cls-1" d="M5.6,2.34a8,8,0,1,0,11.32,0A8,8,0,0,0,5.6,2.34ZM16.37,13.11a7.22,7.22,0,1,1,0-10.22A7.25,7.25,0,0,1,16.37,13.11Z"/><path class="cls-1" d="M21.67,7.94l-3.89-.45V2.59a1.59,1.59,0,0,0-1.31-1h-4c-.32,0-1.33.18-1.31,1V6.37a2.62,2.62,0,0,1-.06.36L8.58,6.44V3.64C8.5,3,7.57,2.59,7.25,2.59H5.94c-.32,0-1.24.27-1.32,1.05V6L1,5.57a.67.67,0,0,0-.54.14.39.39,0,0,0-.14.43l2.92,7.75a.6.6,0,0,0,.57.35l17.8,0a.53.53,0,0,0,.58-.46V8.51A.61.61,0,0,0,21.67,7.94Z"/><path class="cls-2" d="M21.67,7.94l-3.89-.45V2.59a1.59,1.59,0,0,0-1.31-1h-4c-.32,0-1.33.18-1.31,1V6.37a2.62,2.62,0,0,1-.06.36L8.58,6.44V3.64C8.5,3,7.57,2.59,7.25,2.59H5.94c-.32,0-1.24.27-1.32,1.05V6L1,5.57a.67.67,0,0,0-.54.14.39.39,0,0,0-.14.43l2.92,7.75a.6.6,0,0,0,.57.35l17.8,0a.53.53,0,0,0,.58-.46V8.51A.61.61,0,0,0,21.67,7.94Z"/></g></g></svg>