<svg xmlns="http://www.w3.org/2000/svg" viewBox="0 0 22.39 16"><defs><style>.cls-1{fill:#ff00ea;}.cls-2{fill:none;stroke:#000;stroke-linecap:round;stroke-linejoin:round;stroke-width:0.5px;}</style></defs><g id="图层_2" data-name="图层 2"><g id="图层_1-2" data-name="图层 1"><path class="cls-1" d="M5.66,2.34A8,8,0,1,0,17,2.34,8,8,0,0,0,5.66,2.34ZM16.43,13.11a7.23,7.23,0,1,1,0-10.22A7.25,7.25,0,0,1,16.43,13.11Z"/><path class="cls-1" d="M21.67,8l-3.89-.45V2.69a1.59,1.59,0,0,0-1.31-1h-4c-.32,0-1.33.19-1.31,1.05V6.47a2.49,2.49,0,0,1-.06.37l-2.57-.3V3.74c-.07-.62-1-1.05-1.32-1.05H5.94c-.32,0-1.24.27-1.32,1.05V6.09L1,5.67a.71.71,0,0,0-.54.14.39.39,0,0,0-.14.43L3.19,14a.6.6,0,0,0,.57.35l17.8,0a.53.53,0,0,0,.58-.47V8.61A.62.62,0,0,0,21.67,8Z"/><path class="cls-2" d="M21.67,8l-3.89-.45V2.69a1.59,1.59,0,0,0-1.31-1h-4c-.32,0-1.33.19-1.31,1.05V6.47a2.49,2.49,0,0,1-.06.37l-2.57-.3V3.74c-.07-.62-1-1.05-1.32-1.05H5.94c-.32,0-1.24.27-1.32,1.05V6.09L1,5.67a.71.71,0,0,0-.54.14.39.39,0,0,0-.14.43L3.19,14a.6.6,0,0,0,.57.35l17.8,0a.53.53,0,0,0,.58-.47V8.61A.62.62,0,0,0,21.67,8Z"/></g></g></svg>