<svg xmlns="http://www.w3.org/2000/svg" viewBox="0 0 22.39 13.24"><defs><style>.cls-1{fill:#ff00ea;}.cls-2{fill:none;stroke:#000;stroke-linecap:round;stroke-linejoin:round;stroke-width:0.5px;}</style></defs><g id="图层_2" data-name="图层 2"><g id="图层_1-2" data-name="图层 1"><path class="cls-1" d="M21.67,6.65,17.78,6.2V1.3a1.59,1.59,0,0,0-1.31-1h-4c-.32,0-1.33.19-1.31,1.05V5.08a2.4,2.4,0,0,1-.06.36L8.58,5.15V2.35c-.07-.62-1-1-1.32-1H5.94c-.32,0-1.24.27-1.32,1.05V4.7L1,4.28a.71.71,0,0,0-.54.14.39.39,0,0,0-.14.43L3.19,12.6a.6.6,0,0,0,.57.35l17.8,0a.53.53,0,0,0,.58-.47V7.22A.61.61,0,0,0,21.67,6.65Z"/><path class="cls-2" d="M21.67,6.65,17.78,6.2V1.3a1.59,1.59,0,0,0-1.31-1h-4c-.32,0-1.33.19-1.31,1.05V5.08a2.4,2.4,0,0,1-.06.36L8.58,5.15V2.35c-.07-.62-1-1-1.32-1H5.94c-.32,0-1.24.27-1.32,1.05V4.7L1,4.28a.71.71,0,0,0-.54.14.39.39,0,0,0-.14.43L3.19,12.6a.6.6,0,0,0,.57.35l17.8,0a.53.53,0,0,0,.58-.47V7.22A.61.61,0,0,0,21.67,6.65Z"/></g></g></svg>