<svg xmlns="http://www.w3.org/2000/svg" viewBox="0 0 11.15 11.15"><defs><style>.cls-1{fill:#0098ff;}.cls-2{fill:#fff;}</style></defs><g id="图层_2" data-name="图层 2"><g id="图层_1-2" data-name="图层 1"><path d="M5.58,0a5.58,5.58,0,1,0,5.57,5.58A5.58,5.58,0,0,0,5.58,0Zm0,10.56a5,5,0,1,1,5-5A5,5,0,0,1,5.58,10.56Z"/><path class="cls-1" d="M5.58.6a5,5,0,1,0,5,5A5,5,0,0,0,5.58.6Zm0,8.15A3.18,3.18,0,1,1,8.75,5.58,3.17,3.17,0,0,1,5.58,8.75Z"/><path class="cls-2" d="M5.58,2.4A3.18,3.18,0,1,0,8.75,5.58,3.18,3.18,0,0,0,5.58,2.4Z"/></g></g></svg>