<svg xmlns="http://www.w3.org/2000/svg" viewBox="0 0 24.03 16.17"><defs><style>.cls-1{fill:#fff;}.cls-2{stroke:#fff;stroke-linecap:round;stroke-linejoin:round;stroke-width:0.5px;}</style></defs><g id="图层_2" data-name="图层 2"><g id="图层_1-2" data-name="图层 1"><path class="cls-1" d="M7.81,2.51a8,8,0,1,0,11.32,0A8,8,0,0,0,7.81,2.51ZM18.57,13.28a7.22,7.22,0,1,1,0-10.22A7.24,7.24,0,0,1,18.57,13.28Z"/><path class="cls-2" d="M12.86,4.31l1,0,.2.3V7.7l-1.34,0,0-3Z"/><path class="cls-2" d="M9.17,7.43l0-4.11,3.53,0,0-1.51h1.74V.25h1.41v3l3.76.11,0,1.64-2.51,0,.57,2.76s2,.46,3.3.58c1,.1,2.83.92,2.83,1.91v2.67L4.32,12.49a4,4,0,0,0-.08-1.93C3.83,8.75.53,6.46.25,6.37,2.45,7.11,5.85,7.12,9.17,7.43Z"/><rect class="cls-2" x="13.85" y="4.89" width="1.54" height="2.22" transform="translate(29.24 12.01) rotate(-180)"/><rect class="cls-2" x="10.9" y="4.89" width="1.54" height="2.22" transform="translate(23.35 12.01) rotate(-180)"/></g></g></svg>