<svg xmlns="http://www.w3.org/2000/svg" viewBox="0 0 24.03 13.11"><defs><style>.cls-1{fill:#0782ad;}.cls-1,.cls-2{stroke:#000;stroke-linecap:round;stroke-linejoin:round;stroke-width:0.5px;}.cls-2{fill:#46ccff;}</style></defs><g id="图层_2" data-name="图层 2"><g id="图层_1-2" data-name="图层 1"><path class="cls-1" d="M12.86,4.31l1,0,.2.3V7.7l-1.34,0,0-3Z"/><path class="cls-2" d="M9.17,7.43l0-4.11,3.53,0,0-1.51h1.74V.25h1.41v3l3.76.11,0,1.64-2.51,0,.57,2.76s2,.46,3.3.58c1,.1,2.83.92,2.83,1.91v2.67L4.32,12.49a4,4,0,0,0-.08-1.93C3.83,8.75.53,6.46.25,6.37,2.45,7.11,5.85,7.12,9.17,7.43Z"/><rect class="cls-2" x="13.85" y="4.89" width="1.54" height="2.22" transform="translate(29.24 12.01) rotate(-180)"/><rect class="cls-2" x="10.9" y="4.89" width="1.54" height="2.22" transform="translate(23.35 12.01) rotate(-180)"/><path d="M20.58,9.82a1.78,1.78,0,0,1-1-.3,1.65,1.65,0,0,0-1.84,0,1.85,1.85,0,0,1-2,0,1.57,1.57,0,0,0-.92-.28,1.54,1.54,0,0,0-.92.28,1.87,1.87,0,0,1-2,0,1.54,1.54,0,0,0-.92-.28,1.57,1.57,0,0,0-.92.28,1.85,1.85,0,0,1-2,0,1.65,1.65,0,0,0-1.84,0,1.85,1.85,0,0,1-2,0,1.57,1.57,0,0,0-.92-.28c-.08,0-.15-.12-.15-.26s.07-.26.15-.26a1.78,1.78,0,0,1,1,.3A1.6,1.6,0,0,0,6.05,9a1.85,1.85,0,0,1,2,0A1.57,1.57,0,0,0,9,9.31,1.54,1.54,0,0,0,9.91,9a1.87,1.87,0,0,1,2,0,1.59,1.59,0,0,0,1.83,0,1.87,1.87,0,0,1,2,0,1.54,1.54,0,0,0,.92.29A1.57,1.57,0,0,0,17.64,9a1.85,1.85,0,0,1,2,0A1.6,1.6,0,0,0,21.5,9a1.78,1.78,0,0,1,1-.3c.08,0,.15.12.15.26s-.07.26-.15.26a1.57,1.57,0,0,0-.92.28,1.78,1.78,0,0,1-1,.3Z"/><path d="M21.71,11.91a1.74,1.74,0,0,1-1-.3,1.5,1.5,0,0,0-.92-.29,1.47,1.47,0,0,0-.91.29,1.78,1.78,0,0,1-1,.3,1.72,1.72,0,0,1-1-.3,1.5,1.5,0,0,0-.92-.29,1.44,1.44,0,0,0-.91.29,1.85,1.85,0,0,1-2,0,1.44,1.44,0,0,0-.91-.29,1.5,1.5,0,0,0-.92.29,1.72,1.72,0,0,1-1,.3,1.78,1.78,0,0,1-1-.3,1.47,1.47,0,0,0-.91-.29,1.5,1.5,0,0,0-.92.29,1.74,1.74,0,0,1-1,.3,1.78,1.78,0,0,1-1-.3,1.5,1.5,0,0,0-.92-.29c-.07,0-.14-.11-.14-.26s.07-.25.14-.25a1.78,1.78,0,0,1,1,.3,1.64,1.64,0,0,0,1.83,0,1.78,1.78,0,0,1,1-.3,1.74,1.74,0,0,1,1,.3,1.57,1.57,0,0,0,.92.28,1.53,1.53,0,0,0,.91-.28,1.78,1.78,0,0,1,1-.3,1.72,1.72,0,0,1,1,.3,1.57,1.57,0,0,0,.92.28,1.51,1.51,0,0,0,.91-.28,1.85,1.85,0,0,1,2,0,1.51,1.51,0,0,0,.91.28,1.57,1.57,0,0,0,.92-.28,1.72,1.72,0,0,1,1-.3,1.78,1.78,0,0,1,1,.3,1.53,1.53,0,0,0,.91.28,1.57,1.57,0,0,0,.92-.28,1.77,1.77,0,0,1,1-.3c.08,0,.15.11.15.25s-.07.26-.15.26a1.49,1.49,0,0,0-.91.29,1.64,1.64,0,0,1-1,.3Z"/></g></g></svg>