<svg xmlns="http://www.w3.org/2000/svg" viewBox="0 0 24.03 16"><defs><style>.cls-1,.cls-3{fill:#0098ff;}.cls-2{fill:#28e29a;}.cls-2,.cls-3{stroke:#000;stroke-linecap:round;stroke-linejoin:round;stroke-width:0.5px;}</style></defs><g id="图层_2" data-name="图层 2"><g id="图层_1-2" data-name="图层 1"><path class="cls-1" d="M7.81,2.34a8,8,0,1,0,11.32,0A8,8,0,0,0,7.81,2.34ZM18.57,13.11a7.22,7.22,0,1,1,0-10.22A7.24,7.24,0,0,1,18.57,13.11Z"/><path class="cls-2" d="M12.86,4.65l1,0L14,5V8.05L12.67,8l0-3Z"/><path class="cls-3" d="M9.17,7.78l0-4.11,3.53,0,0-1.52h1.74V.6h1.41v3l3.76.11,0,1.64-2.51,0,.57,2.76s2,.46,3.3.58c1,.09,2.83.92,2.83,1.91v2.67L4.32,12.84a4,4,0,0,0-.08-1.93C3.83,9.1.53,6.81.25,6.72,2.45,7.46,5.85,7.47,9.17,7.78Z"/><rect class="cls-3" x="13.85" y="5.24" width="1.54" height="2.22" transform="translate(29.24 12.7) rotate(-180)"/><rect class="cls-3" x="10.9" y="5.24" width="1.54" height="2.22" transform="translate(23.35 12.7) rotate(-180)"/></g></g></svg>