<svg xmlns="http://www.w3.org/2000/svg" viewBox="0 0 23.86 16"><defs><style>.cls-1,.cls-2{fill:#ff7300;}.cls-2{stroke:#000;stroke-miterlimit:10;stroke-width:0.5px;}</style></defs><g id="图层_2" data-name="图层 2"><g id="图层_1-2" data-name="图层 1"><path class="cls-1" d="M7.64,2.34A8,8,0,1,0,19,2.34,8,8,0,0,0,7.64,2.34ZM18.4,13.11a7.22,7.22,0,1,1,0-10.22A7.24,7.24,0,0,1,18.4,13.11Z"/><path class="cls-2" d="M12.69,4.69l1,0,.2.29V8.09L12.5,8l0-3Z"/><path class="cls-2" d="M9,7.82,9,3.7l3.53-.05,0-1.51H14.2V.64h1.41v3l3.76.11,0,1.64-2.51,0,.57,2.77s2,.46,3.3.58c1,.09,2.83.92,2.83,1.91v2.67L4.15,12.87A3.92,3.92,0,0,0,4.07,11C3.66,9.14.36,6.85.08,6.76,2.28,7.5,5.68,7.51,9,7.82Z"/><rect class="cls-2" x="13.68" y="5.28" width="1.54" height="2.22" transform="translate(28.9 12.78) rotate(-180)"/><rect class="cls-2" x="10.73" y="5.28" width="1.54" height="2.22" transform="translate(23.01 12.78) rotate(-180)"/></g></g></svg>