<svg xmlns="http://www.w3.org/2000/svg" viewBox="0 0 24.03 16.48"><defs><style>.cls-1,.cls-2{fill:#ff00ea;}.cls-2{stroke:#000;stroke-linecap:round;stroke-linejoin:round;stroke-width:0.5px;}</style></defs><g id="图层_2" data-name="图层 2"><g id="图层_1-2" data-name="图层 1"><path class="cls-1" d="M7.66,2.82A8,8,0,1,0,19,2.82,8,8,0,0,0,7.66,2.82ZM18.43,13.58a7.22,7.22,0,1,1,0-10.21A7.23,7.23,0,0,1,18.43,13.58Z"/><path class="cls-2" d="M12.86,4.31l1,0,.2.3V7.7l-1.34,0,0-3Z"/><path class="cls-2" d="M9.17,7.43l0-4.11,3.53,0,0-1.51h1.74V.25h1.41v3l3.76.11,0,1.64-2.51,0,.57,2.76s2,.46,3.3.58c1,.1,2.83.92,2.83,1.91v2.67L4.32,12.49a4,4,0,0,0-.08-1.93C3.83,8.75.53,6.46.25,6.37,2.45,7.11,5.85,7.12,9.17,7.43Z"/><rect class="cls-2" x="13.85" y="4.89" width="1.54" height="2.22" transform="translate(29.24 12.01) rotate(-180)"/><rect class="cls-2" x="10.9" y="4.89" width="1.54" height="2.22" transform="translate(23.35 12.01) rotate(-180)"/><path d="M20.58,9.68a1.7,1.7,0,0,1-1-.31,1.65,1.65,0,0,0-1.84,0,1.8,1.8,0,0,1-2,0,1.57,1.57,0,0,0-.92-.28,1.54,1.54,0,0,0-.92.28,1.82,1.82,0,0,1-2,0,1.54,1.54,0,0,0-.92-.28,1.57,1.57,0,0,0-.92.28,1.8,1.8,0,0,1-2,0,1.65,1.65,0,0,0-1.84,0,1.7,1.7,0,0,1-1,.31,1.7,1.7,0,0,1-1-.31,1.57,1.57,0,0,0-.92-.28c-.08,0-.15-.12-.15-.26s.07-.26.15-.26a1.77,1.77,0,0,1,1,.31,1.65,1.65,0,0,0,1.84,0,1.8,1.8,0,0,1,2,0A1.57,1.57,0,0,0,9,9.16a1.54,1.54,0,0,0,.92-.28,1.82,1.82,0,0,1,2,0,1.64,1.64,0,0,0,1.83,0,1.82,1.82,0,0,1,2,0,1.54,1.54,0,0,0,.92.28,1.57,1.57,0,0,0,.92-.28,1.8,1.8,0,0,1,2,0,1.65,1.65,0,0,0,1.84,0,1.77,1.77,0,0,1,1-.31c.08,0,.15.12.15.26s-.07.26-.15.26a1.57,1.57,0,0,0-.92.28,1.7,1.7,0,0,1-1,.31Z"/><path d="M21.71,11.77a1.74,1.74,0,0,1-1-.31,1.57,1.57,0,0,0-.92-.28,1.53,1.53,0,0,0-.91.28,1.77,1.77,0,0,1-1,.31,1.71,1.71,0,0,1-1-.31,1.57,1.57,0,0,0-.92-.28,1.51,1.51,0,0,0-.91.28,1.8,1.8,0,0,1-2,0,1.51,1.51,0,0,0-.91-.28,1.57,1.57,0,0,0-.92.28,1.71,1.71,0,0,1-1,.31,1.77,1.77,0,0,1-1-.31,1.53,1.53,0,0,0-.91-.28,1.57,1.57,0,0,0-.92.28,1.74,1.74,0,0,1-1,.31,1.77,1.77,0,0,1-1-.31,1.57,1.57,0,0,0-.92-.28c-.07,0-.14-.12-.14-.26s.07-.26.14-.26a1.77,1.77,0,0,1,1,.31,1.64,1.64,0,0,0,1.83,0,1.77,1.77,0,0,1,1-.31,1.74,1.74,0,0,1,1,.31,1.57,1.57,0,0,0,.92.28A1.53,1.53,0,0,0,11.1,11a1.77,1.77,0,0,1,1-.31,1.71,1.71,0,0,1,1,.31,1.57,1.57,0,0,0,.92.28,1.51,1.51,0,0,0,.91-.28,1.8,1.8,0,0,1,2,0,1.51,1.51,0,0,0,.91.28,1.57,1.57,0,0,0,.92-.28,1.71,1.71,0,0,1,1-.31,1.77,1.77,0,0,1,1,.31,1.53,1.53,0,0,0,.91.28,1.57,1.57,0,0,0,.92-.28,1.76,1.76,0,0,1,1-.31c.08,0,.15.12.15.26s-.07.26-.15.26a1.56,1.56,0,0,0-.91.28,1.57,1.57,0,0,1-1,.31Z"/></g></g></svg>