<svg xmlns="http://www.w3.org/2000/svg" viewBox="0 0 23.86 13.11"><defs><style>.cls-1{fill:#ff2f25;stroke:#000;stroke-miterlimit:10;stroke-width:0.5px;}</style></defs><g id="图层_2" data-name="图层 2"><g id="图层_1-2" data-name="图层 1"><path class="cls-1" d="M12.69,4.31l1,0,.2.3V7.7l-1.34,0,0-3Z"/><path class="cls-1" d="M9,7.43,9,3.32l3.53,0,0-1.51H14.2V.25h1.41v3l3.76.11,0,1.64-2.51,0,.57,2.76s2,.46,3.3.58c1,.1,2.83.92,2.83,1.91v2.67L4.15,12.49a4,4,0,0,0-.08-1.93C3.66,8.75.36,6.46.08,6.37,2.28,7.12,5.68,7.12,9,7.43Z"/><rect class="cls-1" x="13.68" y="4.89" width="1.54" height="2.22" transform="translate(28.9 12.01) rotate(-180)"/><rect class="cls-1" x="10.73" y="4.89" width="1.54" height="2.22" transform="translate(23.01 12.01) rotate(-180)"/></g></g></svg>